{"glyphs":{"0":{"ha":793,"x_min":69,"x_max":760,"o":"m 90 493 q 69 285 69 368 q 129 68 69 144 q 328 -8 189 -8 q 604 122 511 -8 q 739 493 697 253 q 760 700 760 606 q 701 914 760 839 q 503 989 642 989 q 225 860 318 989 q 90 493 132 731 m 676 493 q 615 258 653 353 q 510 106 578 163 q 338 50 443 50 q 179 112 226 50 q 132 290 132 174 q 153 493 132 371 q 215 726 178 632 q 319 876 251 821 q 493 931 386 931 q 651 870 604 931 q 699 696 699 810 q 676 493 699 611 z "},"1":{"ha":344,"x_min":81,"x_max":318,"o":"m 96 921 l 106 979 l 318 979 l 146 0 l 81 0 l 243 921 l 96 921 z "},"2":{"ha":775,"x_min":-21,"x_max":740,"o":"m -12 44 q 460 378 278 213 q 668 688 643 543 q 675 756 675 726 q 626 887 675 838 q 472 936 578 936 q 276 863 353 936 q 178 663 200 790 l 115 663 q 244 906 146 822 q 483 990 343 990 q 669 933 597 990 q 740 761 740 876 q 733 689 740 733 q 609 455 714 575 q 364 232 504 335 q 85 54 224 129 l 646 54 l 638 1 l -21 1 l -12 44 z "},"3":{"ha":764,"x_min":31,"x_max":746,"o":"m 496 994 q 681 937 617 994 q 746 785 746 879 q 742 733 746 761 q 660 588 728 649 q 469 515 593 526 l 468 508 q 678 283 678 454 q 672 225 678 253 q 573 56 654 121 q 353 -10 492 -10 q 115 67 199 -10 q 33 283 31 143 l 96 283 q 159 110 94 175 q 358 46 224 46 q 531 98 465 46 q 611 231 597 150 q 615 279 615 256 q 538 431 615 378 q 319 483 460 483 l 292 483 l 301 538 l 329 538 q 679 731 644 538 q 683 775 683 754 q 632 896 683 851 q 486 940 581 940 q 299 884 383 940 q 189 714 214 828 l 126 714 q 253 919 153 843 q 496 994 353 994 z "},"4":{"ha":790,"x_min":-10,"x_max":763,"o":"m -10 250 l 0 301 l 654 981 l 719 981 l 601 306 l 763 306 l 751 250 l 590 250 l 547 0 l 483 0 l 528 250 l -10 250 m 644 897 l 71 306 l 542 306 l 644 897 z "},"5":{"ha":824,"x_min":53,"x_max":796,"o":"m 786 926 l 247 926 l 175 524 q 303 613 224 579 q 469 646 382 646 q 670 574 604 646 q 736 389 736 503 q 728 307 736 349 q 610 81 704 171 q 360 -8 515 -8 q 133 67 214 -8 q 58 274 53 143 l 119 274 q 188 107 121 165 q 367 49 254 49 q 569 119 493 49 q 665 307 646 190 q 672 379 672 349 q 615 537 672 481 q 450 593 558 593 q 290 555 369 593 q 163 454 210 517 l 103 454 l 197 982 l 796 982 l 786 926 z "},"6":{"ha":828,"x_min":74,"x_max":778,"o":"m 718 722 q 510 942 707 942 q 270 821 363 942 q 142 432 178 700 q 273 591 178 532 q 485 650 368 650 q 683 584 614 650 q 751 397 751 518 q 743 313 751 358 q 683 152 728 225 q 558 35 638 79 q 369 -10 479 -10 q 141 72 208 -10 q 74 296 74 153 q 92 478 74 376 q 236 863 135 731 q 519 994 338 994 q 715 920 654 994 q 778 722 775 846 l 718 722 m 135 340 q 129 278 129 313 q 189 111 129 176 q 375 46 249 46 q 577 117 493 46 q 683 313 661 188 q 690 388 690 357 q 631 544 690 490 q 465 599 572 599 q 324 570 394 599 q 202 483 254 542 q 135 340 150 425 z "},"7":{"ha":649,"x_min":68,"x_max":711,"o":"m 701 931 l 156 0 l 88 0 l 639 925 l 68 925 l 78 981 l 711 981 l 701 931 z "},"8":{"ha":847,"x_min":31,"x_max":800,"o":"m 147 757 q 208 881 160 826 q 336 965 257 935 q 517 996 415 996 q 726 936 653 996 q 800 778 800 876 q 796 729 800 754 q 722 591 782 649 q 554 510 661 533 q 694 434 644 490 q 744 293 744 378 q 739 238 744 276 q 609 40 717 111 q 335 -32 501 -32 q 111 31 192 -32 q 31 207 31 94 q 36 268 31 240 q 124 426 51 364 q 307 510 196 489 q 183 581 224 529 q 143 706 143 632 q 147 757 143 731 m 208 749 q 204 706 204 726 q 265 576 204 622 q 435 531 326 531 q 637 581 557 531 q 733 724 717 632 q 738 767 738 747 q 676 897 738 851 q 508 942 614 942 q 306 892 388 942 q 208 749 225 842 m 97 268 q 93 218 93 242 q 160 72 93 124 q 344 21 228 21 q 568 79 478 21 q 676 244 658 138 q 681 292 681 269 q 610 435 681 389 q 426 482 540 482 q 207 429 299 482 q 97 268 115 376 z "},"9":{"ha":844,"x_min":68,"x_max":782,"o":"m 136 261 q 180 99 131 157 q 332 42 229 42 q 579 163 483 42 q 711 551 675 283 q 580 392 675 451 q 369 333 485 333 q 171 399 240 333 q 101 586 101 465 q 110 672 101 626 q 228 901 133 808 q 485 993 324 993 q 714 913 646 993 q 782 689 782 832 q 763 506 782 618 q 616 122 719 256 q 325 -11 513 -11 q 131 63 193 -11 q 75 261 68 138 l 136 261 m 718 644 q 724 707 724 672 q 664 874 724 808 q 479 939 604 939 q 276 867 360 939 q 169 669 192 794 q 163 596 163 625 q 222 439 163 493 q 388 385 281 385 q 528 414 458 385 q 651 501 599 443 q 718 644 703 560 z "},"\u0000":{"ha":0,"x_min":0,"x_max":0,"o":""},"\r":{"ha":382,"x_min":0,"x_max":0,"o":""}," ":{"ha":382,"x_min":0,"x_max":0,"o":""},"अ":{"ha":1139,"x_min":78,"x_max":1274,"o":"m 1274 1028 l 1265 979 l 1056 979 l 882 0 l 826 0 l 915 507 l 621 508 q 660 382 660 457 q 656 335 660 360 q 546 142 635 215 q 331 69 457 69 q 147 131 217 69 q 78 293 78 192 q 82 344 78 318 l 136 344 q 132 301 132 322 q 188 169 132 219 q 336 119 244 119 q 513 180 440 119 q 604 338 586 240 q 607 378 607 351 q 559 503 607 453 q 408 553 511 553 l 358 553 l 367 601 l 417 601 q 541 628 488 601 q 626 699 594 656 q 665 789 657 742 q 669 829 669 810 q 618 949 669 906 q 486 992 567 992 q 316 938 390 992 q 228 794 242 885 l 174 794 q 284 974 194 907 q 496 1040 374 1040 q 661 987 599 1040 q 724 843 724 933 q 719 799 724 822 q 647 655 704 714 q 497 579 590 596 l 497 578 q 567 556 536 572 l 925 556 l 1008 1028 l 1274 1028 z "},"आ":{"ha":1526,"x_min":78,"x_max":1661,"o":"m 1274 1028 l 1265 979 l 1056 979 l 882 0 l 826 0 l 915 507 l 621 508 q 660 382 660 457 q 656 335 660 360 q 546 142 635 215 q 331 69 457 69 q 147 131 217 69 q 78 293 78 192 q 82 344 78 318 l 136 344 q 132 301 132 322 q 188 169 132 219 q 336 119 244 119 q 513 180 440 119 q 604 338 586 240 q 607 378 607 351 q 559 503 607 453 q 408 553 511 553 l 358 553 l 367 601 l 417 601 q 541 628 488 601 q 626 699 594 656 q 665 789 657 742 q 669 829 669 810 q 618 949 669 906 q 486 992 567 992 q 316 938 390 992 q 228 794 242 885 l 174 794 q 284 974 194 907 q 496 1040 374 1040 q 661 987 599 1040 q 724 843 724 933 q 719 799 724 822 q 647 655 704 714 q 497 579 590 596 l 497 578 q 567 556 536 572 l 925 556 l 1008 1028 l 1274 1028 m 1386 979 l 1176 979 l 1185 1028 l 1661 1028 l 1653 979 l 1442 979 l 1271 0 l 1214 0 l 1386 979 z "},"इ":{"ha":810,"x_min":29,"x_max":969,"o":"m 733 979 l 696 775 l 697 775 l 689 731 l 450 731 q 292 699 360 731 q 210 585 224 667 q 207 556 207 563 q 253 468 207 496 q 374 440 300 440 l 436 440 q 613 397 543 440 q 683 257 683 353 q 679 207 683 235 q 586 47 661 110 q 386 -15 511 -15 q 249 13 303 -15 q 170 78 196 42 q 140 147 144 115 l 97 -100 l 44 -100 l 106 253 l 156 253 q 208 92 150 154 q 383 31 267 31 q 517 62 461 31 q 601 143 572 93 q 629 250 629 193 q 569 363 629 329 q 419 396 510 396 q 353 397 372 396 q 207 435 264 397 q 150 549 150 474 q 154 586 150 568 q 252 731 171 688 q 440 775 333 775 l 642 775 l 679 979 l 29 979 l 36 1028 l 969 1028 l 961 979 l 733 979 z "},"ई":{"ha":807,"x_min":29,"x_max":1121,"o":"m 957 1388 q 1078 1345 1036 1388 q 1121 1231 1121 1303 q 1117 1182 1121 1207 l 1067 1182 q 1069 1218 1069 1194 q 1038 1306 1069 1272 q 949 1339 1006 1339 q 823 1288 871 1339 q 760 1138 775 1236 l 742 1028 l 969 1028 l 963 979 l 735 979 l 693 749 l 692 749 l 689 731 l 450 731 q 292 699 360 731 q 210 585 224 667 q 207 556 207 563 q 253 468 207 496 q 374 440 300 440 l 436 440 q 613 397 543 440 q 683 257 683 353 q 679 207 683 235 q 586 47 661 110 q 386 -15 511 -15 q 249 13 303 -15 q 170 78 196 42 q 140 147 144 115 l 97 -100 l 44 -100 l 106 253 l 156 253 q 208 92 150 154 q 383 31 267 31 q 517 62 461 31 q 601 143 572 93 q 629 250 629 193 q 569 363 629 329 q 419 396 510 396 q 353 397 372 396 q 208 436 264 397 q 151 550 151 475 q 154 586 151 574 q 252 731 171 688 q 440 775 333 775 l 642 775 l 679 979 l 29 979 l 36 1028 l 688 1028 l 707 1139 q 792 1323 728 1258 q 957 1388 856 1388 z "},"उ":{"ha":807,"x_min":38,"x_max":942,"o":"m 933 979 l 736 979 l 706 801 q 633 656 690 715 q 499 585 575 596 l 497 583 q 624 507 579 568 q 669 360 669 446 q 664 301 669 340 q 601 147 649 215 q 478 41 553 79 q 313 3 404 3 q 168 35 231 3 q 72 123 106 67 q 38 251 38 179 q 43 307 38 268 l 97 307 q 93 263 93 285 q 156 113 93 171 q 321 54 219 54 q 512 124 432 54 q 611 304 592 193 q 615 353 615 329 q 563 497 615 439 q 400 556 511 556 l 347 556 l 356 607 l 404 607 q 573 664 508 607 q 651 806 638 721 l 682 979 l 38 979 l 46 1028 l 942 1028 l 933 979 z "},"ऊ":{"ha":1211,"x_min":38,"x_max":1346,"o":"m 706 801 q 633 656 690 715 q 499 585 575 596 l 499 583 l 808 583 q 1009 531 932 583 q 1086 369 1086 479 q 1081 310 1086 338 q 968 109 1056 174 q 763 44 881 44 q 729 46 743 44 q 707 49 715 47 l 715 93 q 764 90 751 90 q 934 143 863 90 q 1026 311 1006 196 q 1032 363 1032 347 q 967 494 1032 453 q 801 536 903 536 l 594 536 q 668 354 668 471 q 664 299 668 328 q 601 147 649 214 q 478 41 553 79 q 313 3 404 3 q 168 35 231 3 q 72 123 106 67 q 38 251 38 179 q 43 307 38 268 l 97 307 q 93 263 93 285 q 156 113 93 171 q 321 54 219 54 q 512 124 432 54 q 611 304 592 193 q 615 353 615 329 q 563 497 615 439 q 400 556 511 556 l 347 556 l 356 607 l 404 607 q 573 664 508 607 q 651 806 638 721 l 682 979 l 38 979 l 46 1028 l 1346 1028 l 1338 979 l 736 979 l 706 801 z "},"ऋ":{"ha":1394,"x_min":38,"x_max":1529,"o":"m 844 979 l 778 597 l 1054 597 q 1206 701 1178 597 l 1217 764 l 1219 781 l 1226 818 l 1276 818 l 1189 324 l 1169 324 q 1052 294 1103 324 q 974 216 1001 265 q 947 110 947 167 q 991 10 947 43 q 1106 -22 1035 -22 q 1188 -10 1150 -22 l 1179 -57 q 1139 -66 1164 -62 q 1092 -69 1114 -69 q 948 -27 1004 -69 q 892 97 892 15 q 896 146 892 121 q 979 296 913 236 q 1146 363 1046 356 l 1188 597 q 1039 550 1132 550 l 769 550 l 672 0 l 619 0 l 703 474 l 171 0 l 103 0 l 104 7 l 713 536 q 660 700 719 636 q 493 764 600 764 q 339 728 410 764 q 219 624 268 692 q 156 467 171 557 l 99 467 q 174 649 118 571 q 313 770 231 728 q 489 813 394 813 q 649 768 588 813 q 733 647 711 724 l 792 979 l 38 979 l 46 1028 l 1529 1028 l 1519 979 l 844 979 z "},"ॠ":{"ha":1394,"x_min":38,"x_max":1529,"o":"m 844 979 l 778 597 l 1053 597 q 1208 719 1186 597 l 1218 781 l 1219 781 l 1226 818 l 1276 818 l 1189 322 l 1131 322 q 1019 293 1067 322 q 960 199 971 264 q 957 174 957 182 q 995 101 957 125 q 1096 78 1033 78 l 1151 78 l 1143 32 l 1081 32 q 968 3 1017 32 q 908 -92 919 -26 q 906 -117 906 -108 q 944 -190 906 -167 q 1046 -214 982 -214 q 1119 -207 1081 -214 q 1182 -192 1158 -200 l 1174 -236 q 1110 -253 1150 -246 q 1032 -260 1071 -260 q 901 -227 951 -260 q 850 -128 850 -194 q 894 -6 850 -54 q 997 53 938 42 l 999 57 q 928 97 953 68 q 903 171 903 125 q 906 201 903 179 q 983 322 921 283 q 1122 361 1044 361 l 1146 361 l 1188 599 q 1038 550 1131 550 l 769 550 l 672 0 l 618 0 l 703 474 l 169 0 l 101 0 l 103 7 l 713 536 q 659 700 718 636 q 493 764 600 764 q 338 728 410 764 q 218 624 267 692 q 154 467 169 557 l 99 467 q 173 649 117 571 q 311 770 229 728 q 488 813 393 813 q 649 768 586 813 q 733 647 711 724 l 792 979 l 38 979 l 46 1028 l 1529 1028 l 1521 979 l 844 979 z "},"ऌ":{"ha":1246,"x_min":36,"x_max":1379,"o":"m 983 979 l 946 769 q 1084 697 1036 760 q 1132 536 1132 635 q 1125 461 1132 506 q 1078 322 1113 382 l 1067 322 q 946 293 997 322 q 867 215 894 264 q 839 108 839 167 q 883 9 839 42 q 999 -24 928 -24 q 1081 -10 1039 -24 l 1072 -57 q 985 -71 1031 -71 q 840 -28 896 -71 q 785 97 785 14 q 789 146 785 121 q 873 294 806 233 q 1038 361 940 356 q 1068 461 1060 411 q 1075 532 1075 503 q 1032 669 1075 617 q 904 721 989 721 q 722 638 796 721 q 629 414 649 556 l 626 399 l 578 399 l 579 414 q 586 507 586 469 q 547 665 586 608 q 425 721 507 721 q 247 649 317 721 q 157 461 176 576 q 150 392 150 422 q 206 237 150 294 q 368 179 261 179 q 413 182 379 179 l 403 131 q 356 129 386 129 q 160 198 226 129 q 93 382 93 267 q 100 461 93 415 q 210 686 125 601 q 424 771 296 771 q 576 703 528 771 q 622 544 624 635 l 625 544 q 722 698 657 633 q 890 769 788 763 l 928 979 l 36 979 l 44 1028 l 1379 1028 l 1369 979 l 983 979 z "},"ॡ":{"ha":1257,"x_min":46,"x_max":1390,"o":"m 985 979 l 946 769 q 1084 697 1036 760 q 1132 536 1132 635 q 1125 461 1132 506 q 1079 322 1114 390 l 1021 322 q 909 293 957 322 q 850 199 861 264 q 847 175 847 182 q 885 101 847 125 q 986 78 924 78 l 1042 78 l 1033 32 l 971 32 q 858 3 907 32 q 799 -92 810 -26 q 796 -115 796 -108 q 835 -190 796 -165 q 936 -214 874 -214 q 1010 -207 971 -214 q 1072 -192 1049 -200 l 1065 -236 q 1001 -253 1040 -246 q 922 -260 961 -260 q 791 -227 842 -260 q 740 -128 740 -194 q 784 -7 740 -56 q 888 53 828 42 l 889 57 q 818 97 843 68 q 793 171 793 125 q 796 201 793 179 q 873 322 811 283 q 1014 361 935 361 l 1038 361 q 1068 461 1061 414 q 1075 532 1075 503 q 1032 669 1075 617 q 904 721 989 721 q 721 638 794 721 q 629 414 647 554 l 626 399 l 578 399 l 579 414 q 586 507 586 469 q 547 665 586 608 q 425 721 507 721 q 247 649 317 721 q 157 461 176 576 q 150 392 150 422 q 206 237 150 294 q 368 179 261 179 q 413 182 379 179 l 403 131 q 356 129 386 129 q 160 198 226 129 q 93 382 93 267 q 100 461 93 415 q 210 686 125 601 q 424 771 296 771 q 576 703 528 771 q 622 544 624 635 l 625 544 q 723 698 657 633 q 892 769 789 763 l 929 979 l 46 979 l 54 1028 l 1390 1028 l 1382 979 l 985 979 z "},"ए":{"ha":903,"x_min":36,"x_max":1038,"o":"m 1029 979 l 854 979 l 821 789 q 732 581 796 647 q 550 515 668 515 q 510 517 524 515 l 518 567 q 549 565 529 565 q 694 619 643 565 q 765 790 744 672 l 799 979 l 294 979 l 189 383 q 181 300 181 340 q 241 135 181 194 q 415 76 301 76 q 609 147 535 76 q 706 346 683 217 l 760 346 q 644 110 735 193 q 408 26 554 26 q 197 97 269 26 q 125 293 125 168 q 133 385 125 338 l 238 979 l 36 979 l 44 1028 l 1038 1028 l 1029 979 z "},"ऐ":{"ha":903,"x_min":36,"x_max":1038,"o":"m 1029 979 l 854 979 l 821 789 q 732 581 796 647 q 550 515 668 515 q 510 517 524 515 l 518 567 q 549 565 529 565 q 694 619 643 565 q 765 790 744 672 l 799 979 l 294 979 l 189 383 q 181 300 181 340 q 241 135 181 194 q 415 76 301 76 q 609 147 535 76 q 706 346 683 217 l 760 346 q 644 110 735 193 q 408 26 554 26 q 197 97 269 26 q 125 293 125 168 q 133 385 125 338 l 238 979 l 36 979 l 44 1028 l 806 1028 q 703 1212 747 1156 q 616 1284 660 1268 q 492 1300 572 1300 l 443 1300 l 451 1347 l 500 1347 q 644 1329 593 1347 q 746 1244 696 1311 q 860 1028 796 1176 l 1038 1028 l 1029 979 z "},"ओ":{"ha":1526,"x_min":78,"x_max":1661,"o":"m 1274 1028 l 1265 979 l 1056 979 l 882 0 l 826 0 l 915 507 l 621 508 q 660 382 660 457 q 656 335 660 360 q 546 142 635 215 q 331 69 457 69 q 147 131 217 69 q 78 293 78 192 q 82 344 78 318 l 136 344 q 132 301 132 322 q 188 169 132 219 q 336 119 244 119 q 513 180 440 119 q 604 338 586 240 q 607 378 607 351 q 559 503 607 453 q 408 553 511 553 l 358 553 l 367 601 l 417 601 q 541 628 488 601 q 626 699 594 656 q 665 789 657 742 q 669 829 669 810 q 618 949 669 906 q 486 992 567 992 q 316 938 390 992 q 228 794 242 885 l 174 794 q 284 974 194 907 q 496 1040 374 1040 q 661 987 599 1040 q 724 843 724 933 q 719 799 724 822 q 647 655 704 714 q 497 579 590 596 l 497 578 q 567 556 536 572 l 925 556 l 1008 1028 l 1274 1028 m 1386 979 l 1176 979 l 1185 1028 l 1661 1028 l 1653 979 l 1442 979 l 1271 0 l 1214 0 l 1386 979 m 1497 1024 q 1394 1211 1438 1154 q 1307 1284 1351 1268 q 1182 1300 1263 1300 l 1133 1300 l 1142 1347 l 1190 1347 q 1335 1329 1283 1347 q 1436 1243 1386 1311 q 1551 1024 1486 1175 l 1497 1024 z "},"औ":{"ha":1526,"x_min":78,"x_max":1661,"o":"m 1274 1028 l 1265 979 l 1056 979 l 882 0 l 826 0 l 915 507 l 621 508 q 660 382 660 457 q 656 335 660 360 q 546 142 635 215 q 331 69 457 69 q 147 131 217 69 q 78 293 78 192 q 82 344 78 318 l 136 344 q 132 301 132 322 q 188 169 132 219 q 336 119 244 119 q 513 180 440 119 q 604 338 586 240 q 607 378 607 351 q 559 503 607 453 q 408 553 511 553 l 358 553 l 367 601 l 417 601 q 541 628 488 601 q 626 699 594 656 q 665 789 657 742 q 669 829 669 810 q 618 949 669 906 q 486 992 567 992 q 316 938 390 992 q 228 794 242 885 l 174 794 q 284 974 194 907 q 496 1040 374 1040 q 661 987 599 1040 q 724 843 724 933 q 719 799 724 822 q 647 655 704 714 q 497 579 590 596 l 497 578 q 567 556 536 572 l 925 556 l 1008 1028 l 1274 1028 m 1386 979 l 1176 979 l 1185 1028 l 1661 1028 l 1653 979 l 1442 979 l 1271 0 l 1214 0 l 1386 979 m 1203 1422 q 1345 1401 1296 1422 q 1442 1296 1394 1379 q 1553 1024 1489 1213 l 1504 1024 q 1384 1130 1432 1097 q 1290 1172 1336 1163 q 1161 1181 1244 1181 l 1111 1181 l 1118 1221 l 1167 1221 q 1294 1214 1249 1221 q 1385 1178 1339 1207 q 1493 1083 1431 1149 q 1402 1285 1443 1222 q 1318 1364 1361 1347 q 1197 1381 1275 1381 l 1147 1381 l 1153 1422 l 1203 1422 z "},"ऍ":{"ha":904,"x_min":3,"x_max":1004,"o":"m 540 1178 q 376 1231 431 1178 q 322 1358 322 1283 q 325 1394 322 1382 l 375 1394 q 372 1367 372 1375 q 416 1265 372 1307 q 549 1224 460 1224 q 666 1249 615 1224 q 746 1313 717 1274 q 782 1394 775 1353 l 832 1394 q 785 1291 822 1340 q 686 1210 749 1242 q 540 1178 624 1178 m 996 979 l 821 979 l 788 789 q 699 581 763 647 q 517 515 635 515 q 476 517 490 515 l 485 567 q 515 565 496 565 q 660 619 610 565 q 732 790 711 672 l 765 979 l 261 979 l 156 383 q 147 300 147 340 q 208 135 147 194 q 382 76 268 76 q 576 147 501 76 q 672 346 650 217 l 726 346 q 611 110 701 193 q 375 26 521 26 q 164 97 236 26 q 92 293 92 168 q 100 385 92 338 l 204 979 l 3 979 l 11 1028 l 1004 1028 l 996 979 z "},"ॲ":{"ha":1139,"x_min":78,"x_max":1478,"o":"m 1274 1028 l 1265 979 l 1056 979 l 882 0 l 826 0 l 915 507 l 621 508 q 660 382 660 457 q 656 335 660 360 q 546 142 635 215 q 331 69 457 69 q 147 131 217 69 q 78 293 78 192 q 82 344 78 318 l 136 344 q 132 301 132 322 q 188 169 132 219 q 336 119 244 119 q 513 180 440 119 q 604 338 586 240 q 607 378 607 351 q 559 503 607 453 q 408 553 511 553 l 358 553 l 367 601 l 417 601 q 541 628 488 601 q 626 699 594 656 q 665 789 657 742 q 669 829 669 810 q 618 949 669 906 q 486 992 567 992 q 316 938 390 992 q 228 794 242 885 l 174 794 q 284 974 194 907 q 496 1040 374 1040 q 661 987 599 1040 q 724 843 724 933 q 719 799 724 822 q 647 655 704 714 q 497 579 590 596 l 497 578 q 567 556 536 572 l 925 556 l 1008 1028 l 1274 1028 m 1193 1179 q 1025 1232 1082 1179 q 968 1360 968 1285 q 971 1396 968 1385 l 1021 1396 q 1018 1368 1018 1376 q 1062 1267 1018 1308 q 1194 1225 1106 1225 q 1312 1250 1261 1225 q 1392 1315 1363 1275 q 1428 1396 1421 1354 l 1478 1396 q 1433 1291 1468 1340 q 1338 1210 1399 1242 q 1193 1179 1276 1179 z "},"ऑ":{"ha":1526,"x_min":78,"x_max":1661,"o":"m 1274 1028 l 1265 979 l 1056 979 l 882 0 l 826 0 l 915 507 l 621 508 q 660 382 660 457 q 656 335 660 360 q 546 142 635 215 q 331 69 457 69 q 147 131 217 69 q 78 293 78 192 q 82 344 78 318 l 136 344 q 132 301 132 322 q 188 169 132 219 q 336 119 244 119 q 513 180 440 119 q 604 338 586 240 q 607 378 607 351 q 559 503 607 453 q 408 553 511 553 l 358 553 l 367 601 l 417 601 q 541 628 488 601 q 626 699 594 656 q 665 789 657 742 q 669 829 669 810 q 618 949 669 906 q 486 992 567 992 q 316 938 390 992 q 228 794 242 885 l 174 794 q 284 974 194 907 q 496 1040 374 1040 q 661 987 599 1040 q 724 843 724 933 q 719 799 724 822 q 647 655 704 714 q 497 579 590 596 l 497 578 q 567 556 536 572 l 925 556 l 1008 1028 l 1274 1028 m 1386 979 l 1176 979 l 1185 1028 l 1661 1028 l 1653 979 l 1442 979 l 1271 0 l 1214 0 l 1386 979 m 1375 1178 q 1207 1231 1264 1178 q 1150 1358 1150 1283 q 1153 1394 1150 1383 l 1203 1394 q 1200 1367 1200 1375 q 1244 1265 1200 1307 q 1376 1224 1288 1224 q 1494 1249 1443 1224 q 1574 1313 1544 1274 q 1610 1394 1603 1353 l 1660 1394 q 1615 1290 1650 1339 q 1519 1209 1581 1240 q 1375 1178 1458 1178 z "},"ा":{"ha":388,"x_min":38,"x_max":522,"o":"m 247 979 l 38 979 l 46 1028 l 522 1028 l 514 979 l 303 979 l 132 0 l 75 0 l 247 979 z "},"ि":{"ha":388,"x_min":38,"x_max":1275,"o":"m 821 1356 q 1142 1291 1008 1356 q 1275 1088 1275 1226 q 1271 1036 1275 1064 l 1267 1011 l 1210 1011 l 1214 1035 q 1218 1078 1218 1058 q 1096 1254 1218 1201 q 813 1307 974 1307 q 480 1249 624 1307 q 311 1031 336 1192 l 311 1028 l 522 1028 l 514 979 l 303 979 l 131 0 l 74 0 l 247 979 l 38 979 l 46 1028 l 256 1028 l 256 1031 q 445 1283 285 1211 q 821 1356 606 1356 z "},"ी":{"ha":386,"x_min":-135,"x_max":521,"o":"m 521 1028 l 514 979 l 304 979 l 131 0 l 75 0 l 247 979 l 38 979 l 44 1028 l 257 1028 l 268 1090 q 275 1160 275 1129 q 243 1267 275 1226 q 140 1307 211 1307 q 2 1247 51 1307 q -65 1090 -47 1186 l -81 1013 l -135 1013 l -121 1088 q -33 1282 -99 1208 q 149 1356 33 1356 q 331 1171 331 1356 q 322 1088 331 1132 l 311 1028 l 521 1028 z "},"ु":{"ha":0,"x_min":-675,"x_max":-121,"o":"m -419 -385 q -603 -333 -532 -385 q -675 -178 -675 -281 q -668 -111 -675 -140 l -617 -111 q -624 -172 -624 -139 q -566 -297 -624 -256 q -414 -337 -508 -337 q -254 -292 -319 -337 q -175 -165 -189 -247 q -172 -136 -172 -146 q -203 -52 -172 -86 q -290 -18 -235 -18 l -315 -18 l -307 29 l -282 29 q -164 -17 -207 29 q -121 -133 -121 -64 q -124 -168 -121 -146 q -220 -328 -142 -271 q -419 -385 -299 -385 z "},"ू":{"ha":0,"x_min":-558,"x_max":-10,"o":"m -372 -379 q -505 -335 -451 -379 q -558 -217 -558 -290 q -556 -181 -558 -193 q -467 -28 -540 -85 q -283 28 -393 28 q -85 -45 -160 28 q -10 -246 -10 -118 q -19 -340 -10 -293 l -25 -368 l -74 -368 l -67 -329 q -58 -250 -58 -287 q -121 -80 -58 -142 q -285 -18 -183 -18 q -447 -72 -383 -18 q -510 -211 -510 -126 q -470 -300 -510 -267 q -367 -333 -431 -333 q -321 -329 -344 -333 l -328 -375 q -372 -379 -349 -379 z "},"ृ":{"ha":0,"x_min":-560,"x_max":-243,"o":"m -354 -410 q -456 -387 -408 -410 q -531 -323 -503 -365 q -560 -224 -560 -281 q -556 -181 -560 -204 q -466 -30 -540 -87 q -278 28 -392 28 l -253 28 l -258 -15 l -283 -15 q -443 -71 -382 -15 q -504 -214 -504 -126 q -456 -323 -504 -283 q -340 -362 -408 -362 q -243 -349 -287 -362 l -251 -394 q -299 -406 -269 -401 q -354 -410 -328 -410 z "},"ॄ":{"ha":0,"x_min":-593,"x_max":-253,"o":"m -411 -593 q -542 -558 -490 -593 q -593 -456 -593 -522 q -549 -338 -593 -385 q -446 -281 -506 -292 l -446 -276 q -515 -237 -490 -265 q -540 -165 -540 -210 q -537 -132 -540 -143 q -462 -12 -524 -51 q -321 28 -400 28 l -253 28 l -258 -11 l -314 -11 q -425 -40 -378 -11 q -483 -135 -472 -69 q -486 -160 -486 -151 q -449 -232 -486 -208 q -349 -256 -411 -256 l -292 -256 l -299 -300 l -361 -300 q -476 -328 -426 -300 q -536 -419 -525 -357 q -539 -443 -539 -436 q -499 -519 -539 -493 q -397 -546 -458 -546 q -323 -540 -361 -546 q -260 -525 -285 -533 l -268 -569 q -333 -586 -293 -579 q -411 -593 -372 -593 z "},"ॢ":{"ha":0,"x_min":-700,"x_max":47,"o":"m 1 -350 q -117 -394 -72 -350 q -162 -499 -162 -437 q -130 -569 -162 -546 q -47 -593 -97 -593 q 13 -583 -14 -593 l 4 -625 q -58 -632 -21 -632 q -167 -601 -125 -632 q -208 -508 -208 -569 q -158 -378 -208 -432 q -25 -318 -107 -325 q -6 -253 -12 -292 q -1 -201 -1 -226 q -31 -106 -1 -142 q -119 -71 -60 -71 q -242 -128 -194 -71 q -310 -285 -290 -185 l -312 -296 l -354 -296 l -351 -285 q -344 -212 -344 -251 q -374 -108 -344 -146 q -461 -71 -404 -71 q -585 -122 -536 -71 q -649 -253 -635 -172 q -653 -299 -653 -276 q -614 -407 -653 -367 q -499 -447 -575 -447 q -469 -444 -476 -447 l -476 -487 q -511 -489 -485 -489 q -652 -440 -604 -489 q -700 -308 -700 -390 q -694 -253 -700 -292 q -614 -90 -678 -151 q -458 -28 -550 -28 q -349 -76 -382 -28 q -317 -190 -315 -125 l -314 -190 q -237 -76 -289 -124 q -106 -28 -186 -28 q 8 -73 -32 -28 q 47 -194 47 -118 q 42 -253 47 -211 q 10 -350 32 -308 l 1 -350 z "},"ॣ":{"ha":0,"x_min":-700,"x_max":47,"o":"m -106 -28 q 8 -73 -32 -28 q 47 -194 47 -118 q 42 -253 47 -211 q 10 -350 32 -308 l -33 -350 q -117 -375 -82 -350 q -151 -454 -151 -400 q -126 -507 -151 -490 q -57 -524 -100 -524 l -18 -524 l -25 -561 l -64 -561 q -146 -581 -111 -561 q -189 -647 -181 -600 q -190 -662 -190 -653 q -163 -714 -190 -697 q -92 -731 -136 -731 q -39 -726 -65 -731 q 4 -715 -12 -721 l -1 -753 q -47 -765 -19 -760 q -103 -769 -75 -769 q -198 -745 -161 -769 q -235 -674 -235 -721 q -203 -587 -235 -621 q -129 -543 -172 -553 l -129 -542 q -178 -512 -161 -533 q -196 -457 -196 -490 q -194 -435 -196 -443 q -140 -347 -185 -376 q -39 -318 -96 -318 l -24 -318 q -6 -253 -12 -290 q -1 -201 -1 -226 q -31 -106 -1 -142 q -119 -71 -60 -71 q -242 -128 -194 -71 q -310 -285 -290 -185 l -311 -296 l -354 -296 l -351 -285 q -344 -212 -344 -251 q -374 -108 -344 -146 q -461 -71 -404 -71 q -585 -122 -536 -71 q -649 -253 -635 -172 q -653 -299 -653 -276 q -614 -407 -653 -367 q -499 -447 -575 -447 q -469 -444 -476 -447 l -476 -487 q -510 -489 -485 -489 q -651 -440 -603 -489 q -700 -308 -700 -390 q -694 -253 -700 -292 q -612 -90 -676 -151 q -458 -28 -549 -28 q -349 -76 -382 -28 q -317 -190 -315 -125 l -314 -190 q -237 -76 -289 -124 q -106 -28 -186 -28 z "},"े":{"ha":0,"x_min":-493,"x_max":-75,"o":"m -129 1024 q -232 1211 -189 1154 q -319 1284 -275 1268 q -444 1300 -364 1300 l -493 1300 l -485 1347 l -436 1347 q -292 1329 -343 1347 q -190 1243 -240 1311 q -75 1024 -140 1175 l -129 1024 z "},"ै":{"ha":0,"x_min":-519,"x_max":-78,"o":"m -428 1422 q -285 1401 -335 1422 q -189 1296 -236 1379 q -78 1024 -142 1213 l -126 1024 q -247 1130 -199 1097 q -340 1172 -294 1163 q -469 1181 -386 1181 l -519 1181 l -512 1221 l -464 1221 q -337 1214 -382 1221 q -246 1178 -292 1207 q -137 1083 -200 1149 q -228 1285 -187 1222 q -312 1364 -269 1347 q -433 1381 -356 1381 l -483 1381 l -478 1422 l -428 1422 z "},"ो":{"ha":388,"x_min":-107,"x_max":522,"o":"m 522 1028 l 514 979 l 304 979 l 131 0 l 75 0 l 247 979 l 38 979 l 46 1028 l 256 1028 q 154 1212 197 1156 q 67 1284 111 1268 q -57 1300 22 1300 l -107 1300 l -97 1347 l -49 1347 q 94 1329 43 1347 q 196 1244 146 1311 q 311 1028 246 1176 l 522 1028 z "},"ौ":{"ha":388,"x_min":-165,"x_max":488,"o":"m 488 1028 l 479 979 l 269 979 l 97 0 l 42 0 l 213 979 l 3 979 l 11 1028 l 224 1028 q 106 1131 153 1100 q 13 1172 58 1163 q -115 1181 -33 1181 l -165 1181 l -158 1221 l -110 1221 q 17 1214 -28 1221 q 108 1178 63 1207 q 217 1083 154 1149 q 126 1285 167 1222 q 42 1364 85 1347 q -79 1381 -1 1381 l -129 1381 l -124 1422 l -74 1422 q 69 1401 19 1422 q 165 1297 118 1379 q 276 1028 213 1215 l 488 1028 z "},"ॅ":{"ha":0,"x_min":-303,"x_max":207,"o":"m -78 1142 q -246 1194 -189 1142 q -303 1322 -303 1247 q -300 1358 -303 1347 l -250 1358 q -253 1331 -253 1339 q -209 1229 -253 1271 q -76 1188 -165 1188 q 41 1213 -10 1188 q 121 1277 92 1238 q 157 1358 150 1317 l 207 1358 q 163 1253 197 1303 q 67 1173 128 1204 q -78 1142 6 1142 z "},"ॉ":{"ha":388,"x_min":38,"x_max":596,"o":"m 311 1142 q 143 1194 200 1142 q 86 1322 86 1247 q 89 1358 86 1347 l 139 1358 q 136 1331 136 1339 q 180 1229 136 1271 q 313 1188 224 1188 q 430 1213 379 1188 q 510 1277 481 1238 q 546 1358 539 1317 l 596 1358 q 551 1253 586 1303 q 456 1173 517 1204 q 311 1142 394 1142 m 247 979 l 38 979 l 46 1028 l 522 1028 l 514 979 l 303 979 l 132 0 l 75 0 l 247 979 z "},"क":{"ha":1406,"x_min":38,"x_max":1540,"o":"m 818 979 l 756 624 q 872 750 799 701 q 1047 799 946 799 q 1226 731 1157 799 q 1296 550 1296 664 q 1289 483 1296 522 q 1221 313 1271 385 q 1098 202 1171 240 q 940 164 1025 164 q 861 174 894 164 l 869 219 q 940 213 901 213 q 1070 245 1008 213 q 1175 339 1132 278 q 1233 485 1218 400 q 1238 540 1238 514 q 1180 693 1238 636 q 1031 750 1122 750 q 833 674 910 750 q 733 494 757 599 l 646 0 l 593 0 l 651 336 q 532 211 608 260 q 354 163 456 163 q 169 230 240 163 q 99 414 99 297 q 106 486 99 444 q 174 651 122 581 q 301 760 226 722 q 461 799 376 799 q 626 750 565 799 q 701 624 686 701 l 764 979 l 38 979 l 46 1028 l 1540 1028 l 1531 979 l 818 979 m 371 211 q 522 250 457 211 q 624 348 586 289 q 675 468 663 407 l 679 496 q 682 536 682 524 q 629 688 682 626 q 467 750 576 750 q 333 717 397 750 q 222 625 268 685 q 163 485 176 565 q 157 422 157 456 q 216 267 157 324 q 371 211 275 211 z "},"ख":{"ha":1275,"x_min":38,"x_max":1410,"o":"m 1410 1028 l 1400 979 l 1190 979 l 1018 0 l 963 0 l 1026 360 q 920 251 988 293 q 764 210 853 210 q 706 215 742 210 q 562 60 651 121 q 360 -1 472 -1 q 161 64 233 -1 q 89 243 89 129 q 94 311 89 279 l 138 550 l 194 550 q 349 599 282 550 q 438 775 415 649 l 474 979 l 38 979 l 46 1028 l 1410 1028 m 1135 979 l 529 979 l 493 769 q 201 506 446 506 l 185 506 l 150 307 q 144 251 144 281 q 204 103 144 158 q 371 49 264 49 q 540 101 463 49 q 660 231 617 153 q 566 312 600 257 q 532 443 532 367 q 538 501 532 460 q 597 647 551 585 q 710 742 643 708 q 853 775 776 775 q 1001 733 946 775 q 1072 625 1057 692 l 1135 979 m 781 256 q 914 291 857 256 q 1005 381 971 326 q 1049 492 1039 436 q 1053 540 1053 515 q 1004 674 1053 619 q 857 729 956 729 q 683 667 760 729 q 588 497 607 604 q 583 446 583 471 q 638 306 583 357 q 781 256 693 256 z "},"ग":{"ha":979,"x_min":38,"x_max":1114,"o":"m 1114 1028 l 1106 979 l 894 979 l 724 0 l 667 0 l 839 979 l 550 979 l 478 568 q 405 415 463 475 q 249 356 347 356 q 123 401 165 356 q 81 519 81 447 q 85 564 81 542 l 93 606 l 149 606 l 140 563 q 136 522 136 542 q 164 438 136 471 q 253 404 192 404 q 368 451 328 404 q 421 567 408 497 l 493 979 l 38 979 l 46 1028 l 1114 1028 z "},"घ":{"ha":996,"x_min":38,"x_max":1131,"o":"m 1122 979 l 913 979 l 740 0 l 685 0 l 747 356 q 594 210 692 264 q 383 156 497 156 q 182 209 258 156 q 106 363 106 263 q 110 410 106 385 q 196 560 126 503 q 354 628 265 618 l 354 631 q 248 679 288 639 q 208 794 208 719 q 214 850 208 811 l 238 979 l 38 979 l 46 1028 l 1131 1028 l 1122 979 m 857 979 l 294 979 l 271 851 q 267 800 267 825 q 314 690 267 726 q 463 653 361 653 l 535 653 l 526 606 l 451 606 q 253 552 325 606 q 167 414 182 499 q 163 374 163 393 q 227 247 163 290 q 400 204 292 204 q 567 242 488 204 q 702 349 647 281 q 772 503 757 417 l 774 501 l 857 979 z "},"ङ":{"ha":883,"x_min":39,"x_max":1018,"o":"m 1018 1028 l 1010 979 l 728 979 l 686 750 l 683 731 l 444 731 q 289 699 356 731 q 207 585 222 667 q 204 554 204 563 q 250 467 204 494 q 368 440 296 440 l 431 440 q 606 395 535 440 q 678 256 678 350 q 674 210 678 235 q 573 47 656 110 q 354 -15 490 -15 q 141 47 217 -15 q 65 207 65 108 q 69 253 65 231 l 125 253 q 121 213 121 232 q 181 81 121 131 q 360 31 242 31 q 501 60 440 31 q 592 140 561 90 q 624 250 624 190 q 564 363 624 329 q 414 396 504 396 l 354 396 q 207 435 267 396 q 147 551 147 474 q 150 586 147 574 q 248 731 168 688 q 432 775 328 775 l 635 775 l 672 979 l 39 979 l 47 1028 l 1018 1028 m 818 613 q 849 599 839 613 q 857 565 860 586 q 837 533 853 546 q 801 519 821 519 q 769 533 781 519 q 763 565 758 546 q 781 599 765 586 q 818 613 797 613 z "},"च":{"ha":1006,"x_min":38,"x_max":1140,"o":"m 1132 979 l 922 979 l 750 0 l 693 0 l 750 326 q 617 201 701 249 q 439 153 533 153 q 256 214 328 153 q 183 382 183 275 q 189 438 183 411 q 260 596 204 528 q 403 697 317 664 l 100 697 l 108 744 l 608 744 l 599 697 l 556 697 q 349 626 433 697 q 243 444 264 554 q 239 396 239 419 q 300 253 239 304 q 457 201 361 201 q 601 238 533 201 q 714 333 668 274 q 775 463 760 393 l 865 979 l 38 979 l 46 1028 l 1140 1028 l 1132 979 z "},"छ":{"ha":1125,"x_min":35,"x_max":1260,"o":"m 924 979 l 888 772 q 1013 710 965 764 q 1061 560 1061 657 q 1054 488 1061 532 q 946 251 1029 351 q 737 97 863 150 q 463 43 611 43 q 262 73 350 43 q 124 160 174 103 q 75 299 75 218 q 79 349 75 322 q 169 512 97 451 q 336 583 240 572 l 336 588 q 231 635 271 596 q 192 750 192 675 q 197 807 192 779 l 229 979 l 35 979 l 42 1028 l 1260 1028 l 1253 979 l 924 979 m 871 979 l 285 979 l 254 808 q 249 756 249 769 q 296 646 249 682 q 443 610 343 610 l 475 610 l 468 563 l 436 563 q 228 503 306 563 q 135 350 151 443 q 131 310 131 329 q 225 149 131 206 q 471 93 319 93 q 715 141 601 93 q 905 278 829 189 q 1001 488 981 368 q 1008 553 1008 526 q 963 684 1008 639 q 853 729 918 729 q 719 683 782 729 q 639 539 656 638 q 633 478 633 513 q 640 397 633 443 l 590 397 q 585 472 585 432 q 590 543 585 514 q 678 709 610 653 q 835 772 747 765 l 871 979 z "},"ज":{"ha":1151,"x_min":38,"x_max":1286,"o":"m 1278 979 l 1068 979 l 896 0 l 840 0 l 956 653 l 632 653 l 599 468 q 501 279 578 351 q 310 207 424 207 q 163 264 217 207 q 110 413 110 321 q 115 469 110 431 l 157 703 l 214 703 l 172 468 q 167 415 167 432 q 206 300 167 343 q 317 257 246 257 q 465 315 403 257 q 543 468 526 374 l 585 703 l 964 703 l 1013 979 l 38 979 l 46 1028 l 1286 1028 l 1278 979 z "},"झ":{"ha":1174,"x_min":47,"x_max":1308,"o":"m 1299 979 l 1089 979 l 915 0 l 860 0 l 931 396 l 593 397 q 658 339 635 376 q 682 250 682 301 q 678 206 682 229 q 589 56 661 115 q 396 -4 517 -4 q 263 22 317 -4 q 184 83 210 49 q 151 143 158 117 l 107 -101 l 54 -101 l 115 239 l 165 239 q 220 99 163 156 q 393 42 278 42 q 524 71 471 42 q 603 147 578 100 q 629 247 629 194 q 576 357 629 318 q 421 396 522 396 q 354 397 374 396 q 207 435 264 397 q 150 549 150 474 q 154 586 150 565 q 252 731 171 688 q 440 775 333 775 l 642 775 l 679 979 l 47 979 l 56 1028 l 1308 1028 l 1299 979 m 1033 979 l 733 979 l 696 775 l 697 775 l 689 731 l 450 731 q 293 699 363 731 q 210 585 224 667 q 207 556 207 563 q 253 468 207 496 q 374 440 300 440 l 436 440 l 938 440 l 1033 979 z "},"ञ":{"ha":1104,"x_min":38,"x_max":1239,"o":"m 1231 979 l 1019 979 l 849 0 l 792 0 l 872 456 l 704 456 q 638 303 686 372 q 515 194 590 235 q 346 153 440 153 q 154 219 218 153 q 86 378 90 286 l 140 378 q 199 254 147 306 q 351 203 250 203 q 556 282 475 203 q 656 478 636 361 q 661 538 661 506 q 608 690 661 631 q 449 749 554 749 q 274 696 344 749 q 175 574 204 643 l 121 574 q 241 733 154 667 q 457 799 328 799 q 650 728 585 799 q 715 547 715 657 q 713 506 715 533 l 881 506 l 964 979 l 38 979 l 46 1028 l 1239 1028 l 1231 979 z "},"ट":{"ha":900,"x_min":31,"x_max":1035,"o":"m 546 738 q 282 658 393 738 q 144 425 171 578 q 139 368 139 399 q 213 194 139 261 q 404 128 286 128 q 568 167 493 128 q 692 276 643 206 q 756 436 740 346 l 810 436 q 735 249 792 331 q 592 123 679 168 q 396 78 504 78 q 233 113 304 78 q 122 213 161 149 q 82 363 82 278 q 88 428 82 399 q 246 696 119 606 q 553 786 372 786 l 610 786 l 644 979 l 31 979 l 40 1028 l 1035 1028 l 1026 979 l 700 979 l 656 738 l 546 738 z "},"ठ":{"ha":936,"x_min":31,"x_max":1071,"o":"m 574 979 l 536 771 q 681 728 617 765 q 780 628 744 692 q 815 486 815 565 q 808 419 815 458 q 730 242 790 319 q 581 123 669 165 q 389 81 492 81 q 231 117 300 81 q 122 217 161 153 q 83 367 83 282 q 89 432 83 403 q 163 603 107 529 q 302 722 219 678 q 481 771 385 765 l 518 979 l 31 979 l 40 1028 l 1071 1028 l 1063 979 l 574 979 m 753 421 q 758 479 758 449 q 688 656 758 588 q 501 724 618 724 q 341 687 417 724 q 213 583 265 650 q 146 431 161 517 q 140 372 140 403 q 172 246 140 301 q 263 160 204 190 q 396 129 321 129 q 557 167 481 129 q 685 270 633 204 q 753 421 738 336 z "},"ड":{"ha":806,"x_min":39,"x_max":940,"o":"m 444 731 q 289 699 356 731 q 207 585 222 667 q 204 554 204 563 q 250 467 204 494 q 368 440 296 440 l 431 440 q 606 395 535 440 q 678 256 678 350 q 674 210 678 235 q 573 47 656 110 q 354 -15 490 -15 q 141 47 217 -15 q 65 207 65 108 q 69 253 65 231 l 125 253 q 121 213 121 232 q 181 81 121 131 q 360 31 242 31 q 501 60 440 31 q 592 140 561 90 q 624 250 624 190 q 564 363 624 329 q 414 396 504 396 l 354 396 q 207 435 267 396 q 147 551 147 474 q 150 586 147 574 q 248 731 168 688 q 432 775 328 775 l 625 775 l 663 979 l 39 979 l 47 1028 l 940 1028 l 932 979 l 718 979 l 674 731 l 444 731 z "},"ढ":{"ha":876,"x_min":35,"x_max":1011,"o":"m 574 744 q 378 706 469 744 q 226 591 288 668 q 144 403 164 514 q 139 338 139 374 q 219 143 139 217 q 432 69 299 69 q 573 98 508 69 q 681 176 638 126 q 735 289 724 225 q 738 325 738 301 q 697 429 738 389 q 590 469 657 469 q 469 428 522 469 q 406 317 415 386 q 403 286 403 297 l 358 286 q 361 322 358 300 q 442 462 376 410 q 600 514 508 514 q 737 463 685 514 q 789 331 789 413 q 785 289 789 310 q 722 151 771 211 q 595 58 672 92 q 425 25 518 25 q 247 63 325 25 q 126 172 169 101 q 83 333 83 242 q 90 406 83 364 q 182 618 113 532 q 352 747 251 704 q 569 789 453 789 l 642 789 l 675 979 l 35 979 l 44 1028 l 1011 1028 l 1003 979 l 729 979 l 688 744 l 574 744 z "},"ण":{"ha":1157,"x_min":38,"x_max":1292,"o":"m 1282 979 l 1072 979 l 900 0 l 844 0 l 1017 979 l 696 979 l 619 546 q 526 358 599 429 q 342 286 453 286 q 190 340 246 286 q 135 486 135 394 q 140 546 135 518 l 217 979 l 38 979 l 46 1028 l 1292 1028 l 1282 979 m 640 979 l 272 979 l 194 542 q 190 493 190 517 q 231 378 190 421 q 343 335 271 335 q 489 392 429 335 q 564 542 549 449 l 640 979 z "},"त":{"ha":953,"x_min":38,"x_max":1088,"o":"m 1078 979 l 868 979 l 696 0 l 640 0 l 754 646 l 533 646 q 268 572 372 646 q 138 349 164 497 q 131 276 131 307 q 199 109 131 168 q 396 50 267 50 l 428 50 l 419 3 l 385 3 q 158 74 242 3 q 75 274 75 144 q 82 350 75 306 q 233 610 113 525 q 539 696 354 696 l 763 696 l 813 979 l 38 979 l 46 1028 l 1088 1028 l 1078 979 z "},"थ":{"ha":1040,"x_min":121,"x_max":1175,"o":"m 1175 1028 l 1168 979 l 957 979 l 785 0 l 728 0 l 790 350 q 717 256 767 301 q 597 181 668 211 q 443 151 526 151 q 207 230 293 151 q 121 442 121 308 q 128 521 121 486 q 142 578 138 564 l 286 578 q 511 626 415 578 q 629 800 607 675 q 633 840 633 821 q 592 949 633 907 q 475 990 551 990 q 303 917 367 990 q 242 726 240 843 l 189 726 q 226 888 190 817 q 328 999 261 958 q 482 1040 394 1040 q 633 987 578 1040 q 688 847 688 933 q 683 799 688 824 q 552 596 658 658 q 294 533 446 533 l 186 533 q 176 447 176 490 q 251 266 176 332 q 457 200 325 200 q 617 238 540 200 q 746 342 693 275 q 814 494 799 410 l 908 1028 l 1175 1028 z "},"द":{"ha":844,"x_min":38,"x_max":979,"o":"m 526 754 q 288 684 390 754 q 163 482 186 614 q 157 425 157 443 q 217 269 157 328 q 382 211 278 211 q 498 235 439 211 q 602 310 557 258 q 660 436 647 361 l 711 436 l 633 -8 l 578 -8 l 632 301 q 522 202 594 240 q 364 164 449 164 q 172 233 244 164 q 100 418 100 303 q 106 483 100 454 q 252 723 135 643 q 531 803 369 803 l 660 803 l 690 979 l 38 979 l 47 1028 l 979 1028 l 971 979 l 747 979 l 708 754 l 526 754 z "},"ध":{"ha":974,"x_min":108,"x_max":1108,"o":"m 1100 979 l 890 979 l 718 0 l 661 0 l 724 353 q 574 206 669 260 q 364 153 478 153 q 181 206 254 153 q 108 350 108 258 q 113 393 108 371 q 190 532 129 481 q 324 592 250 583 l 324 594 q 219 652 260 607 q 178 771 178 697 q 182 821 178 794 q 269 978 197 917 q 442 1040 340 1040 q 579 994 529 1040 q 629 869 629 949 q 617 788 629 832 l 569 788 q 581 858 581 829 q 543 957 581 922 q 436 992 506 992 q 302 941 360 992 q 232 815 244 890 q 228 772 228 793 q 278 659 228 700 q 424 618 328 618 l 506 618 l 497 571 l 422 571 q 283 543 342 571 q 196 467 225 515 q 167 363 167 419 q 227 243 167 286 q 382 200 288 200 q 549 240 469 200 q 682 349 628 279 q 751 508 736 419 l 835 979 l 842 1028 l 1108 1028 l 1100 979 z "},"न":{"ha":1071,"x_min":38,"x_max":1206,"o":"m 1196 979 l 986 979 l 814 0 l 758 0 l 875 658 l 531 658 q 590 594 568 635 q 613 499 613 553 q 608 450 613 475 q 553 320 596 376 q 447 233 511 264 q 310 201 383 201 q 145 258 207 201 q 83 406 83 314 q 88 454 83 429 q 194 639 107 571 q 406 707 281 707 l 883 707 l 931 979 l 38 979 l 46 1028 l 1206 1028 l 1196 979 m 561 454 q 565 496 565 475 q 517 613 565 568 q 389 657 468 657 q 226 601 294 657 q 140 453 157 544 q 136 411 136 432 q 185 294 136 338 q 318 250 235 250 q 476 309 407 250 q 561 454 544 368 z "},"प":{"ha":892,"x_min":38,"x_max":1026,"o":"m 1018 979 l 808 979 l 636 0 l 579 0 l 658 450 q 547 343 615 382 q 390 304 478 304 q 208 369 272 304 q 144 553 144 435 q 153 640 144 594 l 214 979 l 38 979 l 46 1028 l 1026 1028 l 1018 979 m 751 979 l 269 979 l 210 640 q 201 558 201 597 q 253 407 201 460 q 404 354 304 354 q 583 417 510 354 q 681 575 657 479 l 751 979 z "},"फ":{"ha":1369,"x_min":38,"x_max":1504,"o":"m 781 979 l 717 618 q 836 749 760 699 q 1015 799 913 799 q 1192 733 1125 799 q 1260 553 1260 667 q 1254 486 1260 518 q 1185 313 1236 386 q 1062 202 1135 240 q 906 164 989 164 q 824 174 860 164 l 832 219 q 904 213 867 213 q 1093 285 1011 213 q 1197 485 1175 358 q 1203 542 1203 511 q 1144 694 1203 638 q 994 750 1086 750 q 844 709 908 750 q 742 604 779 668 q 692 472 704 540 l 608 0 l 553 0 l 632 451 q 524 344 590 383 q 372 304 457 304 q 202 366 260 304 q 144 542 144 428 q 153 638 144 586 l 214 979 l 38 979 l 46 1028 l 1504 1028 l 1494 979 l 781 979 m 725 979 l 269 979 l 208 638 q 200 550 200 590 q 247 405 200 456 q 390 354 294 354 q 568 424 496 354 q 658 600 640 494 l 725 979 z "},"ब":{"ha":958,"x_min":38,"x_max":1093,"o":"m 1093 1028 l 1083 979 l 874 979 l 701 0 l 647 0 l 707 336 q 578 204 661 256 q 386 153 494 153 q 240 185 304 153 q 138 276 175 217 q 100 417 100 336 q 106 481 100 451 q 178 656 122 581 q 317 771 235 731 q 492 811 399 811 q 669 758 603 811 q 757 624 736 706 l 819 979 l 38 979 l 46 1028 l 1093 1028 m 733 482 q 739 538 739 518 q 678 702 739 635 q 496 769 617 769 q 382 750 438 769 q 281 694 326 731 l 638 297 q 701 385 676 336 q 733 482 726 435 m 156 479 q 150 424 150 440 q 219 258 150 318 q 399 197 289 197 q 613 274 522 197 l 256 672 q 156 479 176 594 z "},"भ":{"ha":1056,"x_min":97,"x_max":1190,"o":"m 1190 1028 l 1183 979 l 974 979 l 800 0 l 744 0 l 846 575 l 585 575 l 561 443 q 469 241 539 310 q 294 172 400 172 q 151 221 204 172 q 97 351 97 269 q 101 397 97 375 q 197 562 119 501 q 383 622 275 622 l 539 622 l 565 768 q 572 844 572 814 q 446 990 572 990 q 325 943 376 990 q 258 813 274 896 q 254 754 254 786 l 199 754 q 203 814 199 785 q 288 979 221 918 q 450 1040 356 1040 q 583 990 539 1040 q 626 849 626 940 q 618 763 626 808 l 593 622 l 854 622 l 925 1028 l 1190 1028 m 531 575 l 378 575 q 231 526 293 575 q 154 397 168 478 q 150 360 150 379 q 191 259 150 297 q 299 221 232 221 q 434 278 379 221 q 507 440 489 336 l 531 575 z "},"म":{"ha":1046,"x_min":38,"x_max":1181,"o":"m 1172 979 l 963 979 l 790 0 l 733 0 l 835 575 l 536 575 l 513 443 q 421 241 490 310 q 246 172 351 172 q 102 222 156 172 q 49 353 49 271 q 53 397 49 375 q 149 562 71 501 q 335 622 226 622 l 492 622 l 554 979 l 38 979 l 46 1028 l 1181 1028 l 1172 979 m 906 979 l 607 979 l 544 622 l 843 622 l 906 979 m 483 575 l 328 575 q 181 526 243 575 q 106 397 119 478 q 101 360 101 379 q 142 259 101 297 q 250 221 183 221 q 385 278 331 221 q 460 440 440 336 l 483 575 z "},"य":{"ha":1008,"x_min":38,"x_max":1143,"o":"m 1135 979 l 924 979 l 753 0 l 696 0 l 758 357 q 624 230 711 281 q 421 179 538 179 q 192 260 275 179 q 108 481 108 340 q 117 571 108 524 q 129 625 119 583 l 153 625 q 363 678 281 625 q 469 865 446 732 l 489 979 l 38 979 l 46 1028 l 1143 1028 l 1135 979 m 868 979 l 544 979 l 524 858 q 408 651 497 713 q 175 588 319 589 l 171 567 q 163 485 163 524 q 235 296 163 364 q 436 228 307 228 q 588 260 515 228 q 711 353 660 293 q 782 490 763 413 l 868 979 z "},"र":{"ha":749,"x_min":39,"x_max":883,"o":"m 874 979 l 681 979 l 653 813 q 533 581 625 658 q 293 503 440 503 l 186 503 l 147 282 q 140 215 140 243 q 185 85 140 133 q 314 38 231 38 q 467 99 406 38 q 546 263 528 160 l 550 282 l 604 282 q 601 264 601 268 q 504 62 581 136 q 311 -12 428 -12 q 143 47 203 -12 q 83 210 83 107 q 92 286 83 247 l 138 550 l 288 550 q 492 615 413 550 q 596 813 572 681 l 624 979 l 39 979 l 47 1028 l 883 1028 l 874 979 z "},"ल":{"ha":1236,"x_min":26,"x_max":1371,"o":"m 978 979 l 940 768 q 1076 695 1028 758 q 1124 535 1124 632 q 1117 458 1124 503 q 995 219 1090 311 q 750 128 900 128 q 697 131 731 128 l 706 182 q 749 179 736 179 q 956 257 875 179 q 1060 460 1038 335 q 1067 528 1067 499 q 1023 667 1067 615 q 894 719 979 719 q 716 638 788 719 q 619 413 644 556 l 618 399 l 568 399 l 569 413 q 581 515 581 472 q 538 665 581 611 q 411 719 494 719 q 235 647 304 719 q 147 460 167 575 q 140 390 140 418 q 196 236 140 293 q 360 179 251 179 q 401 182 371 179 l 392 131 q 351 128 364 128 q 152 198 221 128 q 83 385 83 268 q 90 463 83 428 q 200 686 115 603 q 411 769 285 769 q 567 702 518 769 q 617 543 617 635 l 619 543 q 717 697 651 632 q 885 768 782 761 l 922 979 l 26 979 l 35 1028 l 1371 1028 l 1363 979 l 978 979 z "},"व":{"ha":943,"x_min":38,"x_max":1078,"o":"m 1078 1028 l 1068 979 l 858 979 l 686 0 l 632 0 l 690 336 q 563 208 644 257 q 375 160 482 160 q 176 228 251 160 q 100 417 100 297 q 107 489 100 447 q 177 655 124 583 q 310 765 231 726 q 478 804 389 804 q 655 755 589 804 q 742 626 721 706 l 803 979 l 38 979 l 46 1028 l 1078 1028 m 389 207 q 552 248 482 207 q 663 351 622 289 q 715 479 703 414 q 721 536 721 515 q 663 694 721 631 q 486 757 606 757 q 341 724 410 757 q 224 630 272 692 q 161 485 176 568 q 156 425 156 457 q 219 265 156 322 q 389 207 283 207 z "},"श":{"ha":1097,"x_min":96,"x_max":1232,"o":"m 507 1040 q 676 980 611 1040 q 740 817 740 919 q 733 753 740 790 q 607 544 710 617 q 358 471 504 471 l 192 471 l 160 286 q 153 218 153 247 q 198 85 153 133 q 332 38 243 38 q 496 104 429 38 q 579 282 563 171 l 635 282 q 537 69 615 150 q 331 -12 458 -12 q 156 48 217 -12 q 96 215 96 108 q 103 290 96 246 l 143 519 l 353 519 q 568 583 476 519 q 679 761 660 647 q 683 813 683 789 q 634 943 683 896 q 503 990 585 990 q 366 951 425 990 q 275 845 307 913 q 243 694 243 778 l 186 694 q 228 874 188 794 q 342 997 269 953 q 507 1040 414 1040 m 1232 1028 l 1224 979 l 1014 979 l 842 0 l 785 0 l 965 1028 l 1232 1028 z "},"ष":{"ha":894,"x_min":38,"x_max":1029,"o":"m 1021 979 l 811 979 l 639 0 l 583 0 l 663 449 q 550 340 619 379 q 393 301 481 301 q 211 369 278 301 q 144 557 144 438 q 153 640 144 597 l 214 979 l 38 979 l 46 1028 l 1029 1028 l 1021 979 m 756 979 l 269 979 l 678 556 q 689 601 686 586 l 756 979 m 410 351 q 560 396 494 351 q 661 514 625 440 l 260 929 l 208 639 q 201 563 201 606 q 256 407 201 463 q 410 351 311 351 z "},"स":{"ha":1131,"x_min":38,"x_max":1265,"o":"m 1257 979 l 1046 979 l 875 0 l 818 0 l 911 525 l 188 525 l 146 283 q 140 219 140 254 q 185 86 140 135 q 317 38 229 38 q 473 104 413 38 q 550 279 533 171 l 604 279 q 510 69 586 150 q 313 -12 435 -12 q 143 49 203 -12 q 83 217 83 111 q 90 288 83 246 l 140 569 l 285 569 q 488 640 407 569 q 592 833 568 711 l 618 979 l 38 979 l 46 1028 l 1265 1028 l 1257 979 m 990 979 l 672 979 l 646 833 q 579 669 628 735 q 464 572 531 604 l 919 572 l 990 979 z "},"ह":{"ha":828,"x_min":50,"x_max":963,"o":"m 963 1028 l 954 979 l 747 979 l 711 779 l 703 735 l 442 735 q 303 702 363 735 q 233 597 244 669 q 231 569 231 578 q 261 493 231 524 q 344 450 292 463 q 429 458 385 458 q 573 427 515 458 q 658 347 631 396 q 689 247 686 299 l 633 247 q 575 361 628 311 q 421 411 522 411 q 278 376 342 411 q 174 284 214 342 q 122 160 135 226 q 117 106 117 124 q 172 -35 117 19 q 333 -89 228 -89 q 501 -40 431 -89 q 603 74 572 8 l 657 74 q 592 -28 636 21 q 481 -108 549 -76 q 329 -139 414 -139 q 131 -71 200 -139 q 63 104 63 -3 q 68 163 63 124 q 140 324 83 253 q 283 431 197 396 q 208 483 239 447 q 176 572 176 518 q 179 606 176 594 q 265 736 194 693 q 436 779 335 779 l 657 779 l 693 979 l 50 979 l 58 1028 l 963 1028 z "},"ळ":{"ha":1401,"x_min":24,"x_max":1536,"o":"m 1103 979 l 1068 783 q 1228 706 1168 772 q 1288 536 1288 640 q 1282 472 1288 501 q 1215 314 1267 383 q 1088 206 1164 244 q 924 167 1011 167 q 792 195 847 167 q 706 272 736 224 q 671 379 675 321 l 668 379 q 543 228 631 289 q 344 167 456 167 q 156 235 228 167 q 83 413 83 303 q 89 472 83 444 q 158 637 106 565 q 285 747 210 708 q 449 786 361 786 q 628 726 564 786 q 703 576 692 667 l 706 576 q 824 723 746 664 q 1013 786 903 782 l 1047 979 l 24 979 l 32 1028 l 1536 1028 l 1526 979 l 1103 979 m 656 472 q 661 531 661 500 q 604 681 661 625 q 447 738 547 738 q 310 705 374 738 q 202 612 246 672 q 144 472 158 551 q 139 419 139 436 q 199 271 139 326 q 357 215 258 215 q 495 249 432 215 q 601 340 558 282 q 656 472 643 399 m 1226 472 q 1232 529 1232 511 q 1174 681 1232 625 q 1017 738 1115 738 q 819 664 901 738 q 715 472 736 590 q 710 417 710 446 q 767 271 710 326 q 924 215 825 215 q 1062 248 997 215 q 1170 339 1126 281 q 1226 472 1214 397 z "},"क़":{"ha":1406,"x_min":38,"x_max":1540,"o":"m 818 979 l 756 624 q 872 750 799 701 q 1047 799 946 799 q 1226 731 1157 799 q 1296 550 1296 664 q 1289 483 1296 522 q 1221 313 1271 385 q 1098 202 1171 240 q 940 164 1025 164 q 861 174 894 164 l 869 219 q 940 213 901 213 q 1070 245 1008 213 q 1175 339 1132 278 q 1233 485 1218 400 q 1238 540 1238 514 q 1180 693 1238 636 q 1031 750 1122 750 q 833 674 910 750 q 733 494 757 599 l 646 0 l 593 0 l 651 336 q 532 211 608 260 q 354 163 456 163 q 169 230 240 163 q 99 414 99 297 q 106 486 99 444 q 174 651 122 581 q 301 760 226 722 q 461 799 376 799 q 626 750 565 799 q 701 624 686 701 l 764 979 l 38 979 l 46 1028 l 1540 1028 l 1531 979 l 818 979 m 371 211 q 522 250 457 211 q 624 348 586 289 q 675 468 663 407 l 679 496 q 682 536 682 524 q 629 688 682 626 q 467 750 576 750 q 333 717 397 750 q 222 625 268 685 q 163 485 176 565 q 157 422 157 456 q 216 267 157 324 q 371 211 275 211 m 297 -64 q 267 -53 279 -64 q 256 -24 256 -42 q 273 17 256 0 q 314 33 290 33 q 343 22 332 33 q 354 -7 354 11 q 338 -47 354 -31 q 297 -64 321 -64 z "},"ख़":{"ha":1275,"x_min":38,"x_max":1410,"o":"m 1410 1028 l 1400 979 l 1190 979 l 1018 0 l 963 0 l 1026 360 q 920 251 988 293 q 764 210 853 210 q 706 215 742 210 q 562 60 651 121 q 360 -1 472 -1 q 161 64 233 -1 q 89 243 89 129 q 94 311 89 279 l 138 550 l 194 550 q 349 599 282 550 q 438 775 415 649 l 474 979 l 38 979 l 46 1028 l 1410 1028 m 1135 979 l 529 979 l 493 769 q 201 506 446 506 l 185 506 l 150 307 q 144 251 144 281 q 204 103 144 158 q 371 49 264 49 q 540 101 463 49 q 660 231 617 153 q 566 312 600 257 q 532 443 532 367 q 538 501 532 460 q 597 647 551 585 q 710 742 643 708 q 853 775 776 775 q 1001 733 946 775 q 1072 625 1057 692 l 1135 979 m 781 256 q 914 291 857 256 q 1005 381 971 326 q 1049 492 1039 436 q 1053 540 1053 515 q 1004 674 1053 619 q 857 729 956 729 q 683 667 760 729 q 588 497 607 604 q 583 446 583 471 q 638 306 583 357 q 781 256 693 256 m 301 -228 q 272 -217 283 -228 q 260 -187 260 -206 q 277 -147 260 -164 q 318 -131 294 -131 q 347 -142 336 -131 q 358 -171 358 -153 q 342 -211 358 -194 q 301 -228 325 -228 z "},"ग़":{"ha":979,"x_min":38,"x_max":1114,"o":"m 1114 1028 l 1106 979 l 894 979 l 724 0 l 667 0 l 839 979 l 550 979 l 478 568 q 405 415 463 475 q 249 356 347 356 q 123 401 165 356 q 81 519 81 447 q 85 564 81 542 l 93 606 l 149 606 l 140 563 q 136 522 136 542 q 164 438 136 471 q 253 404 192 404 q 368 451 328 404 q 421 567 408 497 l 493 979 l 38 979 l 46 1028 l 1114 1028 m 213 121 q 183 132 194 121 q 171 161 171 143 q 188 201 171 185 q 229 218 206 218 q 258 207 247 218 q 269 178 269 196 q 253 138 269 154 q 213 121 236 121 z "},"ज़":{"ha":1151,"x_min":38,"x_max":1286,"o":"m 1278 979 l 1068 979 l 896 0 l 840 0 l 956 653 l 632 653 l 599 468 q 501 279 578 351 q 310 207 424 207 q 163 264 217 207 q 110 413 110 321 q 115 469 110 431 l 157 703 l 214 703 l 172 468 q 167 415 167 432 q 206 300 167 343 q 317 257 246 257 q 465 315 403 257 q 543 468 526 374 l 585 703 l 964 703 l 1013 979 l 38 979 l 46 1028 l 1286 1028 l 1278 979 m 275 -19 q 245 -8 257 -19 q 233 21 233 3 q 251 61 233 44 q 292 78 268 78 q 321 67 310 78 q 332 38 332 56 q 315 -3 332 14 q 275 -19 299 -19 z "},"ड़":{"ha":806,"x_min":39,"x_max":940,"o":"m 444 731 q 289 699 356 731 q 207 585 222 667 q 204 554 204 563 q 250 467 204 494 q 368 440 296 440 l 431 440 q 606 395 535 440 q 678 256 678 350 q 674 210 678 235 q 573 47 656 110 q 354 -15 490 -15 q 141 47 217 -15 q 65 207 65 108 q 69 253 65 231 l 125 253 q 121 213 121 232 q 181 81 121 131 q 360 31 242 31 q 501 60 440 31 q 592 140 561 90 q 624 250 624 190 q 564 363 624 329 q 414 396 504 396 l 354 396 q 207 435 267 396 q 147 551 147 474 q 150 586 147 574 q 248 731 168 688 q 432 775 328 775 l 625 775 l 663 979 l 39 979 l 47 1028 l 940 1028 l 932 979 l 718 979 l 674 731 l 444 731 m 304 -242 q 274 -231 286 -242 q 263 -201 263 -219 q 280 -161 263 -178 q 321 -144 297 -144 q 350 -156 339 -144 q 361 -185 361 -167 q 344 -225 361 -208 q 304 -242 328 -242 z "},"ढ़":{"ha":876,"x_min":35,"x_max":1011,"o":"m 574 744 q 378 706 469 744 q 226 591 288 668 q 144 403 164 514 q 139 338 139 374 q 219 143 139 217 q 432 69 299 69 q 573 98 508 69 q 681 176 638 126 q 735 289 724 225 q 738 325 738 301 q 697 429 738 389 q 590 469 657 469 q 469 428 522 469 q 406 317 415 386 q 403 286 403 297 l 358 286 q 361 322 358 300 q 442 462 376 410 q 600 514 508 514 q 737 463 685 514 q 789 331 789 413 q 785 289 789 310 q 722 151 771 211 q 595 58 672 92 q 425 25 518 25 q 247 63 325 25 q 126 172 169 101 q 83 333 83 242 q 90 406 83 364 q 182 618 113 532 q 352 747 251 704 q 569 789 453 789 l 642 789 l 675 979 l 35 979 l 44 1028 l 1011 1028 l 1003 979 l 729 979 l 688 744 l 574 744 m 346 -201 q 316 -190 328 -201 q 304 -161 304 -179 q 322 -121 304 -137 q 363 -104 339 -104 q 392 -115 381 -104 q 403 -144 403 -126 q 386 -185 403 -168 q 346 -201 369 -201 z "},"फ़":{"ha":1369,"x_min":38,"x_max":1504,"o":"m 781 979 l 717 618 q 836 749 760 699 q 1015 799 913 799 q 1192 733 1125 799 q 1260 553 1260 667 q 1254 486 1260 518 q 1185 313 1236 386 q 1062 202 1135 240 q 906 164 989 164 q 824 174 860 164 l 832 219 q 904 213 867 213 q 1093 285 1011 213 q 1197 485 1175 358 q 1203 542 1203 511 q 1144 694 1203 638 q 994 750 1086 750 q 844 709 908 750 q 742 604 779 668 q 692 472 704 540 l 608 0 l 553 0 l 632 451 q 524 344 590 383 q 372 304 457 304 q 202 366 260 304 q 144 542 144 428 q 153 638 144 586 l 214 979 l 38 979 l 46 1028 l 1504 1028 l 1494 979 l 781 979 m 725 979 l 269 979 l 208 638 q 200 550 200 590 q 247 405 200 456 q 390 354 294 354 q 568 424 496 354 q 658 600 640 494 l 725 979 m 311 79 q 281 90 293 79 q 269 119 269 101 q 287 160 269 143 q 328 176 304 176 q 357 165 346 176 q 368 136 368 154 q 351 96 368 113 q 311 79 335 79 z "},"ऱ":{"ha":749,"x_min":15,"x_max":883,"o":"m 874 979 l 681 979 l 653 813 q 533 581 625 658 q 293 503 440 503 l 186 503 l 147 282 q 140 215 140 243 q 185 85 140 133 q 314 38 231 38 q 467 99 406 38 q 546 263 528 160 l 550 282 l 604 282 q 601 264 601 268 q 504 62 581 136 q 311 -12 428 -12 q 143 47 203 -12 q 83 210 83 107 q 92 286 83 247 l 138 550 l 288 550 q 492 615 413 550 q 596 813 572 681 l 624 979 l 39 979 l 47 1028 l 883 1028 l 874 979 m 57 -179 q 27 -168 39 -179 q 15 -139 15 -157 q 33 -99 15 -115 q 74 -82 50 -82 q 103 -93 92 -82 q 114 -122 114 -104 q 97 -162 114 -146 q 57 -179 81 -179 z "},"ं":{"ha":0,"x_min":-117,"x_max":-18,"o":"m -75 1178 q -105 1189 -93 1178 q -117 1218 -117 1200 q -100 1258 -117 1242 q -60 1275 -83 1275 q -29 1264 -40 1275 q -18 1235 -18 1253 q -35 1194 -18 1211 q -75 1178 -51 1178 z "},"ँ":{"ha":0,"x_min":-303,"x_max":207,"o":"m -46 1360 q -72 1369 -62 1360 q -82 1394 -82 1379 q -67 1430 -82 1415 q -31 1444 -51 1444 q -1 1433 -11 1444 q 4 1403 8 1421 q -13 1372 1 1383 q -46 1360 -28 1360 m -78 1142 q -245 1194 -187 1142 q -303 1324 -303 1247 q -300 1358 -303 1347 l -253 1358 q -256 1332 -256 1342 q -211 1229 -256 1272 q -78 1186 -167 1186 q 42 1212 -10 1186 q 123 1277 93 1238 q 160 1358 153 1317 l 207 1358 q 162 1253 197 1303 q 65 1173 126 1204 q -78 1142 4 1142 z "},"ः":{"ha":283,"x_min":51,"x_max":231,"o":"m 172 653 q 138 667 150 653 q 131 703 126 682 q 150 738 133 724 q 189 751 167 751 q 219 740 207 751 q 231 713 231 729 q 213 671 231 689 q 172 653 196 653 m 96 221 q 63 235 74 221 q 54 269 51 249 q 74 304 58 290 q 113 318 90 318 q 145 304 133 318 q 153 269 157 290 q 133 235 150 249 q 96 221 117 221 z "},"ऽ":{"ha":785,"x_min":47,"x_max":729,"o":"m 56 147 l 390 147 q 499 185 460 147 q 538 278 538 222 q 504 374 538 328 q 401 490 471 419 q 283 626 324 568 q 243 750 243 683 q 246 785 243 774 q 320 899 260 864 q 467 933 381 933 l 729 933 l 721 885 l 471 885 q 360 860 407 885 q 301 778 313 836 q 300 754 300 769 q 335 654 300 703 q 439 535 369 606 q 556 400 517 456 q 594 281 594 344 q 592 249 594 271 q 532 141 582 185 q 390 97 482 97 l 47 97 l 56 147 z "},"्":{"ha":0,"x_min":-322,"x_max":-147,"o":"m -322 -89 l -265 -89 l -147 -347 l -206 -347 l -322 -89 z "},"़":{"ha":0,"x_min":-610,"x_max":-511,"o":"m -568 -112 q -598 -101 -586 -112 q -610 -72 -610 -90 q -592 -32 -610 -49 q -551 -15 -575 -15 q -522 -26 -533 -15 q -511 -56 -511 -37 q -528 -96 -511 -79 q -568 -112 -544 -112 z "},"०":{"ha":793,"x_min":69,"x_max":760,"o":"m 90 493 q 69 285 69 368 q 129 68 69 144 q 328 -8 189 -8 q 604 122 511 -8 q 739 493 697 253 q 760 700 760 606 q 701 914 760 839 q 503 989 642 989 q 225 860 318 989 q 90 493 132 731 m 676 493 q 615 258 653 353 q 510 106 578 163 q 338 50 443 50 q 179 112 226 50 q 132 290 132 174 q 153 493 132 371 q 215 726 178 632 q 319 876 251 821 q 493 931 386 931 q 651 870 604 931 q 699 696 699 810 q 676 493 699 611 z "},"१":{"ha":344,"x_min":81,"x_max":318,"o":"m 96 921 l 106 979 l 318 979 l 146 0 l 81 0 l 243 921 l 96 921 z "},"२":{"ha":775,"x_min":-21,"x_max":740,"o":"m -12 44 q 460 378 278 213 q 668 688 643 543 q 675 756 675 726 q 626 887 675 838 q 472 936 578 936 q 276 863 353 936 q 178 663 200 790 l 115 663 q 244 906 146 822 q 483 990 343 990 q 669 933 597 990 q 740 761 740 876 q 733 689 740 733 q 609 455 714 575 q 364 232 504 335 q 85 54 224 129 l 646 54 l 638 1 l -21 1 l -12 44 z "},"३":{"ha":764,"x_min":31,"x_max":746,"o":"m 496 994 q 681 937 617 994 q 746 785 746 879 q 742 733 746 761 q 660 588 728 649 q 469 515 593 526 l 468 508 q 678 283 678 454 q 672 225 678 253 q 573 56 654 121 q 353 -10 492 -10 q 115 67 199 -10 q 33 283 31 143 l 96 283 q 159 110 94 175 q 358 46 224 46 q 531 98 465 46 q 611 231 597 150 q 615 279 615 256 q 538 431 615 378 q 319 483 460 483 l 292 483 l 301 538 l 329 538 q 679 731 644 538 q 683 775 683 754 q 632 896 683 851 q 486 940 581 940 q 299 884 383 940 q 189 714 214 828 l 126 714 q 253 919 153 843 q 496 994 353 994 z "},"४":{"ha":790,"x_min":-10,"x_max":763,"o":"m -10 250 l 0 301 l 654 981 l 719 981 l 601 306 l 763 306 l 751 250 l 590 250 l 547 0 l 483 0 l 528 250 l -10 250 m 644 897 l 71 306 l 542 306 l 644 897 z "},"५":{"ha":824,"x_min":53,"x_max":796,"o":"m 786 926 l 247 926 l 175 524 q 303 613 224 579 q 469 646 382 646 q 670 574 604 646 q 736 389 736 503 q 728 307 736 349 q 610 81 704 171 q 360 -8 515 -8 q 133 67 214 -8 q 58 274 53 143 l 119 274 q 188 107 121 165 q 367 49 254 49 q 569 119 493 49 q 665 307 646 190 q 672 379 672 349 q 615 537 672 481 q 450 593 558 593 q 290 555 369 593 q 163 454 210 517 l 103 454 l 197 982 l 796 982 l 786 926 z "},"६":{"ha":828,"x_min":74,"x_max":778,"o":"m 718 722 q 510 942 707 942 q 270 821 363 942 q 142 432 178 700 q 273 591 178 532 q 485 650 368 650 q 683 584 614 650 q 751 397 751 518 q 743 313 751 358 q 683 152 728 225 q 558 35 638 79 q 369 -10 479 -10 q 141 72 208 -10 q 74 296 74 153 q 92 478 74 376 q 236 863 135 731 q 519 994 338 994 q 715 920 654 994 q 778 722 775 846 l 718 722 m 135 340 q 129 278 129 313 q 189 111 129 176 q 375 46 249 46 q 577 117 493 46 q 683 313 661 188 q 690 388 690 357 q 631 544 690 490 q 465 599 572 599 q 324 570 394 599 q 202 483 254 542 q 135 340 150 425 z "},"७":{"ha":649,"x_min":68,"x_max":711,"o":"m 701 931 l 156 0 l 88 0 l 639 925 l 68 925 l 78 981 l 711 981 l 701 931 z "},"८":{"ha":847,"x_min":31,"x_max":800,"o":"m 147 757 q 208 881 160 826 q 336 965 257 935 q 517 996 415 996 q 726 936 653 996 q 800 778 800 876 q 796 729 800 754 q 722 591 782 649 q 554 510 661 533 q 694 434 644 490 q 744 293 744 378 q 739 238 744 276 q 609 40 717 111 q 335 -32 501 -32 q 111 31 192 -32 q 31 207 31 94 q 36 268 31 240 q 124 426 51 364 q 307 510 196 489 q 183 581 224 529 q 143 706 143 632 q 147 757 143 731 m 208 749 q 204 706 204 726 q 265 576 204 622 q 435 531 326 531 q 637 581 557 531 q 733 724 717 632 q 738 767 738 747 q 676 897 738 851 q 508 942 614 942 q 306 892 388 942 q 208 749 225 842 m 97 268 q 93 218 93 242 q 160 72 93 124 q 344 21 228 21 q 568 79 478 21 q 676 244 658 138 q 681 292 681 269 q 610 435 681 389 q 426 482 540 482 q 207 429 299 482 q 97 268 115 376 z "},"९":{"ha":844,"x_min":68,"x_max":782,"o":"m 136 261 q 180 99 131 157 q 332 42 229 42 q 579 163 483 42 q 711 551 675 283 q 580 392 675 451 q 369 333 485 333 q 171 399 240 333 q 101 586 101 465 q 110 672 101 626 q 228 901 133 808 q 485 993 324 993 q 714 913 646 993 q 782 689 782 832 q 763 506 782 618 q 616 122 719 256 q 325 -11 513 -11 q 131 63 193 -11 q 75 261 68 138 l 136 261 m 718 644 q 724 707 724 672 q 664 874 724 808 q 479 939 604 939 q 276 867 360 939 q 169 669 192 794 q 163 596 163 625 q 222 439 163 493 q 388 385 281 385 q 528 414 458 385 q 651 501 599 443 q 718 644 703 560 z "},"ॐ":{"ha":1454,"x_min":47,"x_max":1322,"o":"m 914 1268 q 886 1280 896 1268 q 878 1310 876 1292 q 895 1340 881 1328 q 928 1351 910 1351 q 956 1340 946 1351 q 963 1310 965 1328 q 947 1280 961 1292 q 914 1268 933 1268 m 889 1049 q 716 1102 775 1049 q 657 1231 657 1156 q 660 1265 657 1254 l 707 1265 q 704 1239 704 1249 q 751 1135 704 1178 q 890 1093 797 1093 q 1049 1144 992 1093 q 1119 1265 1106 1196 l 1167 1265 q 1083 1113 1153 1176 q 889 1049 1013 1049 m 1118 957 q 1322 736 1322 957 q 1310 613 1322 679 l 1274 411 q 1147 133 1242 225 q 868 42 1051 42 q 736 56 817 42 l 746 104 q 871 92 828 92 q 1111 172 1032 92 q 1218 413 1190 253 l 1256 617 q 1267 729 1267 681 q 1110 907 1267 907 q 955 849 1010 907 q 883 697 900 792 q 797 526 863 578 q 624 474 732 474 l 594 474 q 632 346 632 422 q 628 296 632 321 q 515 94 604 171 q 300 18 425 18 q 117 79 186 18 q 47 242 47 140 q 51 294 47 268 l 106 294 q 101 250 101 272 q 158 118 101 168 q 306 68 214 68 q 481 133 407 68 q 575 300 556 197 q 579 343 579 321 q 531 469 579 418 q 379 519 482 519 l 329 519 l 339 569 l 389 569 q 513 599 460 569 q 599 673 567 628 q 639 768 631 718 q 643 813 643 792 q 592 938 643 893 q 458 983 540 983 q 292 930 364 983 q 204 788 221 876 l 150 788 q 260 967 171 900 q 468 1033 349 1033 q 635 977 572 1033 q 699 826 699 921 q 694 778 699 803 q 621 626 678 689 q 471 547 564 564 l 471 544 q 540 521 510 539 l 626 521 q 760 561 707 521 q 831 699 813 601 q 921 888 851 818 q 1118 957 990 957 z "},"॰":{"ha":700,"x_min":119,"x_max":579,"o":"m 575 492 q 487 335 558 396 q 318 275 415 275 q 174 324 229 275 q 119 454 119 374 q 124 494 119 474 q 215 652 142 590 q 389 714 289 714 q 527 665 475 714 q 579 535 579 615 q 575 492 579 515 m 163 460 q 206 355 163 394 q 321 315 249 315 q 459 365 400 315 q 533 492 518 414 q 536 528 536 504 q 496 634 536 594 q 385 674 456 674 q 274 646 325 674 q 192 569 222 618 q 163 460 163 519 z "},"।":{"ha":343,"x_min":135,"x_max":371,"o":"m 190 0 l 135 0 l 315 1031 l 371 1031 l 190 0 z "},"॥":{"ha":585,"x_min":135,"x_max":614,"o":"m 190 0 l 135 0 l 315 1031 l 371 1031 l 190 0 m 433 0 l 378 0 l 558 1031 l 614 1031 l 433 0 z "},"₨":{"ha":1417,"x_min":28,"x_max":1347,"o":"m 474 979 q 681 922 614 979 q 749 761 749 864 q 743 696 749 725 q 637 499 721 571 q 415 418 553 428 l 629 0 l 557 0 l 346 417 l 164 417 l 90 0 l 28 0 l 200 979 l 474 979 m 681 694 q 686 751 686 733 q 460 922 686 922 l 251 922 l 172 468 l 379 468 q 681 694 639 468 m 1281 528 q 1238 661 1285 608 q 1094 714 1192 714 q 953 672 1010 714 q 885 561 897 629 q 882 536 882 542 q 908 470 882 496 q 970 431 933 444 q 1072 403 1007 418 q 1189 369 1146 385 q 1263 319 1232 353 q 1293 231 1293 286 q 1258 108 1293 164 q 1160 22 1222 53 q 1021 -10 1097 -10 q 826 53 896 -10 q 761 226 756 117 l 824 226 q 871 93 818 146 q 1031 40 924 40 q 1164 83 1111 40 q 1229 193 1217 126 q 1232 221 1232 213 q 1206 290 1232 264 q 1142 331 1181 317 q 1039 360 1103 344 q 926 392 968 376 q 853 440 883 408 q 824 525 824 472 q 826 563 824 549 q 919 709 843 654 q 1104 764 994 764 q 1285 701 1224 764 q 1342 528 1347 638 l 1281 528 z "},"₹":{"ha":919,"x_min":110,"x_max":926,"o":"m 671 746 l 667 725 l 882 725 l 875 682 l 657 682 q 583 528 632 582 q 447 453 535 475 q 206 432 358 432 l 176 271 q 169 201 169 229 q 213 78 169 121 q 342 36 256 36 q 499 94 439 36 q 578 260 558 151 l 638 260 q 535 56 614 126 q 335 -14 456 -14 q 166 41 222 -14 q 110 194 110 96 q 117 271 110 226 l 154 478 q 408 494 322 478 q 535 552 494 510 q 599 682 576 594 l 124 682 l 131 725 l 608 725 l 613 747 l 646 932 l 167 932 l 175 979 l 926 979 l 918 932 l 704 932 l 671 746 z "},"‌":{"ha":0,"x_min":-32,"x_max":33,"o":"m -32 1126 l 33 1126 l 33 -319 l -32 -319 l -32 1126 z "},"‍":{"ha":0,"x_min":-178,"x_max":178,"o":"m 32 882 l 32 -319 l -33 -319 l -33 882 l -129 781 l -175 826 l -46 956 l -178 1088 l -132 1133 l 0 1001 l 133 1133 l 178 1089 l 44 956 l 178 824 l 132 778 l 32 882 z "},"◌":{"ha":904,"x_min":69,"x_max":835,"o":"m 418 633 q 375 649 392 633 q 358 692 358 665 q 375 734 358 718 q 418 750 392 750 q 461 734 444 750 q 478 692 478 718 q 461 649 478 665 q 418 633 444 633 m 586 613 q 543 628 560 613 q 526 671 526 644 q 543 713 526 697 q 586 729 560 729 q 629 713 613 729 q 646 671 646 697 q 629 628 646 644 q 586 613 613 613 m 256 575 q 213 591 229 575 q 196 633 196 607 q 213 676 196 660 q 256 692 229 692 q 299 676 282 692 q 315 633 315 660 q 299 591 315 607 q 256 575 282 575 m 714 510 q 671 526 688 510 q 654 568 654 542 q 671 610 654 594 q 714 626 688 626 q 757 610 740 626 q 774 568 774 594 q 757 526 774 542 q 714 510 740 510 m 150 438 q 107 453 124 438 q 90 496 90 469 q 107 538 90 522 q 150 554 124 554 q 193 538 176 554 q 210 496 210 522 q 193 453 210 469 q 150 438 176 438 m 775 351 q 732 367 749 351 q 715 410 715 383 q 732 452 715 436 q 775 468 749 468 q 818 452 801 468 q 835 410 835 436 q 818 367 835 383 q 775 351 801 351 m 129 269 q 86 285 103 269 q 69 328 69 301 q 86 370 69 354 q 129 386 103 386 q 172 370 156 386 q 189 328 189 354 q 172 285 189 301 q 129 269 156 269 m 761 185 q 718 201 735 185 q 701 243 701 217 q 718 285 701 269 q 761 301 735 301 q 804 285 788 301 q 821 243 821 269 q 804 201 821 217 q 761 185 788 185 m 192 113 q 149 128 165 113 q 132 171 132 144 q 149 213 132 197 q 192 229 165 229 q 235 213 218 229 q 251 171 251 197 q 235 128 251 144 q 192 113 218 113 m 660 51 q 617 67 633 51 q 600 110 600 83 q 617 152 600 136 q 660 168 633 168 q 703 152 686 168 q 719 110 719 136 q 703 67 719 83 q 660 51 686 51 m 328 7 q 285 23 301 7 q 268 65 268 39 q 285 108 268 92 q 328 124 301 124 q 371 108 354 124 q 388 65 388 92 q 371 23 388 39 q 328 7 354 7 m 500 -12 q 457 3 474 -12 q 440 46 440 19 q 457 88 440 72 q 500 104 474 104 q 543 88 526 104 q 560 46 560 72 q 543 3 560 19 q 500 -12 526 -12 z "},"!":{"ha":347,"x_min":39,"x_max":296,"o":"m 296 986 l 154 251 l 107 251 l 225 986 l 296 986 m 156 96 l 139 0 l 39 0 l 57 96 l 156 96 z "},"\"":{"ha":324,"x_min":46,"x_max":290,"o":"m 147 1103 l 90 844 l 46 844 l 79 1103 l 147 1103 m 290 1103 l 233 844 l 188 844 l 222 1103 l 290 1103 z "},"#":{"ha":1065,"x_min":17,"x_max":1047,"o":"m 811 639 l 711 381 l 919 381 l 908 324 l 689 324 l 563 0 l 503 0 l 629 324 l 300 324 l 174 0 l 114 0 l 240 324 l 17 324 l 28 381 l 263 381 l 363 639 l 146 639 l 156 696 l 385 696 l 514 1028 l 574 1028 l 444 696 l 774 696 l 903 1028 l 963 1028 l 833 696 l 1047 696 l 1038 639 l 811 639 m 751 639 l 422 639 l 322 381 l 651 381 l 751 639 z "},"$":{"ha":767,"x_min":33,"x_max":714,"o":"m 406 524 q 535 475 488 497 q 617 410 583 453 q 650 299 650 367 q 644 242 650 269 q 594 120 633 178 q 484 26 554 63 q 318 -10 414 -10 l 311 -10 l 292 -121 l 258 -121 l 278 -8 q 143 36 199 0 q 60 126 88 72 q 38 244 33 181 l 103 244 q 119 160 101 203 q 178 85 136 117 q 288 44 219 53 l 363 474 q 232 523 279 501 q 151 586 185 544 q 117 694 117 628 q 122 747 117 708 q 228 921 142 853 q 447 989 315 989 l 454 989 l 475 1111 l 508 1111 l 486 988 q 657 913 600 976 q 714 765 714 849 l 649 765 q 604 874 646 822 q 478 935 563 925 l 406 524 m 189 749 q 185 708 185 726 q 233 599 185 636 q 374 533 282 563 l 444 938 l 438 938 q 272 888 339 938 q 189 749 204 839 m 579 240 q 583 282 583 264 q 535 396 583 357 q 394 464 486 435 l 321 42 l 326 42 q 497 98 431 42 q 579 240 564 154 z "},"%":{"ha":799,"x_min":-10,"x_max":807,"o":"m 325 989 q 439 948 396 989 q 482 839 482 907 q 479 801 482 814 q 403 665 465 718 q 260 613 340 613 q 147 653 190 613 q 104 761 104 694 q 135 877 104 825 q 216 959 165 929 q 325 989 267 989 m 807 979 l 56 0 l -10 0 l 742 979 l 807 979 m 154 771 q 185 688 154 719 q 267 657 215 657 q 372 698 326 657 q 429 801 418 739 q 432 832 432 824 q 401 913 432 882 q 318 944 371 944 q 202 894 250 944 q 154 771 154 844 m 539 365 q 651 324 608 365 q 694 217 694 283 q 665 101 694 153 q 584 19 635 49 q 474 -11 533 -11 q 360 30 403 -11 q 317 139 317 71 q 319 176 317 164 q 396 313 333 260 q 539 365 458 365 m 369 176 q 367 146 367 154 q 397 65 367 96 q 481 33 428 33 q 597 83 549 33 q 644 208 644 133 q 614 290 644 258 q 532 321 583 321 q 426 281 472 321 q 369 176 381 240 z "},"&":{"ha":939,"x_min":10,"x_max":840,"o":"m 772 0 l 543 306 q 546 276 546 296 q 539 224 546 250 q 433 56 515 121 q 246 -10 351 -10 q 76 50 142 -10 q 10 214 10 110 q 15 274 10 246 q 74 421 31 360 q 178 513 118 482 q 306 544 239 544 q 389 529 351 544 q 358 569 378 542 q 309 649 326 613 q 292 732 292 686 q 296 781 292 756 q 340 883 306 835 q 430 960 374 931 q 560 989 486 989 q 715 936 665 989 q 764 804 764 883 q 761 768 764 793 q 753 714 760 742 l 693 714 l 700 751 q 704 794 704 775 q 664 897 704 860 q 551 935 624 935 q 419 889 472 935 q 356 776 367 843 q 351 735 351 754 q 365 669 351 699 q 406 601 379 639 l 840 0 l 772 0 m 504 258 q 508 299 508 279 q 481 398 508 354 q 407 467 453 442 q 310 492 361 492 q 157 436 222 492 q 72 275 92 381 q 68 228 68 250 q 121 94 68 142 q 256 46 174 46 q 419 106 349 46 q 504 258 489 165 z "},"'":{"ha":190,"x_min":50,"x_max":157,"o":"m 157 1103 l 96 844 l 50 844 l 79 1103 l 157 1103 z "},"(":{"ha":508,"x_min":56,"x_max":640,"o":"m 75 560 q 258 1038 122 829 q 579 1372 394 1246 l 640 1372 l 639 1365 q 306 1015 432 1219 q 136 560 181 810 q 117 343 117 443 q 356 -246 117 -24 l 354 -253 l 293 -253 q 119 -2 183 -153 q 56 342 56 149 q 75 560 56 453 z "},")":{"ha":508,"x_min":-132,"x_max":453,"o":"m 433 560 q 250 82 386 290 q -71 -253 114 -126 l -132 -253 l -131 -246 q 202 105 76 -100 q 372 560 328 310 q 393 779 393 675 q 153 1365 393 1142 l 154 1372 l 217 1372 q 390 1121 326 1272 q 453 778 453 969 q 433 560 453 667 z "},"*":{"ha":619,"x_min":49,"x_max":572,"o":"m 543 917 l 572 842 l 343 757 l 543 674 l 489 599 l 331 728 l 315 500 l 229 500 l 288 728 l 79 596 l 49 672 l 276 757 l 78 842 l 138 921 l 297 788 l 318 1014 l 403 1014 l 342 788 l 543 917 z "},"+":{"ha":811,"x_min":47,"x_max":765,"o":"m 754 492 l 431 492 l 374 167 l 313 167 l 369 492 l 47 492 l 58 550 l 381 550 l 438 875 l 499 875 l 442 550 l 765 550 l 754 492 z "},",":{"ha":194,"x_min":-14,"x_max":124,"o":"m 122 61 q 88 -88 124 -35 q -14 -142 53 -142 l -7 -106 q 67 -29 56 -106 l 69 -19 l 17 -19 l 31 61 l 122 61 z "},"-":{"ha":640,"x_min":78,"x_max":611,"o":"m 611 549 l 601 494 l 78 494 l 89 549 l 611 549 z "},".":{"ha":186,"x_min":35,"x_max":150,"o":"m 150 96 l 133 0 l 35 0 l 51 96 l 150 96 z "},"/":{"ha":506,"x_min":-104,"x_max":611,"o":"m 611 1303 l -43 -224 l -104 -224 l 547 1303 l 611 1303 z "},":":{"ha":194,"x_min":-14,"x_max":210,"o":"m 210 717 l 194 619 l 94 619 l 111 717 l 210 717 m 101 96 l 85 0 l -14 0 l 1 96 l 101 96 z "},";":{"ha":246,"x_min":-24,"x_max":253,"o":"m 253 715 l 236 619 l 138 619 l 154 715 l 253 715 m 113 61 q 78 -88 114 -35 q -24 -142 43 -142 l -17 -106 q 57 -29 46 -106 l 60 -19 l 7 -19 l 21 61 l 113 61 z "},"<":{"ha":550,"x_min":53,"x_max":556,"o":"m 361 196 l 53 521 l 476 847 l 556 847 l 131 521 l 440 196 l 361 196 z "},"=":{"ha":794,"x_min":24,"x_max":769,"o":"m 769 682 l 760 625 l 71 625 l 81 682 l 769 682 m 724 418 l 714 361 l 24 361 l 33 418 l 724 418 z "},">":{"ha":550,"x_min":-6,"x_max":497,"o":"m 110 847 l 189 847 l 497 521 l 74 196 l -6 196 l 419 521 l 110 847 z "},"?":{"ha":679,"x_min":81,"x_max":672,"o":"m 421 999 q 606 936 539 999 q 672 765 672 874 q 667 703 672 747 q 533 490 642 554 q 260 424 424 425 l 226 235 l 165 235 l 207 469 l 242 469 q 604 703 565 469 q 610 761 610 731 q 557 897 610 849 q 410 946 504 946 q 235 888 301 946 q 140 729 168 831 l 81 729 q 199 928 111 857 q 421 999 288 999 m 222 96 l 206 0 l 106 0 l 124 96 l 222 96 z "},"@":{"ha":1479,"x_min":46,"x_max":1443,"o":"m 918 1069 q 1310 942 1176 1069 q 1443 596 1443 815 q 1431 454 1443 528 q 1349 214 1407 321 q 1213 46 1290 107 q 1054 -15 1135 -15 q 938 81 938 -15 q 963 190 938 126 q 807 39 896 93 q 610 -15 718 -15 q 429 55 496 -15 q 363 243 363 125 q 372 333 363 289 q 465 558 396 458 q 632 715 533 658 q 836 771 731 771 q 1035 702 968 771 q 1103 522 1103 633 q 1076 375 1103 450 l 1003 158 q 990 99 990 121 q 1067 40 990 40 q 1189 90 1128 40 q 1298 234 1250 140 q 1367 453 1346 328 q 1379 590 1379 526 q 1260 901 1379 789 q 903 1014 1140 1014 q 535 923 700 1014 q 265 675 371 832 q 125 322 160 518 q 111 169 111 243 q 248 -169 111 -56 q 632 -286 385 -282 l 611 -340 q 194 -210 343 -336 q 46 160 46 -85 q 61 322 46 231 q 213 696 97 525 q 512 968 329 867 q 918 1069 694 1069 m 633 40 q 807 90 724 40 q 950 228 890 139 q 1032 432 1010 317 q 1040 513 1040 474 q 988 659 1040 606 q 819 713 935 713 q 645 664 726 713 q 508 529 564 615 q 433 335 453 443 q 425 258 425 296 q 479 100 425 160 q 633 40 533 40 z "},"A":{"ha":865,"x_min":-47,"x_max":744,"o":"m 626 254 l 161 254 l 21 0 l -47 0 l 482 953 l 551 953 l 744 0 l 676 0 l 626 254 m 617 306 l 504 876 l 190 306 l 617 306 z "},"B":{"ha":800,"x_min":26,"x_max":760,"o":"m 756 738 q 676 582 739 640 q 528 508 613 524 q 652 439 606 493 q 699 308 699 385 q 694 263 699 286 q 581 73 674 146 q 336 0 489 0 l 26 0 l 199 979 l 507 979 q 697 928 635 979 q 760 789 760 876 q 756 738 760 765 m 425 532 q 606 585 538 532 q 692 731 675 638 q 696 771 696 751 q 645 883 696 843 q 488 924 594 924 l 251 924 l 182 532 l 425 532 m 632 268 q 636 308 636 289 q 576 435 636 389 q 410 481 517 481 l 174 481 l 97 56 l 336 56 q 535 112 457 56 q 632 268 614 168 z "},"C":{"ha":1065,"x_min":68,"x_max":1019,"o":"m 625 989 q 897 906 797 989 q 1019 679 997 824 l 956 679 q 847 862 933 793 q 614 931 761 931 q 405 877 504 931 q 236 723 306 824 q 143 489 167 622 q 133 388 133 439 q 175 207 133 283 q 290 90 217 131 q 460 49 364 49 q 716 117 606 49 q 889 299 826 185 l 953 299 q 751 72 879 154 q 450 -10 622 -10 q 248 39 335 -10 q 115 176 161 88 q 68 381 68 264 q 78 489 68 436 q 181 747 103 633 q 376 925 260 861 q 625 989 492 989 z "},"D":{"ha":982,"x_min":26,"x_max":915,"o":"m 904 490 q 707 129 863 258 q 301 0 551 0 l 26 0 l 199 979 l 474 979 q 803 882 690 979 q 915 607 915 785 q 904 490 915 557 m 308 57 q 669 171 533 57 q 840 490 806 285 q 850 596 850 543 q 752 838 850 753 q 461 924 654 924 l 251 924 l 99 57 l 308 57 z "},"E":{"ha":679,"x_min":26,"x_max":699,"o":"m 251 926 l 181 515 l 575 515 l 565 465 l 169 465 l 97 53 l 535 53 l 526 0 l 26 0 l 199 979 l 699 979 l 689 926 l 251 926 z "},"F":{"ha":669,"x_min":26,"x_max":703,"o":"m 703 979 l 694 926 l 251 926 l 179 514 l 572 514 l 563 464 l 169 464 l 89 0 l 26 0 l 199 979 l 703 979 z "},"G":{"ha":1093,"x_min":68,"x_max":1021,"o":"m 636 988 q 897 905 797 988 q 1021 682 996 822 l 956 682 q 848 861 933 793 q 626 929 763 929 q 410 876 513 929 q 238 722 308 822 q 143 489 167 622 q 133 388 133 426 q 176 203 133 281 q 297 86 219 126 q 475 46 374 46 q 684 96 585 46 q 855 239 783 146 q 954 458 926 332 l 521 458 l 529 507 l 1018 507 l 1010 460 q 903 217 982 324 q 710 49 825 110 q 461 -11 596 -11 q 253 38 342 -11 q 116 176 164 88 q 68 383 68 265 q 78 490 68 438 q 183 748 103 635 q 381 924 263 861 q 636 988 500 988 z "},"H":{"ha":919,"x_min":26,"x_max":894,"o":"m 894 979 l 722 0 l 658 0 l 742 476 l 172 476 l 89 0 l 26 0 l 199 979 l 261 979 l 182 529 l 751 529 l 831 979 l 894 979 z "},"I":{"ha":288,"x_min":26,"x_max":261,"o":"m 261 979 l 89 0 l 26 0 l 199 979 l 261 979 z "},"J":{"ha":621,"x_min":-8,"x_max":603,"o":"m 603 979 l 468 218 q 378 53 450 117 q 197 -10 306 -10 q 45 42 99 -10 q -8 189 -8 94 q -1 257 -8 218 l 61 257 q 56 197 56 229 q 92 88 56 128 q 206 47 128 47 q 344 97 296 47 q 406 218 393 147 l 540 979 l 603 979 z "},"K":{"ha":732,"x_min":26,"x_max":792,"o":"m 226 490 l 619 0 l 540 0 l 171 465 l 89 0 l 26 0 l 199 979 l 261 979 l 179 513 l 713 979 l 792 979 l 226 490 z "},"L":{"ha":568,"x_min":26,"x_max":463,"o":"m 97 51 l 463 51 l 454 0 l 26 0 l 199 979 l 261 979 l 97 51 z "},"M":{"ha":1133,"x_min":28,"x_max":1106,"o":"m 1106 954 l 938 0 l 875 0 l 1024 843 l 513 0 l 456 0 l 238 840 l 92 0 l 28 0 l 196 954 l 267 954 l 499 79 l 1035 954 l 1106 954 z "},"N":{"ha":922,"x_min":26,"x_max":896,"o":"m 724 0 l 661 0 l 243 872 l 89 0 l 26 0 l 199 978 l 261 978 l 679 106 l 833 978 l 896 978 l 724 0 z "},"O":{"ha":1097,"x_min":69,"x_max":1028,"o":"m 631 988 q 840 938 750 988 q 979 799 931 889 q 1028 590 1028 708 q 1018 482 1028 535 q 915 226 993 339 q 719 51 836 114 q 467 -11 601 -11 q 256 38 346 -11 q 117 178 165 88 q 69 386 69 268 q 79 496 69 443 q 183 751 104 639 q 378 925 261 863 q 631 988 496 988 m 625 931 q 409 877 511 931 q 236 724 307 824 q 142 490 165 624 q 132 390 132 429 q 175 207 132 285 q 295 88 218 129 q 472 47 372 47 q 688 101 586 47 q 861 254 790 154 q 956 488 932 354 q 964 586 964 540 q 922 769 964 692 q 802 889 879 847 q 625 931 725 931 z "},"P":{"ha":754,"x_min":26,"x_max":746,"o":"m 164 425 l 89 0 l 26 0 l 199 979 l 468 979 q 678 923 611 979 q 746 763 746 867 q 740 700 746 729 q 622 495 717 565 q 371 425 528 425 l 164 425 m 376 481 q 586 538 515 481 q 676 700 657 594 q 682 758 682 742 q 628 881 682 839 q 456 924 575 924 l 251 924 l 174 481 l 376 481 z "},"Q":{"ha":1097,"x_min":71,"x_max":1029,"o":"m 1019 482 q 905 210 993 328 q 688 35 817 93 l 926 -201 l 839 -201 l 628 13 q 468 -11 549 -11 q 257 38 347 -11 q 119 178 167 88 q 71 386 71 268 q 81 496 71 443 q 184 751 106 639 q 380 925 263 863 q 632 988 497 988 q 842 938 751 988 q 981 799 932 889 q 1029 590 1029 708 q 1019 482 1029 535 m 474 47 q 690 101 588 47 q 863 254 792 154 q 957 488 933 354 q 965 586 965 540 q 923 769 965 692 q 803 889 881 847 q 626 931 726 931 q 410 877 513 931 q 238 724 308 824 q 143 490 167 624 q 133 390 133 429 q 176 207 133 285 q 297 88 219 129 q 474 47 374 47 z "},"R":{"ha":767,"x_min":26,"x_max":749,"o":"m 472 979 q 681 922 613 979 q 749 761 749 864 q 743 696 749 725 q 636 499 721 571 q 414 418 551 428 l 628 0 l 556 0 l 344 417 l 163 417 l 89 0 l 26 0 l 199 979 l 472 979 m 679 694 q 685 751 685 736 q 460 922 685 922 l 251 922 l 171 468 l 379 468 q 679 694 639 468 z "},"S":{"ha":760,"x_min":36,"x_max":708,"o":"m 639 225 q 592 112 629 165 q 488 24 554 58 q 332 -10 422 -10 q 170 26 238 -10 q 69 121 103 63 q 39 244 36 179 l 104 244 q 124 152 103 199 q 199 74 146 106 q 336 42 251 42 q 497 94 435 42 q 572 228 558 147 q 576 278 576 256 q 547 379 576 340 q 473 440 517 418 q 354 488 429 461 q 228 538 275 515 q 150 605 182 561 q 118 718 118 649 q 124 779 118 750 q 221 931 140 872 q 426 989 301 989 q 581 957 518 989 q 674 874 643 925 q 708 765 706 822 l 643 765 q 618 844 640 804 q 547 910 596 883 q 422 938 499 938 q 267 894 331 938 q 190 774 204 851 q 186 728 186 749 q 215 633 186 669 q 287 576 244 597 q 401 531 329 556 q 529 479 481 504 q 611 408 578 454 q 644 289 644 363 q 639 225 644 257 z "},"T":{"ha":678,"x_min":103,"x_max":739,"o":"m 739 979 l 729 926 l 447 926 l 285 0 l 221 0 l 385 926 l 103 926 l 113 979 l 739 979 z "},"U":{"ha":889,"x_min":76,"x_max":872,"o":"m 256 979 l 150 378 q 140 276 140 325 q 201 103 140 158 q 369 49 261 49 q 585 128 497 49 q 703 378 672 207 l 808 979 l 872 979 l 765 378 q 623 86 731 182 q 360 -10 515 -10 q 152 58 228 -10 q 76 265 76 126 q 88 378 76 314 l 193 979 l 256 979 z "},"V":{"ha":885,"x_min":122,"x_max":935,"o":"m 193 979 l 368 81 l 864 979 l 935 979 l 393 0 l 318 0 l 122 979 l 193 979 z "},"W":{"ha":1290,"x_min":133,"x_max":1328,"o":"m 1328 979 l 899 0 l 826 0 l 715 883 l 292 0 l 219 0 l 133 979 l 204 979 l 272 90 l 696 979 l 767 979 l 876 90 l 1257 979 l 1328 979 z "},"X":{"ha":740,"x_min":-49,"x_max":786,"o":"m 407 489 l 618 0 l 544 0 l 356 439 l 24 0 l -49 0 l 331 497 l 122 979 l 196 979 l 383 546 l 715 979 l 786 979 l 407 489 z "},"Y":{"ha":757,"x_min":122,"x_max":806,"o":"m 806 979 l 394 396 l 325 0 l 263 0 l 332 396 l 122 979 l 196 979 l 374 463 l 733 979 l 806 979 z "},"Z":{"ha":701,"x_min":-35,"x_max":724,"o":"m 43 54 l 574 54 l 564 0 l -35 0 l -26 53 l 646 924 l 144 924 l 153 979 l 724 979 l 715 925 l 43 54 z "},"[":{"ha":358,"x_min":-15,"x_max":435,"o":"m 435 1303 l 425 1250 l 306 1250 l 56 -171 l 175 -171 l 167 -224 l -15 -224 l 254 1303 l 435 1303 z "},"\\":{"ha":729,"x_min":206,"x_max":471,"o":"m 408 -224 l 206 1303 l 271 1303 l 471 -224 l 408 -224 z "},"]":{"ha":358,"x_min":-76,"x_max":374,"o":"m -76 -224 l -67 -171 l 53 -171 l 304 1250 l 183 1250 l 193 1303 l 374 1303 l 104 -224 l -76 -224 z "},"^":{"ha":803,"x_min":-10,"x_max":686,"o":"m 53 240 l -10 240 l 439 954 l 490 954 l 686 240 l 624 240 l 451 874 l 53 240 z "},"_":{"ha":775,"x_min":42,"x_max":721,"o":"m 721 -44 l 708 -103 l 42 -103 l 53 -44 l 721 -44 z "},"`":{"ha":381,"x_min":143,"x_max":394,"o":"m 394 867 l 385 817 l 143 992 l 154 1049 l 394 867 z "},"a":{"ha":935,"x_min":68,"x_max":889,"o":"m 504 764 q 701 699 628 764 q 788 529 775 635 l 828 754 l 889 754 l 756 0 l 693 0 l 733 225 q 589 55 686 119 q 368 -10 492 -10 q 149 69 229 -10 q 68 289 68 149 q 76 381 68 333 q 158 584 97 497 q 309 717 219 671 q 504 764 399 764 m 508 708 q 267 619 367 708 q 140 378 167 531 q 133 297 133 343 q 201 113 133 179 q 392 46 269 46 q 558 87 481 46 q 690 203 636 128 q 761 378 743 279 q 768 451 768 419 q 697 639 768 569 q 508 708 626 708 z "},"b":{"ha":933,"x_min":25,"x_max":844,"o":"m 25 0 l 207 1028 l 268 1028 l 181 529 q 325 699 228 635 q 544 764 422 764 q 764 685 683 764 q 844 469 844 607 q 836 378 844 426 q 754 172 815 260 q 603 37 693 83 q 408 -10 514 -10 q 212 55 285 -10 q 126 225 139 119 l 86 0 l 25 0 m 404 46 q 647 135 547 46 q 774 378 747 224 q 781 457 781 413 q 713 642 781 575 q 522 708 644 708 q 355 667 433 708 q 223 551 276 626 q 153 378 169 476 q 146 303 146 333 q 217 115 146 185 q 404 46 288 46 z "},"c":{"ha":871,"x_min":68,"x_max":815,"o":"m 510 764 q 735 690 654 764 q 813 493 815 615 l 747 493 q 682 651 749 593 q 501 710 615 710 q 344 674 419 710 q 215 563 269 638 q 140 378 160 488 q 132 294 132 332 q 203 109 132 172 q 383 46 274 46 q 585 104 497 46 q 708 263 674 163 l 774 263 q 624 65 731 139 q 375 -10 518 -10 q 151 70 235 -10 q 68 290 68 150 q 76 381 68 333 q 160 585 97 499 q 313 718 222 672 q 510 764 404 764 z "},"d":{"ha":933,"x_min":47,"x_max":917,"o":"m 917 1028 l 735 0 l 672 0 l 713 225 q 567 55 664 119 q 347 -10 471 -10 q 128 70 210 -10 q 47 290 47 150 q 56 381 47 333 q 138 584 76 497 q 288 717 199 671 q 483 764 378 764 q 681 699 607 764 q 767 529 754 635 l 854 1028 l 917 1028 m 488 708 q 246 619 346 708 q 119 378 146 531 q 113 297 113 343 q 181 113 113 179 q 371 46 249 46 q 538 87 460 46 q 669 203 615 128 q 740 378 722 279 q 747 450 747 419 q 676 638 747 568 q 488 708 606 708 z "},"e":{"ha":871,"x_min":68,"x_max":810,"o":"m 511 764 q 676 727 608 764 q 776 629 743 690 q 810 493 810 568 q 804 433 810 472 q 785 360 794 382 l 135 360 q 129 290 129 326 q 201 106 129 168 q 381 43 272 43 q 583 101 494 43 q 706 258 671 158 l 771 258 q 624 64 729 138 q 374 -10 518 -10 q 151 69 235 -10 q 68 289 68 149 q 76 379 68 332 q 160 585 97 497 q 313 718 222 672 q 511 764 404 764 m 736 397 q 747 486 747 449 q 676 655 747 597 q 501 713 606 713 q 346 678 421 713 q 216 572 271 643 q 142 397 161 501 l 736 397 z "},"f":{"ha":453,"x_min":53,"x_max":500,"o":"m 490 981 q 325 938 378 981 q 256 796 272 894 l 249 754 l 450 754 l 440 697 l 238 697 l 115 0 l 53 0 l 175 697 l 57 697 l 68 754 l 185 754 l 193 800 q 287 980 214 921 q 500 1038 360 1039 l 490 981 z "},"g":{"ha":933,"x_min":39,"x_max":892,"o":"m 374 -11 q 153 69 235 -11 q 72 289 72 149 q 81 381 72 333 q 163 585 101 497 q 313 719 224 672 q 508 765 403 765 q 706 700 632 765 q 792 529 781 635 l 832 754 l 892 754 l 754 -22 q 677 -206 736 -126 q 533 -327 618 -285 q 356 -369 449 -369 q 133 -301 214 -369 q 39 -114 53 -232 l 101 -114 q 181 -260 115 -207 q 363 -314 246 -314 q 512 -279 442 -314 q 631 -178 582 -244 q 694 -22 679 -112 l 739 225 q 592 54 689 119 q 374 -11 496 -11 m 513 710 q 271 621 371 710 q 144 378 171 532 q 136 297 136 335 q 206 113 136 179 q 396 47 275 47 q 563 88 485 47 q 694 204 640 129 q 765 378 747 279 q 772 449 772 419 q 701 639 772 568 q 513 710 629 710 z "},"h":{"ha":867,"x_min":49,"x_max":783,"o":"m 535 769 q 715 709 647 769 q 783 528 783 649 q 775 440 783 489 l 699 0 l 638 0 l 714 438 q 721 511 721 482 q 665 664 721 611 q 508 717 608 717 q 298 637 386 717 q 182 401 210 557 l 182 403 l 111 0 l 49 0 l 229 1028 l 292 1028 l 208 554 q 344 715 256 661 q 535 769 432 769 z "},"i":{"ha":286,"x_min":43,"x_max":303,"o":"m 193 971 q 213 1015 193 997 q 257 1033 232 1033 q 290 1022 276 1033 q 303 992 303 1010 q 284 947 303 964 q 239 929 265 929 q 206 941 219 929 q 193 971 193 953 m 239 754 l 106 0 l 43 0 l 176 754 l 239 754 z "},"j":{"ha":299,"x_min":-171,"x_max":313,"o":"m 249 929 q 216 941 229 929 q 203 971 203 953 q 222 1015 203 997 q 267 1033 242 1033 q 299 1022 286 1033 q 313 992 313 1010 q 294 947 313 964 q 249 929 275 929 m -160 -299 l -108 -299 q -22 -274 -51 -299 q 21 -185 8 -249 l 186 754 l 249 754 l 82 -192 q -114 -356 54 -356 l -171 -356 l -160 -299 z "},"k":{"ha":597,"x_min":25,"x_max":621,"o":"m 197 383 l 496 0 l 414 0 l 149 351 l 88 0 l 25 0 l 206 1028 l 268 1028 l 161 418 l 540 754 l 621 754 l 197 383 z "},"l":{"ha":286,"x_min":49,"x_max":292,"o":"m 292 1028 l 111 0 l 49 0 l 229 1028 l 292 1028 z "},"m":{"ha":1406,"x_min":44,"x_max":1319,"o":"m 1081 769 q 1254 708 1189 769 q 1319 526 1319 647 q 1311 440 1319 486 l 1232 0 l 1171 0 l 1249 438 q 1256 513 1256 483 q 1203 663 1256 611 q 1057 714 1151 714 q 856 636 940 714 q 742 408 771 558 l 669 0 l 608 0 l 685 438 q 692 515 692 472 q 640 663 692 613 q 494 714 588 714 q 294 638 378 714 q 181 414 210 563 l 107 0 l 44 0 l 178 754 l 240 754 l 206 557 q 335 716 250 663 q 519 769 419 769 q 686 713 622 769 q 756 546 750 657 q 890 713 801 657 q 1081 769 978 769 z "},"n":{"ha":867,"x_min":44,"x_max":781,"o":"m 531 769 q 713 708 644 769 q 781 525 781 646 q 772 440 781 486 l 694 0 l 632 0 l 710 438 q 717 511 717 482 q 660 664 717 611 q 504 717 604 717 q 297 640 383 717 q 181 415 210 564 l 107 0 l 44 0 l 178 754 l 240 754 l 204 554 q 339 715 250 660 q 531 769 428 769 z "},"o":{"ha":897,"x_min":68,"x_max":829,"o":"m 517 764 q 744 683 658 764 q 829 461 829 603 q 821 374 829 419 q 736 169 800 256 q 580 36 672 82 q 382 -10 488 -10 q 154 71 240 -10 q 68 294 68 151 q 76 381 68 335 q 161 585 97 497 q 318 718 225 672 q 517 764 411 764 m 508 708 q 349 672 425 708 q 216 562 272 636 q 140 378 160 488 q 132 297 132 335 q 206 110 132 175 q 390 46 279 46 q 549 82 472 46 q 681 193 625 118 q 757 378 738 268 q 765 458 765 422 q 692 644 765 581 q 508 708 619 708 z "},"p":{"ha":933,"x_min":-15,"x_max":868,"o":"m 568 764 q 788 685 707 764 q 868 467 868 606 q 860 378 868 426 q 778 172 839 260 q 626 37 717 83 q 431 -10 536 -10 q 234 55 308 -10 q 149 225 160 119 l 46 -356 l -15 -356 l 181 754 l 242 754 l 203 529 q 348 699 251 635 q 568 764 444 764 m 428 46 q 669 135 569 46 q 796 378 768 224 q 803 457 803 413 q 735 642 803 575 q 544 708 667 708 q 378 667 456 708 q 247 551 300 626 q 176 378 193 476 q 169 303 169 333 q 240 115 169 185 q 428 46 311 46 z "},"q":{"ha":933,"x_min":58,"x_max":878,"o":"m 878 754 l 682 -356 l 621 -356 l 724 222 q 578 53 674 117 q 361 -10 483 -10 q 140 69 222 -10 q 58 289 58 149 q 67 381 58 333 q 149 584 88 497 q 301 717 210 671 q 497 764 392 764 q 692 701 618 764 q 779 535 765 639 l 817 754 l 878 754 m 497 708 q 257 619 357 708 q 131 376 157 531 q 122 296 122 333 q 191 111 122 176 q 382 46 260 46 q 548 87 469 46 q 680 203 626 128 q 751 378 733 279 q 758 449 758 419 q 687 638 758 568 q 497 708 615 708 z "},"r":{"ha":492,"x_min":44,"x_max":535,"o":"m 211 588 q 338 723 256 676 q 535 769 419 769 l 522 701 l 500 701 q 297 638 386 701 q 183 431 208 574 l 107 0 l 44 0 l 178 754 l 240 754 l 211 588 z "},"s":{"ha":664,"x_min":33,"x_max":624,"o":"m 354 764 q 555 701 486 764 q 619 528 624 638 l 558 528 q 510 662 563 608 q 347 715 457 715 q 210 671 261 715 q 160 556 160 626 q 185 483 160 511 q 247 440 210 456 q 347 407 283 425 q 465 366 421 386 q 541 308 510 346 q 572 208 572 271 q 567 157 572 196 q 489 36 553 82 q 324 -10 425 -10 q 110 53 188 -10 q 38 226 33 117 l 100 226 q 152 92 93 146 q 332 39 211 39 q 451 73 404 39 q 507 161 497 107 q 510 197 510 174 q 483 279 510 247 q 416 328 456 311 q 311 363 376 344 q 199 401 240 383 q 129 454 158 419 q 100 546 100 489 q 104 592 100 567 q 185 717 118 671 q 354 764 251 764 z "},"t":{"ha":486,"x_min":67,"x_max":481,"o":"m 163 213 q 157 154 157 183 q 186 78 157 100 q 281 57 215 57 l 358 57 l 349 0 l 263 0 q 135 33 176 0 q 93 142 93 65 q 100 213 93 168 l 185 697 l 67 697 l 76 754 l 196 754 l 229 946 l 293 946 l 258 754 l 481 754 l 471 697 l 249 697 l 163 213 z "},"u":{"ha":847,"x_min":67,"x_max":804,"o":"m 804 754 l 669 0 l 607 0 l 642 197 q 507 39 594 93 q 317 -15 419 -15 q 135 47 203 -15 q 67 231 67 108 q 75 315 67 269 l 154 754 l 215 754 l 138 317 q 131 243 131 272 q 187 91 131 143 q 343 39 243 39 q 554 119 467 39 q 669 354 642 199 l 740 754 l 804 754 z "},"v":{"ha":738,"x_min":88,"x_max":778,"o":"m 315 79 l 711 754 l 778 754 l 332 0 l 265 0 l 88 754 l 156 754 l 315 79 z "},"w":{"ha":1129,"x_min":88,"x_max":1172,"o":"m 1172 754 l 808 0 l 747 0 l 615 672 l 244 0 l 183 0 l 88 754 l 153 754 l 232 78 l 600 754 l 663 754 l 792 78 l 1110 754 l 1172 754 z "},"x":{"ha":618,"x_min":-44,"x_max":653,"o":"m 346 378 l 526 0 l 454 0 l 294 332 l 25 0 l -44 0 l 269 388 l 93 754 l 165 754 l 321 431 l 585 754 l 653 754 l 346 378 z "},"y":{"ha":728,"x_min":56,"x_max":761,"o":"m 147 754 l 313 83 l 692 754 l 761 754 l 128 -356 l 56 -356 l 264 4 l 78 754 l 147 754 z "},"z":{"ha":585,"x_min":-28,"x_max":597,"o":"m 51 54 l 489 54 l 478 0 l -28 0 l -17 53 l 517 700 l 110 700 l 119 754 l 597 754 l 588 703 l 51 54 z "},"{":{"ha":446,"x_min":51,"x_max":547,"o":"m 106 515 q 205 455 172 500 q 238 347 238 410 q 232 294 238 331 q 196 175 225 249 q 167 92 178 126 q 147 10 156 57 q 142 -54 142 -19 q 177 -199 142 -137 q 260 -294 213 -261 l 258 -301 l 194 -301 q 117 -214 154 -276 q 79 -58 79 -151 q 86 18 79 -17 q 103 93 93 58 q 133 176 114 128 q 169 296 163 256 q 175 349 175 326 q 51 496 175 458 l 58 538 q 198 618 158 565 q 249 738 238 671 q 254 811 254 771 l 253 906 q 261 1015 253 967 q 353 1221 283 1140 q 483 1335 422 1301 l 547 1335 l 546 1328 q 410 1209 475 1289 q 325 1024 344 1129 q 315 907 315 971 l 317 858 q 318 814 318 843 q 311 739 318 774 q 244 597 296 657 q 106 518 193 536 l 106 515 z "},"|":{"ha":276,"x_min":0,"x_max":276,"o":"m 63 -129 l 0 -129 l 214 1089 l 276 1089 l 63 -129 z "},"}":{"ha":453,"x_min":-90,"x_max":406,"o":"m 351 518 q 253 578 285 533 q 221 686 221 622 q 225 735 221 710 q 240 794 229 764 q 261 853 250 825 q 310 1019 296 942 q 315 1085 315 1049 q 280 1231 315 1168 q 197 1328 244 1294 l 200 1335 l 263 1335 q 341 1247 303 1310 q 379 1090 379 1185 q 372 1015 379 1060 q 355 940 365 975 q 325 857 344 906 q 288 738 296 783 q 282 685 282 707 q 406 538 282 575 l 399 496 q 261 416 300 469 q 210 296 222 363 q 204 222 204 263 l 206 128 q 197 18 206 67 q 105 -187 175 -107 q -26 -301 35 -268 l -90 -301 l -87 -294 q 49 -174 -17 -256 q 133 14 114 -92 q 143 131 143 68 l 142 179 q 140 222 140 194 q 147 299 140 264 q 214 438 163 379 q 351 515 265 497 l 351 518 z "},"~":{"ha":624,"x_min":39,"x_max":586,"o":"m 215 524 q 274 510 249 524 q 329 474 300 497 q 378 441 358 451 q 425 431 399 431 q 490 457 461 431 q 533 524 518 483 l 586 524 q 515 410 560 450 q 410 371 469 371 q 351 383 376 371 q 294 421 326 396 q 245 453 265 443 q 199 464 225 464 q 135 438 164 464 q 92 371 106 411 l 39 371 q 109 484 64 444 q 215 524 154 524 z "}," ":{"ha":382,"x_min":0,"x_max":0,"o":""},"¡":{"ha":353,"x_min":33,"x_max":306,"o":"m 34 -217 l 184 518 l 234 518 l 109 -217 l 34 -217 m 182 674 l 200 769 l 306 769 l 287 674 l 182 674 z "},"¢":{"ha":815,"x_min":71,"x_max":757,"o":"m 694 450 q 634 608 696 550 q 469 665 572 665 q 324 633 393 665 q 206 535 256 601 q 139 372 156 469 q 132 303 132 331 q 199 136 132 193 q 367 79 265 79 q 551 137 469 79 q 667 294 632 194 l 726 294 q 592 102 689 175 q 367 26 496 29 l 340 -128 l 300 -128 l 326 28 q 140 106 208 36 q 71 294 71 176 q 78 372 71 326 q 206 617 104 525 q 449 717 307 708 l 474 860 l 514 860 l 489 718 q 687 642 617 715 q 754 450 757 569 l 694 450 z "},"£":{"ha":771,"x_min":60,"x_max":778,"o":"m 522 999 q 714 922 650 999 q 769 725 778 844 l 710 725 q 664 883 717 821 q 514 944 611 944 q 353 889 425 944 q 263 728 281 833 q 257 657 257 694 q 267 555 257 607 q 278 493 276 503 l 542 493 l 533 446 l 286 446 q 293 368 293 401 q 288 306 293 333 q 237 175 275 235 q 129 53 199 115 l 644 53 l 635 -1 l 61 -1 l 60 40 q 175 167 135 113 q 228 299 215 222 q 232 356 232 328 q 224 446 232 400 l 60 446 l 68 493 l 215 493 q 194 651 194 588 q 201 732 194 697 q 308 924 222 850 q 522 999 393 999 z "},"¤":{"ha":714,"x_min":56,"x_max":656,"o":"m 556 683 q 583 575 583 636 q 579 524 583 551 q 501 368 564 435 l 571 285 l 535 256 l 467 336 q 314 283 396 283 q 178 336 228 283 l 82 256 l 56 285 l 154 367 q 129 469 129 413 q 135 524 129 488 q 211 682 151 618 l 140 767 l 176 796 l 246 713 q 399 765 317 765 q 532 713 479 765 l 631 796 l 656 767 l 556 683 m 526 524 q 531 568 531 547 q 491 679 531 638 q 392 721 451 721 q 262 667 318 721 q 189 524 206 614 q 185 474 185 497 q 222 365 185 404 q 322 326 260 326 q 451 380 392 326 q 526 524 510 433 z "},"¥":{"ha":811,"x_min":63,"x_max":836,"o":"m 497 499 l 721 499 l 713 453 l 465 453 l 425 396 l 413 325 l 690 325 l 682 276 l 404 276 l 356 0 l 292 0 l 342 276 l 63 276 l 71 325 l 350 325 l 363 396 l 342 453 l 94 453 l 103 499 l 325 499 l 153 979 l 226 979 l 403 457 l 764 979 l 836 979 l 497 499 z "},"¦":{"ha":306,"x_min":14,"x_max":292,"o":"m 229 1089 l 292 1089 l 203 589 l 140 589 l 229 1089 m 78 -129 l 14 -129 l 103 372 l 165 372 l 78 -129 z "},"§":{"ha":792,"x_min":51,"x_max":740,"o":"m 674 796 q 658 885 678 843 q 588 956 638 928 q 457 985 539 985 q 319 952 374 985 q 251 856 264 919 q 249 829 249 839 q 297 734 249 772 q 454 665 346 696 q 651 583 583 629 q 719 449 719 536 q 715 407 719 428 q 666 301 706 350 q 562 218 626 251 q 413 179 497 185 q 553 111 500 154 q 606 -4 606 68 q 533 -160 606 -100 q 326 -219 460 -219 q 124 -156 196 -219 q 56 19 51 -93 l 118 19 q 166 -117 115 -62 q 336 -171 217 -171 q 485 -131 428 -171 q 543 -11 543 -90 q 496 83 543 46 q 338 150 449 119 q 141 232 210 185 q 72 365 72 279 q 110 490 72 429 q 218 590 147 550 q 385 633 289 629 q 240 704 294 660 q 185 821 185 749 q 188 853 185 831 q 274 984 201 935 q 467 1033 346 1033 q 669 970 597 1033 q 736 796 740 907 l 674 796 m 653 438 q 594 553 653 510 q 426 596 536 596 q 274 565 339 596 q 174 483 208 533 q 139 376 139 432 q 198 262 139 304 q 365 219 257 219 q 518 250 453 219 q 618 331 583 281 q 653 438 653 382 z "},"¨":{"ha":460,"x_min":158,"x_max":467,"o":"m 161 921 q 183 957 165 942 q 222 972 200 972 q 256 957 243 972 q 264 921 268 942 q 243 885 261 900 q 204 869 225 869 q 170 885 182 869 q 161 921 158 900 m 363 911 q 381 953 363 935 q 424 972 400 972 q 454 960 442 972 q 467 931 467 949 q 448 888 467 907 q 406 869 429 869 q 375 881 388 869 q 363 911 363 893 z "},"©":{"ha":1110,"x_min":68,"x_max":1042,"o":"m 642 978 q 381 916 500 978 q 183 743 263 854 q 78 490 103 632 q 68 389 68 429 q 117 186 68 274 q 256 50 165 99 q 469 1 347 1 q 731 64 611 1 q 928 238 850 126 q 1032 490 1007 349 q 1042 593 1042 554 q 993 795 1042 708 q 854 930 944 882 q 642 978 764 978 m 636 944 q 835 900 751 944 q 961 774 918 856 q 1004 588 1004 693 q 996 490 1004 540 q 900 256 972 360 q 717 93 828 151 q 475 35 607 35 q 276 79 360 35 q 149 204 193 124 q 106 390 106 285 q 115 490 106 429 q 210 724 138 621 q 392 886 282 828 q 636 944 503 944 m 618 818 q 786 760 718 818 q 863 597 854 703 l 806 597 q 740 724 794 679 q 607 768 685 768 q 481 736 542 768 q 375 641 419 704 q 315 489 331 578 q 308 421 308 450 q 366 266 308 321 q 510 211 424 211 q 657 256 588 211 q 767 382 726 300 l 824 382 q 691 220 779 278 q 503 163 603 163 q 324 228 393 163 q 254 413 254 293 q 261 492 254 457 q 333 668 279 594 q 461 780 386 742 q 618 818 536 818 z "},"ª":{"ha":607,"x_min":47,"x_max":574,"o":"m 322 985 q 444 947 400 985 q 497 843 489 910 l 521 978 l 574 978 l 488 492 l 435 492 l 458 625 q 369 520 428 558 q 233 482 311 482 q 97 534 147 482 q 47 674 47 586 q 53 733 47 706 q 147 916 72 847 q 322 985 221 985 m 325 940 q 184 884 244 940 q 106 733 124 828 q 101 685 101 708 q 142 569 101 611 q 251 528 182 528 q 399 585 336 528 q 478 735 463 642 q 482 782 482 760 q 440 897 482 854 q 325 940 397 940 z "},"«":{"ha":563,"x_min":63,"x_max":538,"o":"m 163 167 l 63 410 l 249 653 l 317 653 l 128 410 l 231 167 l 163 167 m 383 167 l 283 410 l 469 653 l 538 653 l 349 410 l 451 167 l 383 167 z "},"¬":{"ha":999,"x_min":89,"x_max":956,"o":"m 956 593 l 910 338 l 849 338 l 885 540 l 89 540 l 99 593 l 956 593 z "},"­":{"ha":640,"x_min":78,"x_max":611,"o":"m 611 549 l 601 494 l 78 494 l 89 549 l 611 549 z "},"®":{"ha":1099,"x_min":68,"x_max":1031,"o":"m 636 979 q 846 933 757 979 q 983 802 935 888 q 1031 601 1031 717 q 1021 492 1031 546 q 917 238 996 350 q 719 63 838 126 q 464 0 601 0 q 253 49 343 0 q 116 185 164 97 q 68 389 68 274 q 78 492 68 429 q 183 748 104 638 q 380 919 263 858 q 636 979 497 979 m 985 492 q 994 594 994 556 q 899 851 994 757 q 631 946 803 946 q 390 890 499 946 q 210 731 281 833 q 115 492 139 628 q 106 390 106 431 q 202 138 106 231 q 472 44 299 44 q 711 100 603 44 q 890 257 819 156 q 985 492 961 358 m 633 826 q 772 790 726 826 q 818 690 818 754 q 815 654 818 667 q 744 528 801 574 q 592 479 686 483 l 735 197 l 681 197 l 540 479 l 417 479 l 367 197 l 319 197 l 429 826 l 633 826 m 767 650 q 769 683 769 663 q 735 758 769 733 q 624 783 700 783 l 469 783 l 424 517 l 576 517 q 709 551 664 517 q 767 650 754 586 z "},"¯":{"ha":551,"x_min":129,"x_max":589,"o":"m 589 957 l 579 908 l 129 908 l 139 957 l 589 957 z "},"°":{"ha":519,"x_min":35,"x_max":483,"o":"m 301 964 q 435 915 386 964 q 483 781 483 865 q 478 724 483 750 q 388 548 458 614 q 218 482 317 482 q 84 532 133 482 q 35 668 35 582 q 40 724 35 685 q 131 898 60 832 q 301 964 203 964 m 294 922 q 165 869 219 922 q 94 724 111 817 q 89 671 89 685 q 125 563 89 601 q 225 524 161 524 q 355 576 301 524 q 425 724 408 629 q 431 776 431 763 q 394 884 431 846 q 294 922 357 922 z "},"±":{"ha":811,"x_min":-12,"x_max":776,"o":"m 776 592 l 767 535 l 443 535 l 389 226 l 328 226 l 382 535 l 60 535 l 69 592 l 392 592 l 443 881 l 504 881 l 453 592 l 776 592 m -3 185 l 704 185 l 694 128 l -12 128 l -3 185 z "},"²":{"ha":439,"x_min":14,"x_max":394,"o":"m 392 847 q 341 740 382 788 q 224 638 300 693 l 82 532 l 350 532 l 342 489 l 14 489 l 18 522 l 207 672 q 296 756 263 717 q 338 844 329 794 q 340 868 340 861 q 317 924 340 906 q 258 942 294 942 q 174 912 208 942 q 124 825 139 882 l 71 825 q 139 938 88 893 q 269 983 190 983 q 361 954 328 983 q 394 876 394 925 q 392 847 394 867 z "},"³":{"ha":438,"x_min":28,"x_max":406,"o":"m 269 983 q 368 953 331 983 q 406 872 406 924 q 375 785 406 822 q 289 733 344 747 l 288 731 q 346 697 325 721 q 367 638 367 674 q 344 563 367 599 q 279 504 322 526 q 178 482 236 482 q 63 517 99 482 q 31 624 28 553 l 85 624 q 108 547 82 569 q 182 524 133 524 q 269 549 236 524 q 310 618 303 574 q 313 639 313 632 q 284 695 313 675 q 210 715 256 715 l 131 715 l 136 747 l 218 747 q 303 773 268 747 q 349 844 339 799 q 350 863 350 850 q 326 919 350 899 q 258 940 301 940 q 175 917 208 940 q 125 853 142 894 l 74 853 q 144 947 94 911 q 269 983 193 983 z "},"´":{"ha":374,"x_min":113,"x_max":426,"o":"m 415 992 l 113 817 l 122 867 l 426 1049 l 415 992 z "},"µ":{"ha":874,"x_min":10,"x_max":856,"o":"m 856 754 l 722 0 l 660 0 l 694 193 q 565 38 649 90 q 386 -15 482 -15 q 238 26 300 -15 q 163 161 176 67 l 71 -356 l 10 -356 l 206 754 l 267 754 l 199 365 q 190 272 190 315 q 249 99 190 157 q 410 40 307 40 q 610 119 526 40 q 722 354 694 199 l 793 754 l 856 754 z "},"¶":{"ha":729,"x_min":58,"x_max":697,"o":"m 529 0 l 475 0 l 633 904 l 492 904 l 333 0 l 278 0 l 350 407 l 343 407 q 130 465 201 407 q 58 625 58 524 q 64 681 58 642 q 183 880 86 806 q 439 954 281 954 l 697 954 l 529 0 z "},"·":{"ha":190,"x_min":85,"x_max":200,"o":"m 200 538 l 183 442 l 85 442 l 101 538 l 200 538 z "},"¸":{"ha":363,"x_min":18,"x_max":304,"o":"m 147 -112 q 262 -135 219 -108 q 304 -215 304 -162 q 256 -319 304 -283 q 128 -356 208 -356 l 18 -356 l 26 -312 l 125 -312 q 251 -240 240 -312 q 253 -221 253 -233 q 153 -153 253 -153 l 93 -153 l 122 10 l 168 10 l 147 -112 z "},"¹":{"ha":236,"x_min":86,"x_max":225,"o":"m 88 933 l 96 978 l 225 978 l 139 489 l 86 489 l 165 933 l 88 933 z "},"º":{"ha":579,"x_min":47,"x_max":538,"o":"m 338 985 q 483 930 429 985 q 538 783 538 875 q 533 731 538 758 q 479 599 521 657 q 378 510 438 542 q 249 478 318 478 q 102 532 157 478 q 47 676 47 586 q 53 731 47 692 q 106 863 65 806 q 208 953 147 921 q 338 985 268 985 m 329 939 q 185 883 249 939 q 106 731 122 828 q 100 679 100 694 q 143 565 100 606 q 256 524 186 524 q 399 578 336 524 q 479 731 463 633 q 485 782 485 767 q 442 897 485 856 q 329 939 399 939 z "},"»":{"ha":563,"x_min":26,"x_max":501,"o":"m 217 410 l 113 653 l 182 653 l 281 410 l 96 167 l 26 167 l 217 410 m 438 410 l 333 653 l 403 653 l 501 410 l 317 167 l 247 167 l 438 410 z "},"¼":{"ha":803,"x_min":25,"x_max":749,"o":"m 749 979 l 86 0 l 25 0 l 688 979 l 749 979 m 136 933 l 144 978 l 274 978 l 188 489 l 135 489 l 214 933 l 136 933 m 682 103 l 608 103 l 592 0 l 538 0 l 556 103 l 311 103 l 319 139 l 621 493 l 678 493 l 617 142 l 689 142 l 682 103 m 613 419 l 375 143 l 565 143 l 613 419 z "},"½":{"ha":882,"x_min":18,"x_max":793,"o":"m 744 979 l 79 0 l 18 0 l 682 979 l 744 979 m 156 489 l 235 933 l 157 933 l 165 978 l 294 978 l 208 489 l 156 489 m 790 357 q 740 250 781 297 q 622 147 699 203 l 481 42 l 749 42 l 740 -1 l 413 -1 l 417 32 l 606 182 q 694 265 661 226 q 736 354 728 304 q 739 378 739 371 q 716 433 739 415 q 657 451 693 451 q 572 422 607 451 q 522 335 538 392 l 469 335 q 538 448 486 403 q 668 493 589 493 q 760 464 726 493 q 793 386 793 435 q 790 357 793 376 z "},"¾":{"ha":825,"x_min":56,"x_max":818,"o":"m 297 983 q 396 953 358 983 q 433 872 433 924 q 403 785 433 822 q 317 733 372 747 l 315 731 q 374 697 353 721 q 394 638 394 674 q 372 563 394 599 q 307 504 350 526 q 206 482 264 482 q 91 517 126 482 q 58 624 56 553 l 113 624 q 135 547 110 569 q 210 524 161 524 q 297 549 264 524 q 338 618 331 574 q 340 639 340 632 q 312 695 340 675 q 238 715 283 715 l 158 715 l 164 747 l 246 747 q 331 773 296 747 q 376 844 367 799 q 378 863 378 850 q 353 919 378 899 q 286 940 329 940 q 203 917 236 940 q 153 853 169 894 l 101 853 q 172 947 122 911 q 297 983 221 983 m 818 979 l 158 0 l 96 0 l 756 979 l 818 979 m 729 103 l 656 103 l 639 0 l 586 0 l 603 103 l 358 103 l 365 139 l 664 493 l 725 493 l 664 142 l 736 142 l 729 103 m 661 422 l 422 142 l 613 142 l 661 422 z "},"¿":{"ha":656,"x_min":-3,"x_max":589,"o":"m 249 -246 q 64 -183 131 -246 q -3 -12 -3 -121 q 3 50 -3 6 q 137 263 28 199 q 410 329 246 328 l 443 518 l 504 518 l 463 283 l 428 283 q 65 50 104 283 q 60 -8 60 22 q 113 -144 60 -96 q 260 -193 165 -193 q 435 -135 368 -193 q 529 24 501 -78 l 589 24 q 470 -175 558 -104 q 249 -246 382 -246 m 447 657 l 464 753 l 564 753 l 546 657 l 447 657 z "},"À":{"ha":865,"x_min":-47,"x_max":744,"o":"m 626 254 l 161 254 l 21 0 l -47 0 l 482 953 l 551 953 l 744 0 l 676 0 l 626 254 m 617 306 l 504 876 l 190 306 l 617 306 m 558 1092 l 549 1042 l 307 1217 l 318 1274 l 558 1092 z "},"Á":{"ha":865,"x_min":-47,"x_max":822,"o":"m 626 254 l 161 254 l 21 0 l -47 0 l 482 953 l 551 953 l 744 0 l 676 0 l 626 254 m 617 306 l 504 876 l 190 306 l 617 306 m 811 1217 l 508 1042 l 518 1092 l 822 1274 l 811 1217 z "},"Â":{"ha":865,"x_min":-44,"x_max":747,"o":"m 629 254 l 164 254 l 24 0 l -44 0 l 485 953 l 554 953 l 747 0 l 679 0 l 629 254 m 619 306 l 507 876 l 193 306 l 619 306 m 564 1194 l 365 1082 l 375 1131 l 574 1244 l 732 1131 l 722 1082 l 564 1194 z "},"Ã":{"ha":865,"x_min":-37,"x_max":754,"o":"m 636 254 l 171 254 l 31 0 l -37 0 l 492 953 l 561 953 l 754 0 l 686 0 l 636 254 m 626 306 l 514 876 l 200 306 l 626 306 m 496 1176 q 537 1167 521 1176 q 572 1140 553 1158 q 604 1115 590 1124 q 639 1107 618 1107 q 683 1124 663 1107 q 713 1172 703 1140 l 753 1172 q 706 1094 739 1124 q 631 1064 672 1064 q 588 1073 604 1064 q 549 1101 571 1082 q 517 1124 529 1117 q 486 1132 504 1132 q 415 1065 436 1132 l 375 1065 q 423 1147 392 1118 q 496 1176 454 1176 z "},"Ä":{"ha":865,"x_min":-40,"x_max":751,"o":"m 633 254 l 168 254 l 28 0 l -40 0 l 489 953 l 558 953 l 751 0 l 683 0 l 633 254 m 624 306 l 511 876 l 197 306 l 624 306 m 410 1146 q 431 1182 414 1167 q 471 1197 449 1197 q 504 1182 492 1197 q 513 1146 517 1167 q 492 1110 510 1125 q 453 1094 474 1094 q 419 1110 431 1094 q 410 1146 407 1125 m 611 1136 q 630 1178 611 1160 q 672 1197 649 1197 q 703 1185 690 1197 q 715 1156 715 1174 q 697 1113 715 1132 q 654 1094 678 1094 q 624 1106 636 1094 q 611 1136 611 1118 z "},"Å":{"ha":865,"x_min":-53,"x_max":739,"o":"m 621 254 l 156 254 l 15 0 l -53 0 l 476 953 l 546 953 l 739 0 l 671 0 l 621 254 m 611 306 l 499 876 l 185 306 l 611 306 m 572 1340 q 653 1312 621 1340 q 685 1235 685 1283 q 682 1208 685 1228 q 626 1111 671 1147 q 526 1075 582 1075 q 445 1103 476 1075 q 414 1182 414 1132 q 417 1208 414 1189 q 472 1304 428 1268 q 572 1340 517 1340 m 567 1303 q 488 1271 521 1303 q 454 1186 454 1239 q 476 1133 454 1153 q 532 1113 497 1113 q 603 1138 572 1113 q 643 1208 635 1164 q 644 1228 644 1215 q 624 1283 644 1263 q 567 1303 603 1303 z "},"Æ":{"ha":1189,"x_min":-74,"x_max":1208,"o":"m 764 926 l 692 517 l 1085 517 l 1075 465 l 682 465 l 610 53 l 1044 53 l 1036 0 l 538 0 l 582 253 l 192 253 l -4 0 l -74 0 l 683 979 l 1208 979 l 1199 926 l 764 926 m 697 904 l 232 304 l 592 304 l 697 904 z "},"Ç":{"ha":1065,"x_min":82,"x_max":1033,"o":"m 639 989 q 911 906 811 989 q 1033 679 1011 824 l 969 679 q 861 862 947 793 q 628 931 775 931 q 419 877 518 931 q 250 723 319 824 q 157 489 181 622 q 147 388 147 439 q 189 207 147 283 q 304 90 231 131 q 474 49 378 49 q 730 117 619 49 q 903 299 840 185 l 967 299 q 765 72 893 154 q 464 -10 636 -10 q 262 39 349 -10 q 128 176 175 88 q 82 381 82 264 q 92 489 82 436 q 195 747 117 633 q 390 925 274 861 q 639 989 506 989 m 504 -112 q 619 -135 576 -108 q 661 -215 661 -162 q 613 -319 661 -283 q 485 -356 565 -356 l 375 -356 l 383 -312 l 482 -312 q 608 -240 597 -312 q 610 -221 610 -233 q 510 -153 610 -153 l 450 -153 l 479 10 l 525 10 l 504 -112 z "},"È":{"ha":679,"x_min":25,"x_max":697,"o":"m 250 926 l 179 515 l 574 515 l 564 465 l 168 465 l 96 53 l 533 53 l 525 0 l 25 0 l 197 979 l 697 979 l 688 926 l 250 926 m 488 1092 l 478 1042 l 236 1217 l 247 1274 l 488 1092 z "},"É":{"ha":679,"x_min":25,"x_max":750,"o":"m 250 926 l 179 515 l 574 515 l 564 465 l 168 465 l 96 53 l 533 53 l 525 0 l 25 0 l 197 979 l 697 979 l 688 926 l 250 926 m 739 1217 l 436 1042 l 446 1092 l 750 1274 l 739 1217 z "},"Ê":{"ha":679,"x_min":28,"x_max":700,"o":"m 253 926 l 182 515 l 576 515 l 567 465 l 171 465 l 99 53 l 536 53 l 528 0 l 28 0 l 200 979 l 700 979 l 690 926 l 253 926 m 493 1194 l 294 1082 l 304 1131 l 503 1244 l 661 1131 l 651 1082 l 493 1194 z "},"Ë":{"ha":679,"x_min":32,"x_max":704,"o":"m 257 926 l 186 515 l 581 515 l 571 465 l 175 465 l 103 53 l 540 53 l 532 0 l 32 0 l 204 979 l 704 979 l 694 926 l 257 926 m 339 1146 q 360 1182 343 1167 q 400 1197 378 1197 q 433 1182 421 1197 q 442 1146 446 1167 q 421 1110 439 1125 q 382 1094 403 1094 q 348 1110 360 1094 q 339 1146 336 1125 m 540 1136 q 559 1178 540 1160 q 601 1197 578 1197 q 632 1185 619 1197 q 644 1156 644 1174 q 626 1113 644 1132 q 583 1094 607 1094 q 553 1106 565 1094 q 540 1136 540 1118 z "},"Ì":{"ha":286,"x_min":19,"x_max":271,"o":"m 261 979 l 89 0 l 26 0 l 199 979 l 261 979 m 271 1092 l 261 1042 l 19 1217 l 31 1274 l 271 1092 z "},"Í":{"ha":286,"x_min":26,"x_max":533,"o":"m 261 979 l 89 0 l 26 0 l 199 979 l 261 979 m 522 1217 l 219 1042 l 229 1092 l 533 1274 l 522 1217 z "},"Î":{"ha":288,"x_min":29,"x_max":444,"o":"m 264 979 l 92 0 l 29 0 l 201 979 l 264 979 m 276 1194 l 78 1082 l 88 1131 l 286 1244 l 444 1131 l 435 1082 l 276 1194 z "},"Ï":{"ha":288,"x_min":33,"x_max":428,"o":"m 268 979 l 96 0 l 33 0 l 206 979 l 268 979 m 122 1146 q 144 1182 126 1167 q 183 1197 161 1197 q 217 1182 204 1197 q 225 1146 229 1167 q 204 1110 222 1125 q 165 1094 186 1094 q 131 1110 143 1094 q 122 1146 119 1125 m 324 1136 q 342 1178 324 1160 q 385 1197 361 1197 q 415 1185 403 1197 q 428 1156 428 1174 q 409 1113 428 1132 q 367 1094 390 1094 q 336 1106 349 1094 q 324 1136 324 1118 z "},"Ð":{"ha":1031,"x_min":7,"x_max":964,"o":"m 522 979 q 851 882 739 979 q 964 607 964 785 q 953 490 964 557 q 756 129 911 258 q 350 0 600 0 l 75 0 l 157 464 l 7 464 l 18 515 l 165 515 l 247 979 l 522 979 m 889 490 q 899 596 899 543 q 801 838 899 753 q 510 924 703 924 l 300 924 l 228 515 l 535 515 l 524 464 l 219 464 l 147 57 l 357 57 q 718 171 582 57 q 889 490 854 285 z "},"Ñ":{"ha":922,"x_min":33,"x_max":903,"o":"m 731 0 l 668 0 l 250 872 l 96 0 l 33 0 l 206 978 l 268 978 l 686 106 l 840 978 l 903 978 l 731 0 m 522 1176 q 563 1167 547 1176 q 599 1140 579 1158 q 631 1115 617 1124 q 665 1107 644 1107 q 709 1124 689 1107 q 739 1172 729 1140 l 779 1172 q 732 1094 765 1124 q 657 1064 699 1064 q 614 1073 631 1064 q 575 1101 597 1082 q 543 1124 556 1117 q 513 1132 531 1132 q 442 1065 463 1132 l 401 1065 q 449 1147 418 1118 q 522 1176 481 1176 z "},"Ò":{"ha":1097,"x_min":69,"x_max":1028,"o":"m 631 988 q 840 938 750 988 q 979 799 931 889 q 1028 590 1028 708 q 1018 482 1028 535 q 915 226 993 339 q 719 51 836 114 q 467 -11 601 -11 q 256 38 346 -11 q 117 178 165 88 q 69 386 69 268 q 79 496 69 443 q 183 751 104 639 q 378 925 261 863 q 631 988 496 988 m 625 931 q 409 877 511 931 q 236 724 307 824 q 142 490 165 624 q 132 390 132 429 q 175 207 132 285 q 295 88 218 129 q 472 47 372 47 q 688 101 586 47 q 861 254 790 154 q 956 488 932 354 q 964 586 964 540 q 922 769 964 692 q 802 889 879 847 q 625 931 725 931 m 676 1092 l 667 1042 l 425 1217 l 436 1274 l 676 1092 z "},"Ó":{"ha":1097,"x_min":68,"x_max":1026,"o":"m 629 988 q 839 938 749 988 q 978 799 929 889 q 1026 590 1026 708 q 1017 482 1026 535 q 913 226 992 339 q 717 51 835 114 q 465 -11 600 -11 q 254 38 344 -11 q 116 178 164 88 q 68 386 68 268 q 78 496 68 443 q 181 751 103 639 q 377 925 260 863 q 629 988 494 988 m 624 931 q 408 877 510 931 q 235 724 306 824 q 140 490 164 624 q 131 390 131 429 q 174 207 131 285 q 294 88 217 129 q 471 47 371 47 q 687 101 585 47 q 860 254 789 154 q 954 488 931 354 q 963 586 963 540 q 920 769 963 692 q 801 889 878 847 q 624 931 724 931 m 926 1217 l 624 1042 l 633 1092 l 938 1274 l 926 1217 z "},"Ô":{"ha":1097,"x_min":71,"x_max":1029,"o":"m 632 988 q 842 938 751 988 q 981 799 932 889 q 1029 590 1029 708 q 1019 482 1029 535 q 916 226 994 339 q 720 51 838 114 q 468 -11 603 -11 q 257 38 347 -11 q 119 178 167 88 q 71 386 71 268 q 81 496 71 443 q 184 751 106 639 q 380 925 263 863 q 632 988 497 988 m 626 931 q 410 877 513 931 q 238 724 308 824 q 143 490 167 624 q 133 390 133 429 q 176 207 133 285 q 297 88 219 129 q 474 47 374 47 q 690 101 588 47 q 863 254 792 154 q 957 488 933 354 q 965 586 965 540 q 923 769 965 692 q 803 889 881 847 q 626 931 726 931 m 681 1194 l 482 1082 l 492 1131 l 690 1244 l 849 1131 l 839 1082 l 681 1194 z "},"Õ":{"ha":1097,"x_min":76,"x_max":1035,"o":"m 638 988 q 847 938 757 988 q 986 799 938 889 q 1035 590 1035 708 q 1025 482 1035 535 q 922 226 1000 339 q 726 51 843 114 q 474 -11 608 -11 q 263 38 353 -11 q 124 178 172 88 q 76 386 76 268 q 86 496 76 443 q 190 751 111 639 q 385 925 268 863 q 638 988 503 988 m 632 931 q 416 877 518 931 q 243 724 314 824 q 149 490 172 624 q 139 390 139 429 q 182 207 139 285 q 302 88 225 129 q 479 47 379 47 q 695 101 593 47 q 868 254 797 154 q 963 488 939 354 q 971 586 971 540 q 928 769 971 692 q 809 889 886 847 q 632 931 732 931 m 611 1176 q 652 1167 636 1176 q 688 1140 668 1158 q 719 1115 706 1124 q 754 1107 733 1107 q 798 1124 778 1107 q 828 1172 818 1140 l 868 1172 q 821 1094 854 1124 q 746 1064 788 1064 q 703 1073 719 1064 q 664 1101 686 1082 q 632 1124 644 1117 q 601 1132 619 1132 q 531 1065 551 1132 l 490 1065 q 538 1147 507 1118 q 611 1176 569 1176 z "},"Ö":{"ha":1097,"x_min":75,"x_max":1033,"o":"m 636 988 q 846 938 756 988 q 985 799 936 889 q 1033 590 1033 708 q 1024 482 1033 535 q 920 226 999 339 q 724 51 842 114 q 472 -11 607 -11 q 261 38 351 -11 q 123 178 171 88 q 75 386 75 268 q 85 496 75 443 q 188 751 110 639 q 384 925 267 863 q 636 988 501 988 m 631 931 q 415 877 517 931 q 242 724 313 824 q 147 490 171 624 q 138 390 138 429 q 181 207 138 285 q 301 88 224 129 q 478 47 378 47 q 694 101 592 47 q 867 254 796 154 q 961 488 938 354 q 969 586 969 540 q 927 769 969 692 q 808 889 885 847 q 631 931 731 931 m 526 1146 q 548 1182 531 1167 q 588 1197 565 1197 q 621 1182 608 1197 q 629 1146 633 1167 q 608 1110 626 1125 q 569 1094 590 1094 q 535 1110 547 1094 q 526 1146 524 1125 m 728 1136 q 747 1178 728 1160 q 789 1197 765 1197 q 819 1185 807 1197 q 832 1156 832 1174 q 813 1113 832 1132 q 771 1094 794 1094 q 740 1106 753 1094 q 728 1136 728 1118 z "},"×":{"ha":671,"x_min":13,"x_max":660,"o":"m 378 524 l 578 281 l 529 239 l 329 481 l 46 240 l 13 281 l 296 521 l 97 761 l 147 804 l 344 564 l 626 803 l 660 763 l 378 524 z "},"Ø":{"ha":1100,"x_min":-10,"x_max":1108,"o":"m 954 838 q 1028 590 1028 740 q 1018 482 1028 535 q 915 226 993 339 q 719 51 836 114 q 467 -11 601 -11 q 292 20 369 -11 q 164 111 215 51 l 42 0 l -10 0 l 142 139 q 69 386 69 239 q 79 496 69 443 q 183 751 104 639 q 378 925 261 863 q 631 988 496 988 q 804 956 726 988 q 935 864 882 924 l 1060 979 l 1108 979 l 954 838 m 142 490 q 132 390 132 429 q 190 183 132 268 l 888 821 q 774 902 842 874 q 625 931 707 931 q 409 877 511 931 q 236 724 307 824 q 142 490 165 624 m 956 488 q 964 586 964 540 q 907 794 964 710 l 211 156 q 323 75 256 103 q 472 47 390 47 q 688 101 586 47 q 861 254 790 154 q 956 488 932 354 z "},"Ù":{"ha":889,"x_min":76,"x_max":872,"o":"m 256 979 l 150 378 q 140 276 140 325 q 201 103 140 158 q 369 49 261 49 q 585 128 497 49 q 703 378 672 207 l 808 979 l 872 979 l 765 378 q 623 86 731 182 q 360 -10 515 -10 q 152 58 228 -10 q 76 265 76 126 q 88 378 76 314 l 193 979 l 256 979 m 571 1092 l 561 1042 l 319 1217 l 331 1274 l 571 1092 z "},"Ú":{"ha":889,"x_min":76,"x_max":872,"o":"m 256 979 l 150 378 q 140 276 140 325 q 201 103 140 158 q 369 49 261 49 q 585 128 497 49 q 703 378 672 207 l 808 979 l 872 979 l 765 378 q 623 86 731 182 q 360 -10 515 -10 q 152 58 228 -10 q 76 265 76 126 q 88 378 76 314 l 193 979 l 256 979 m 822 1217 l 519 1042 l 529 1092 l 833 1274 l 822 1217 z "},"Û":{"ha":889,"x_min":79,"x_max":875,"o":"m 258 979 l 153 378 q 143 276 143 325 q 203 103 143 158 q 372 49 264 49 q 588 128 500 49 q 706 378 675 207 l 811 979 l 875 979 l 768 378 q 626 86 733 182 q 363 -10 518 -10 q 155 58 231 -10 q 79 265 79 126 q 90 378 79 314 l 196 979 l 258 979 m 575 1194 l 376 1082 l 386 1131 l 585 1244 l 743 1131 l 733 1082 l 575 1194 z "},"Ü":{"ha":889,"x_min":83,"x_max":879,"o":"m 263 979 l 157 378 q 147 276 147 325 q 208 103 147 158 q 376 49 268 49 q 592 128 504 49 q 710 378 679 207 l 815 979 l 879 979 l 772 378 q 630 86 738 182 q 367 -10 522 -10 q 159 58 235 -10 q 83 265 83 126 q 94 378 83 314 l 200 979 l 263 979 m 422 1146 q 444 1182 426 1167 q 483 1197 461 1197 q 517 1182 504 1197 q 525 1146 529 1167 q 504 1110 522 1125 q 465 1094 486 1094 q 431 1110 443 1094 q 422 1146 419 1125 m 624 1136 q 642 1178 624 1160 q 685 1197 661 1197 q 715 1185 703 1197 q 728 1156 728 1174 q 709 1113 728 1132 q 667 1094 690 1094 q 636 1106 649 1094 q 624 1136 624 1118 z "},"Ý":{"ha":757,"x_min":121,"x_max":804,"o":"m 804 979 l 393 396 l 324 0 l 261 0 l 331 396 l 121 979 l 194 979 l 372 463 l 732 979 l 804 979 m 756 1217 l 453 1042 l 463 1092 l 767 1274 l 756 1217 z "},"Þ":{"ha":754,"x_min":26,"x_max":708,"o":"m 126 215 l 89 0 l 26 0 l 199 979 l 261 979 l 224 765 l 431 765 q 640 710 572 765 q 708 553 708 654 q 703 489 708 518 q 585 285 679 354 q 333 215 490 215 l 126 215 m 339 269 q 549 326 478 269 q 639 489 619 383 q 644 549 644 517 q 590 671 644 629 q 418 713 536 713 l 215 713 l 136 269 l 339 269 z "},"ß":{"ha":847,"x_min":22,"x_max":751,"o":"m 614 490 q 719 384 686 439 q 751 263 751 329 q 746 204 751 232 q 651 46 728 107 q 463 -15 574 -15 q 303 36 361 -15 q 244 182 244 88 q 249 233 244 207 l 304 233 q 300 189 300 211 q 340 81 300 121 q 464 40 381 40 q 614 92 556 40 q 685 213 672 143 q 689 257 689 236 q 664 350 689 307 q 581 438 639 393 l 382 589 l 388 622 l 450 650 q 541 715 508 676 q 583 808 574 753 q 586 843 586 833 q 546 946 586 907 q 436 985 506 985 q 296 935 351 985 q 225 797 240 885 l 85 0 l 22 0 l 163 799 q 258 978 183 914 q 450 1042 333 1042 q 597 994 542 1042 q 653 865 653 947 q 649 821 653 844 q 479 629 628 693 l 446 614 l 614 490 z "},"à":{"ha":933,"x_min":68,"x_max":889,"o":"m 504 764 q 701 699 628 764 q 788 529 775 635 l 828 754 l 889 754 l 756 0 l 693 0 l 733 225 q 589 55 686 119 q 368 -10 492 -10 q 149 69 229 -10 q 68 289 68 149 q 76 381 68 333 q 158 584 97 497 q 309 717 219 671 q 504 764 399 764 m 508 708 q 267 619 367 708 q 140 378 167 531 q 133 297 133 343 q 201 113 133 179 q 392 46 269 46 q 558 87 481 46 q 690 203 636 128 q 761 378 743 279 q 768 451 768 419 q 697 639 768 569 q 508 708 626 708 m 536 867 l 526 817 l 285 992 l 296 1049 l 536 867 z "},"á":{"ha":933,"x_min":68,"x_max":889,"o":"m 504 764 q 701 699 628 764 q 788 529 775 635 l 828 754 l 889 754 l 756 0 l 693 0 l 733 225 q 589 55 686 119 q 368 -10 492 -10 q 149 69 229 -10 q 68 289 68 149 q 76 381 68 333 q 158 584 97 497 q 309 717 219 671 q 504 764 399 764 m 508 708 q 267 619 367 708 q 140 378 167 531 q 133 297 133 343 q 201 113 133 179 q 392 46 269 46 q 558 87 481 46 q 690 203 636 128 q 761 378 743 279 q 768 451 768 419 q 697 639 768 569 q 508 708 626 708 m 788 992 l 485 817 l 494 867 l 799 1049 l 788 992 z "},"â":{"ha":933,"x_min":68,"x_max":889,"o":"m 504 764 q 701 699 628 764 q 788 529 775 635 l 828 754 l 889 754 l 756 0 l 693 0 l 733 225 q 589 55 686 119 q 368 -10 492 -10 q 149 69 229 -10 q 68 289 68 149 q 76 381 68 333 q 158 584 97 497 q 309 717 219 671 q 504 764 399 764 m 508 708 q 267 619 367 708 q 140 378 167 531 q 133 297 133 343 q 201 113 133 179 q 392 46 269 46 q 558 87 481 46 q 690 203 636 128 q 761 378 743 279 q 768 451 768 419 q 697 639 768 569 q 508 708 626 708 m 538 969 l 339 857 l 349 906 l 547 1019 l 706 906 l 696 857 l 538 969 z "},"ã":{"ha":933,"x_min":76,"x_max":897,"o":"m 513 764 q 710 699 636 764 q 796 529 783 635 l 836 754 l 897 754 l 764 0 l 701 0 l 742 225 q 597 55 694 119 q 376 -10 500 -10 q 157 69 238 -10 q 76 289 76 149 q 85 381 76 333 q 167 584 106 497 q 317 717 228 671 q 513 764 407 764 m 517 708 q 275 619 375 708 q 149 378 175 531 q 142 297 142 343 q 210 113 142 179 q 400 46 278 46 q 567 87 489 46 q 698 203 644 128 q 769 378 751 279 q 776 451 776 419 q 706 639 776 569 q 517 708 635 708 m 472 951 q 513 942 497 951 q 549 915 529 933 q 581 890 567 899 q 615 882 594 882 q 659 899 639 882 q 689 947 679 915 l 729 947 q 682 869 715 899 q 607 839 649 839 q 564 848 581 839 q 525 876 547 857 q 493 899 506 892 q 463 907 481 907 q 392 840 413 907 l 351 840 q 399 922 368 893 q 472 951 431 951 z "},"ä":{"ha":933,"x_min":75,"x_max":896,"o":"m 511 764 q 708 699 635 764 q 794 529 782 635 l 835 754 l 896 754 l 763 0 l 700 0 l 740 225 q 596 55 693 119 q 375 -10 499 -10 q 156 69 236 -10 q 75 289 75 149 q 83 381 75 333 q 165 584 104 497 q 316 717 226 671 q 511 764 406 764 m 515 708 q 274 619 374 708 q 147 378 174 531 q 140 297 140 343 q 208 113 140 179 q 399 46 276 46 q 565 87 488 46 q 697 203 643 128 q 768 378 750 279 q 775 451 775 419 q 704 639 775 569 q 515 708 633 708 m 388 921 q 409 957 392 942 q 449 972 426 972 q 482 957 469 972 q 490 921 494 942 q 469 885 488 900 q 431 869 451 869 q 397 885 408 869 q 388 921 385 900 m 589 911 q 608 953 589 935 q 650 972 626 972 q 681 960 668 972 q 693 931 693 949 q 674 888 693 907 q 632 869 656 869 q 601 881 614 869 q 589 911 589 893 z "},"å":{"ha":933,"x_min":58,"x_max":879,"o":"m 494 764 q 692 699 618 764 q 778 529 765 635 l 818 754 l 879 754 l 746 0 l 683 0 l 724 225 q 579 55 676 119 q 358 -10 482 -10 q 139 69 219 -10 q 58 289 58 149 q 67 381 58 333 q 149 584 88 497 q 299 717 210 671 q 494 764 389 764 m 499 708 q 257 619 357 708 q 131 378 157 531 q 124 297 124 343 q 192 113 124 179 q 382 46 260 46 q 549 87 471 46 q 680 203 626 128 q 751 378 733 279 q 758 451 758 419 q 688 639 758 569 q 499 708 617 708 m 546 1115 q 626 1087 594 1115 q 658 1010 658 1058 q 656 983 658 1003 q 600 886 644 922 q 500 850 556 850 q 419 878 450 850 q 388 957 388 907 q 390 983 388 964 q 446 1079 401 1043 q 546 1115 490 1115 m 540 1078 q 461 1046 494 1078 q 428 961 428 1014 q 449 908 428 928 q 506 888 471 888 q 577 913 546 888 q 617 983 608 939 q 618 1003 618 990 q 597 1058 618 1038 q 540 1078 576 1078 z "},"æ":{"ha":1563,"x_min":68,"x_max":1501,"o":"m 1211 764 q 1371 728 1306 764 q 1469 631 1436 692 q 1501 494 1501 569 q 1496 433 1501 461 q 1476 360 1486 382 l 821 360 q 815 292 815 326 q 888 106 815 169 q 1071 43 960 43 q 1275 101 1186 43 q 1399 258 1364 158 l 1464 258 q 1319 64 1422 138 q 1075 -10 1215 -10 q 881 51 957 -10 q 794 226 804 113 l 754 0 l 693 0 l 733 225 q 588 55 685 119 q 368 -10 490 -10 q 149 69 229 -10 q 68 288 68 149 q 76 378 68 331 q 158 583 97 496 q 310 717 219 671 q 506 764 400 764 q 701 699 628 764 q 788 529 775 635 l 828 754 l 889 754 l 849 528 q 992 703 897 643 q 1211 764 1088 764 m 1429 397 q 1440 485 1440 449 q 1369 655 1440 597 q 1190 713 1297 713 q 957 633 1057 713 q 828 397 857 554 l 1429 397 m 760 378 q 767 451 767 422 q 696 639 767 569 q 508 708 625 708 q 267 619 367 708 q 140 378 167 531 q 133 297 133 343 q 201 113 133 179 q 390 46 269 46 q 557 87 479 46 q 688 203 635 128 q 760 378 742 279 z "},"ç":{"ha":869,"x_min":74,"x_max":821,"o":"m 515 764 q 740 690 660 764 q 818 493 821 615 l 753 493 q 688 651 754 593 q 507 710 621 710 q 350 674 425 710 q 220 563 275 638 q 146 378 165 488 q 138 294 138 332 q 208 109 138 172 q 389 46 279 46 q 591 104 503 46 q 714 263 679 163 l 779 263 q 630 65 736 139 q 381 -10 524 -10 q 157 70 240 -10 q 74 290 74 150 q 82 381 74 333 q 165 585 103 499 q 319 718 228 672 q 515 764 410 764 m 388 -112 q 502 -135 460 -108 q 544 -215 544 -162 q 497 -319 544 -283 q 368 -356 449 -356 l 258 -356 l 267 -312 l 365 -312 q 492 -240 481 -312 q 493 -221 493 -233 q 393 -153 493 -153 l 333 -153 l 363 10 l 408 10 l 388 -112 z "},"è":{"ha":869,"x_min":67,"x_max":808,"o":"m 510 764 q 674 727 607 764 q 775 629 742 690 q 808 493 808 568 q 803 433 808 472 q 783 360 793 382 l 133 360 q 128 290 128 326 q 199 106 128 168 q 379 43 271 43 q 581 101 493 43 q 704 258 669 158 l 769 258 q 622 64 728 138 q 372 -10 517 -10 q 150 69 233 -10 q 67 289 67 149 q 75 379 67 332 q 158 585 96 497 q 312 718 221 672 q 510 764 403 764 m 735 397 q 746 486 746 449 q 675 655 746 597 q 500 713 604 713 q 344 678 419 713 q 215 572 269 643 q 140 397 160 501 l 735 397 m 521 867 l 511 817 l 269 992 l 281 1049 l 521 867 z "},"é":{"ha":869,"x_min":67,"x_max":808,"o":"m 510 764 q 674 727 607 764 q 775 629 742 690 q 808 493 808 568 q 803 433 808 472 q 783 360 793 382 l 133 360 q 128 290 128 326 q 199 106 128 168 q 379 43 271 43 q 581 101 493 43 q 704 258 669 158 l 769 258 q 622 64 728 138 q 372 -10 517 -10 q 150 69 233 -10 q 67 289 67 149 q 75 379 67 332 q 158 585 96 497 q 312 718 221 672 q 510 764 403 764 m 735 397 q 746 486 746 449 q 675 655 746 597 q 500 713 604 713 q 344 678 419 713 q 215 572 269 643 q 140 397 160 501 l 735 397 m 772 992 l 469 817 l 479 867 l 783 1049 l 772 992 z "},"ê":{"ha":869,"x_min":69,"x_max":811,"o":"m 513 764 q 677 727 610 764 q 778 629 744 690 q 811 493 811 568 q 806 433 811 472 q 786 360 796 382 l 136 360 q 131 290 131 326 q 202 106 131 168 q 382 43 274 43 q 584 101 496 43 q 707 258 672 158 l 772 258 q 625 64 731 138 q 375 -10 519 -10 q 153 69 236 -10 q 69 289 69 149 q 78 379 69 332 q 161 585 99 497 q 315 718 224 672 q 513 764 406 764 m 738 397 q 749 486 749 449 q 678 655 749 597 q 503 713 607 713 q 347 678 422 713 q 217 572 272 643 q 143 397 163 501 l 738 397 m 526 969 l 328 857 l 338 906 l 536 1019 l 694 906 l 685 857 l 526 969 z "},"ë":{"ha":869,"x_min":74,"x_max":815,"o":"m 517 764 q 681 727 614 764 q 782 629 749 690 q 815 493 815 568 q 810 433 815 472 q 790 360 800 382 l 140 360 q 135 290 135 326 q 206 106 135 168 q 386 43 278 43 q 588 101 500 43 q 711 258 676 158 l 776 258 q 629 64 735 138 q 379 -10 524 -10 q 157 69 240 -10 q 74 289 74 149 q 82 379 74 332 q 165 585 103 497 q 319 718 228 672 q 517 764 410 764 m 742 397 q 753 486 753 449 q 682 655 753 597 q 507 713 611 713 q 351 678 426 713 q 222 572 276 643 q 147 397 167 501 l 742 397 m 372 921 q 394 957 376 942 q 433 972 411 972 q 467 957 454 972 q 475 921 479 942 q 454 885 472 900 q 415 869 436 869 q 381 885 393 869 q 372 921 369 900 m 574 911 q 592 953 574 935 q 635 972 611 972 q 665 960 653 972 q 678 931 678 949 q 659 888 678 907 q 617 869 640 869 q 586 881 599 869 q 574 911 574 893 z "},"ì":{"ha":288,"x_min":-17,"x_max":240,"o":"m 240 754 l 106 0 l 43 0 l 176 754 l 240 754 m 235 867 l 225 817 l -17 992 l -6 1049 l 235 867 z "},"í":{"ha":288,"x_min":43,"x_max":497,"o":"m 240 754 l 106 0 l 43 0 l 176 754 l 240 754 m 486 992 l 183 817 l 193 867 l 497 1049 l 486 992 z "},"î":{"ha":286,"x_min":38,"x_max":404,"o":"m 243 754 l 108 0 l 46 0 l 179 754 l 243 754 m 236 969 l 38 857 l 47 906 l 246 1019 l 404 906 l 394 857 l 236 969 z "},"ï":{"ha":288,"x_min":50,"x_max":392,"o":"m 247 754 l 113 0 l 50 0 l 183 754 l 247 754 m 86 921 q 108 957 90 942 q 147 972 125 972 q 181 957 168 972 q 189 921 193 942 q 168 885 186 900 q 129 869 150 869 q 95 885 107 869 q 86 921 83 900 m 288 911 q 306 953 288 935 q 349 972 325 972 q 379 960 367 972 q 392 931 392 949 q 373 888 392 907 q 331 869 354 869 q 300 881 313 869 q 288 911 288 893 z "},"ð":{"ha":894,"x_min":50,"x_max":863,"o":"m 856 994 l 678 935 q 783 757 749 849 q 818 561 818 665 q 806 428 818 497 q 648 102 768 214 q 360 -10 528 -10 q 132 74 214 -10 q 50 301 50 158 q 58 397 50 347 q 138 592 78 508 q 290 723 199 676 q 493 769 382 769 q 678 708 604 769 q 764 524 751 646 q 736 735 767 643 q 632 919 706 828 l 413 846 l 419 881 l 610 944 q 528 1028 578 979 l 588 1028 q 656 960 613 1006 l 863 1028 l 856 994 m 735 378 q 742 454 742 422 q 670 646 742 578 q 486 714 599 714 q 321 677 397 714 q 192 569 244 640 q 122 397 140 497 q 114 308 114 350 q 183 115 114 183 q 369 46 251 46 q 533 85 456 46 q 663 200 610 125 q 735 378 717 275 z "},"ñ":{"ha":867,"x_min":50,"x_max":786,"o":"m 536 769 q 718 708 650 769 q 786 525 786 646 q 778 440 786 486 l 700 0 l 638 0 l 715 438 q 722 511 722 482 q 666 664 722 611 q 510 717 610 717 q 302 640 389 717 q 186 415 215 564 l 113 0 l 50 0 l 183 754 l 246 754 l 210 554 q 344 715 256 660 q 536 769 433 769 m 457 951 q 498 942 482 951 q 533 915 514 933 q 565 890 551 899 q 600 882 579 882 q 644 899 624 882 q 674 947 664 915 l 714 947 q 667 869 700 899 q 592 839 633 839 q 549 848 565 839 q 510 876 532 857 q 478 899 490 892 q 447 907 465 907 q 376 840 397 907 l 336 840 q 384 922 353 893 q 457 951 415 951 z "},"ò":{"ha":897,"x_min":68,"x_max":829,"o":"m 517 764 q 744 683 658 764 q 829 461 829 603 q 821 374 829 419 q 736 169 800 256 q 580 36 672 82 q 382 -10 488 -10 q 154 71 240 -10 q 68 294 68 151 q 76 381 68 335 q 161 585 97 497 q 318 718 225 672 q 517 764 411 764 m 508 708 q 349 672 425 708 q 216 562 272 636 q 140 378 160 488 q 132 297 132 335 q 206 110 132 175 q 390 46 279 46 q 549 82 472 46 q 681 193 625 118 q 757 378 738 268 q 765 458 765 422 q 692 644 765 581 q 508 708 619 708 m 535 867 l 525 817 l 283 992 l 294 1049 l 535 867 z "},"ó":{"ha":897,"x_min":68,"x_max":829,"o":"m 517 764 q 744 683 658 764 q 829 461 829 603 q 821 374 829 419 q 736 169 800 256 q 580 36 672 82 q 382 -10 488 -10 q 154 71 240 -10 q 68 294 68 151 q 76 381 68 335 q 161 585 97 497 q 318 718 225 672 q 517 764 411 764 m 508 708 q 349 672 425 708 q 216 562 272 636 q 140 378 160 488 q 132 297 132 335 q 206 110 132 175 q 390 46 279 46 q 549 82 472 46 q 681 193 625 118 q 757 378 738 268 q 765 458 765 422 q 692 644 765 581 q 508 708 619 708 m 786 992 l 483 817 l 493 867 l 797 1049 l 786 992 z "},"ô":{"ha":897,"x_min":69,"x_max":831,"o":"m 518 764 q 745 683 660 764 q 831 461 831 603 q 822 374 831 419 q 738 169 801 256 q 581 36 674 82 q 383 -10 489 -10 q 156 71 242 -10 q 69 294 69 151 q 78 381 69 335 q 163 585 99 497 q 319 718 226 672 q 518 764 413 764 m 510 708 q 350 672 426 708 q 217 562 274 636 q 142 378 161 488 q 133 297 133 335 q 207 110 133 175 q 392 46 281 46 q 550 82 474 46 q 683 193 626 118 q 758 378 739 268 q 767 458 767 422 q 694 644 767 581 q 510 708 621 708 m 539 969 l 340 857 l 350 906 l 549 1019 l 707 906 l 697 857 l 539 969 z "},"õ":{"ha":897,"x_min":76,"x_max":838,"o":"m 525 764 q 752 683 667 764 q 838 461 838 603 q 829 374 838 419 q 744 169 808 256 q 588 36 681 82 q 390 -10 496 -10 q 163 71 249 -10 q 76 294 76 151 q 85 381 76 335 q 169 585 106 497 q 326 718 233 672 q 525 764 419 764 m 517 708 q 357 672 433 708 q 224 562 281 636 q 149 378 168 488 q 140 297 140 335 q 214 110 140 175 q 399 46 288 46 q 557 82 481 46 q 690 193 633 118 q 765 378 746 268 q 774 458 774 422 q 701 644 774 581 q 517 708 628 708 m 471 951 q 512 942 496 951 q 547 915 528 933 q 579 890 565 899 q 614 882 593 882 q 658 899 638 882 q 688 947 678 915 l 728 947 q 681 869 714 899 q 606 839 647 839 q 563 848 579 839 q 524 876 546 857 q 492 899 504 892 q 461 907 479 907 q 390 840 411 907 l 350 840 q 398 922 367 893 q 471 951 429 951 z "},"ö":{"ha":897,"x_min":75,"x_max":836,"o":"m 524 764 q 751 683 665 764 q 836 461 836 603 q 828 374 836 419 q 743 169 807 256 q 587 36 679 82 q 389 -10 494 -10 q 161 71 247 -10 q 75 294 75 151 q 83 381 75 335 q 168 585 104 497 q 325 718 232 672 q 524 764 418 764 m 515 708 q 356 672 432 708 q 223 562 279 636 q 147 378 167 488 q 139 297 139 335 q 213 110 139 175 q 397 46 286 46 q 556 82 479 46 q 688 193 632 118 q 764 378 744 268 q 772 458 772 422 q 699 644 772 581 q 515 708 626 708 m 386 921 q 408 957 390 942 q 447 972 425 972 q 481 957 468 972 q 489 921 493 942 q 468 885 486 900 q 429 869 450 869 q 395 885 407 869 q 386 921 383 900 m 588 911 q 606 953 588 935 q 649 972 625 972 q 679 960 667 972 q 692 931 692 949 q 673 888 692 907 q 631 869 654 869 q 600 881 613 869 q 588 911 588 893 z "},"÷":{"ha":811,"x_min":47,"x_max":764,"o":"m 517 869 l 500 774 l 401 774 l 418 869 l 517 869 m 764 550 l 754 493 l 47 493 l 57 550 l 764 550 m 411 272 l 394 176 l 296 176 l 313 272 l 411 272 z "},"ø":{"ha":894,"x_min":8,"x_max":872,"o":"m 763 653 q 821 461 821 575 q 813 374 821 419 q 728 169 792 256 q 572 36 664 82 q 374 -10 479 -10 q 139 79 224 -10 l 53 0 l 8 0 l 119 101 q 60 293 60 181 q 68 381 60 335 q 153 585 89 497 q 310 718 217 672 q 508 764 403 764 q 641 742 581 764 q 743 676 701 719 l 828 754 l 872 754 l 763 653 m 132 378 q 125 297 125 342 q 167 146 125 207 l 696 632 q 610 690 660 671 q 500 708 560 708 q 340 672 417 708 q 208 562 264 636 q 132 378 151 488 m 749 378 q 756 458 756 414 q 714 608 756 549 l 186 122 q 272 65 221 85 q 382 46 324 46 q 540 82 464 46 q 673 193 617 118 q 749 378 729 268 z "},"ù":{"ha":849,"x_min":68,"x_max":806,"o":"m 806 754 l 671 0 l 608 0 l 643 197 q 508 39 596 93 q 318 -15 421 -15 q 136 47 204 -15 q 68 231 68 108 q 76 315 68 269 l 156 754 l 217 754 l 139 317 q 132 243 132 272 q 188 91 132 143 q 344 39 244 39 q 556 119 468 39 q 671 354 643 199 l 742 754 l 806 754 m 499 867 l 489 817 l 247 992 l 258 1049 l 499 867 z "},"ú":{"ha":849,"x_min":68,"x_max":806,"o":"m 806 754 l 671 0 l 608 0 l 643 197 q 508 39 596 93 q 318 -15 421 -15 q 136 47 204 -15 q 68 231 68 108 q 76 315 68 269 l 156 754 l 217 754 l 139 317 q 132 243 132 272 q 188 91 132 143 q 344 39 244 39 q 556 119 468 39 q 671 354 643 199 l 742 754 l 806 754 m 751 992 l 449 817 l 458 867 l 763 1049 l 751 992 z "},"û":{"ha":849,"x_min":69,"x_max":807,"o":"m 807 754 l 672 0 l 610 0 l 644 197 q 510 39 597 93 q 319 -15 422 -15 q 138 47 206 -15 q 69 231 69 108 q 78 315 69 269 l 157 754 l 218 754 l 140 317 q 133 243 133 272 q 190 91 133 143 q 346 39 246 39 q 557 119 469 39 q 672 354 644 199 l 743 754 l 807 754 m 504 969 l 306 857 l 315 906 l 514 1019 l 672 906 l 663 857 l 504 969 z "},"ü":{"ha":849,"x_min":74,"x_max":811,"o":"m 811 754 l 676 0 l 614 0 l 649 197 q 514 39 601 93 q 324 -15 426 -15 q 142 47 210 -15 q 74 231 74 108 q 82 315 74 269 l 161 754 l 222 754 l 144 317 q 138 243 138 272 q 194 91 138 143 q 350 39 250 39 q 561 119 474 39 q 676 354 649 199 l 747 754 l 811 754 m 350 921 q 372 957 354 942 q 411 972 389 972 q 444 957 432 972 q 453 921 457 942 q 432 885 450 900 q 393 869 414 869 q 359 885 371 869 q 350 921 347 900 m 551 911 q 570 953 551 935 q 613 972 589 972 q 643 960 631 972 q 656 931 656 949 q 637 888 656 907 q 594 869 618 869 q 564 881 576 869 q 551 911 551 893 z "},"ý":{"ha":729,"x_min":19,"x_max":725,"o":"m 111 754 l 276 83 l 656 754 l 725 754 l 92 -356 l 19 -356 l 228 4 l 42 754 l 111 754 m 676 992 l 374 817 l 383 867 l 688 1049 l 676 992 z "},"þ":{"ha":933,"x_min":-12,"x_max":871,"o":"m 568 764 q 790 684 708 764 q 871 465 871 604 q 863 376 871 425 q 781 171 842 258 q 630 37 719 83 q 435 -10 540 -10 q 238 53 313 -10 q 151 222 164 117 l 50 -356 l -12 -356 l 233 1028 l 294 1028 l 207 535 q 352 701 257 638 q 568 764 447 764 m 432 46 q 672 134 572 46 q 800 376 772 222 q 807 456 807 422 q 738 642 807 575 q 547 708 668 708 q 381 667 460 708 q 249 551 303 626 q 179 378 196 476 q 172 304 172 333 q 243 115 172 185 q 432 46 314 46 z "},"ÿ":{"ha":729,"x_min":51,"x_max":757,"o":"m 143 754 l 308 83 l 688 754 l 757 754 l 124 -356 l 51 -356 l 260 4 l 74 754 l 143 754 m 292 921 q 313 957 296 942 q 353 972 331 972 q 386 957 374 972 q 394 921 399 942 q 374 885 392 900 q 335 869 356 869 q 301 885 313 869 q 292 921 289 900 m 493 911 q 512 953 493 935 q 554 972 531 972 q 585 960 572 972 q 597 931 597 949 q 578 888 597 907 q 536 869 560 869 q 506 881 518 869 q 493 911 493 893 z "},"Ā":{"ha":865,"x_min":-39,"x_max":794,"o":"m 635 254 l 169 254 l 29 0 l -39 0 l 490 953 l 560 953 l 753 0 l 685 0 l 635 254 m 625 306 l 513 876 l 199 306 l 625 306 m 794 1182 l 785 1133 l 335 1133 l 344 1182 l 794 1182 z "},"ā":{"ha":933,"x_min":74,"x_max":894,"o":"m 510 764 q 707 699 633 764 q 793 529 781 635 l 833 754 l 894 754 l 761 0 l 699 0 l 739 225 q 594 55 692 119 q 374 -10 497 -10 q 154 69 235 -10 q 74 289 74 149 q 82 381 74 333 q 164 584 103 497 q 315 717 225 671 q 510 764 404 764 m 514 708 q 272 619 372 708 q 146 378 172 531 q 139 297 139 343 q 207 113 139 179 q 397 46 275 46 q 564 87 486 46 q 695 203 642 128 q 767 378 749 279 q 774 451 774 419 q 703 639 774 569 q 514 708 632 708 m 768 957 l 758 908 l 308 908 l 318 957 l 768 957 z "},"Ă":{"ha":865,"x_min":-44,"x_max":749,"o":"m 629 254 l 164 254 l 24 0 l -44 0 l 485 953 l 554 953 l 747 0 l 679 0 l 629 254 m 619 306 l 507 876 l 193 306 l 619 306 m 542 1078 q 429 1115 467 1078 q 392 1207 392 1151 q 394 1239 392 1217 l 396 1247 l 439 1247 q 436 1217 436 1236 q 466 1151 436 1174 q 551 1128 496 1128 q 656 1159 615 1128 q 707 1247 696 1190 l 749 1247 l 747 1239 q 681 1125 735 1172 q 542 1078 626 1078 z "},"ă":{"ha":933,"x_min":71,"x_max":892,"o":"m 507 764 q 704 699 631 764 q 790 529 778 635 l 831 754 l 892 754 l 758 0 l 696 0 l 736 225 q 592 55 689 119 q 371 -10 494 -10 q 151 69 232 -10 q 71 289 71 149 q 79 381 71 333 q 161 584 100 497 q 312 717 222 671 q 507 764 401 764 m 511 708 q 269 619 369 708 q 143 378 169 531 q 136 297 136 343 q 204 113 136 179 q 394 46 272 46 q 561 87 483 46 q 692 203 639 128 q 764 378 746 279 q 771 451 771 419 q 700 639 771 569 q 511 708 629 708 m 519 853 q 407 890 444 853 q 369 982 369 926 q 372 1014 369 992 l 374 1022 l 417 1022 q 414 992 414 1011 q 444 926 414 949 q 529 903 474 903 q 633 934 593 903 q 685 1022 674 965 l 726 1022 l 725 1014 q 658 900 713 947 q 519 853 604 853 z "},"Ą":{"ha":865,"x_min":-31,"x_max":776,"o":"m 776 -225 l 768 -269 l 657 -269 q 550 -240 588 -269 q 513 -160 513 -211 q 558 -51 513 -94 q 692 1 603 -7 l 642 254 l 178 254 l 38 0 l -31 0 l 499 953 l 568 953 l 761 3 l 753 -37 l 701 -37 q 602 -67 640 -37 q 564 -150 564 -97 q 592 -206 564 -186 q 669 -225 619 -225 l 776 -225 m 632 306 l 519 874 l 206 306 l 632 306 z "},"ą":{"ha":933,"x_min":72,"x_max":893,"o":"m 508 764 q 706 699 632 764 q 792 529 779 635 l 832 754 l 893 754 l 760 0 l 697 0 l 738 225 q 593 55 690 119 q 372 -10 496 -10 q 153 69 233 -10 q 72 289 72 149 q 81 381 72 333 q 163 584 101 497 q 313 717 224 671 q 508 764 403 764 m 513 708 q 271 619 371 708 q 144 378 171 531 q 138 297 138 343 q 206 113 138 179 q 396 46 274 46 q 563 87 485 46 q 694 203 640 128 q 765 378 747 279 q 772 451 772 419 q 701 639 772 569 q 513 708 631 708 m 761 13 l 753 -29 l 701 -29 q 601 -58 639 -29 q 564 -136 564 -86 q 592 -197 564 -175 q 669 -218 619 -218 l 776 -218 l 768 -261 l 657 -261 q 551 -229 589 -261 q 513 -144 513 -197 q 563 -31 513 -74 q 703 13 613 13 l 761 13 z "},"Ć":{"ha":1065,"x_min":69,"x_max":1021,"o":"m 626 989 q 899 906 799 989 q 1021 679 999 824 l 957 679 q 849 862 935 793 q 615 931 763 931 q 406 877 506 931 q 238 723 307 824 q 144 489 168 622 q 135 388 135 439 q 176 207 135 283 q 292 90 218 131 q 461 49 365 49 q 717 117 607 49 q 890 299 828 185 l 954 299 q 752 72 881 154 q 451 -10 624 -10 q 249 39 336 -10 q 116 176 163 88 q 69 381 69 264 q 79 489 69 436 q 183 747 104 633 q 377 925 261 861 q 626 989 493 989 m 911 1217 l 608 1042 l 618 1092 l 922 1274 l 911 1217 z "},"ć":{"ha":869,"x_min":67,"x_max":814,"o":"m 508 764 q 733 690 653 764 q 811 493 814 615 l 746 493 q 681 651 747 593 q 500 710 614 710 q 343 674 418 710 q 213 563 268 638 q 139 378 158 488 q 131 294 131 332 q 201 109 131 172 q 382 46 272 46 q 584 104 496 46 q 707 263 672 163 l 772 263 q 623 65 729 139 q 374 -10 517 -10 q 150 70 233 -10 q 67 290 67 150 q 75 381 67 333 q 158 585 96 499 q 312 718 221 672 q 508 764 403 764 m 771 992 l 468 817 l 478 867 l 782 1049 l 771 992 z "},"Ċ":{"ha":1065,"x_min":76,"x_max":1028,"o":"m 633 989 q 906 906 806 989 q 1028 679 1006 824 l 964 679 q 856 862 942 793 q 622 931 769 931 q 413 877 513 931 q 244 723 314 824 q 151 489 175 622 q 142 388 142 439 q 183 207 142 283 q 299 90 225 131 q 468 49 372 49 q 724 117 614 49 q 897 299 835 185 l 961 299 q 759 72 888 154 q 458 -10 631 -10 q 256 39 343 -10 q 123 176 169 88 q 76 381 76 264 q 86 489 76 436 q 190 747 111 633 q 384 925 268 861 q 633 989 500 989 m 611 1146 q 633 1182 615 1167 q 672 1197 651 1197 q 706 1182 693 1197 q 714 1146 718 1167 q 693 1110 711 1125 q 654 1094 675 1094 q 621 1110 633 1094 q 611 1146 608 1125 z "},"ċ":{"ha":869,"x_min":74,"x_max":821,"o":"m 515 764 q 740 690 660 764 q 818 493 821 615 l 753 493 q 688 651 754 593 q 507 710 621 710 q 350 674 425 710 q 220 563 275 638 q 146 378 165 488 q 138 294 138 332 q 208 109 138 172 q 389 46 279 46 q 591 104 503 46 q 714 263 679 163 l 779 263 q 630 65 736 139 q 381 -10 524 -10 q 157 70 240 -10 q 74 290 74 150 q 82 381 74 333 q 165 585 103 499 q 319 718 228 672 q 515 764 410 764 m 471 921 q 493 957 475 942 q 532 972 511 972 q 565 957 553 972 q 574 921 578 942 q 553 885 571 900 q 514 869 535 869 q 481 885 493 869 q 471 921 468 900 z "},"Č":{"ha":1065,"x_min":72,"x_max":1024,"o":"m 629 989 q 901 906 801 989 q 1024 679 1001 824 l 960 679 q 851 862 938 793 q 618 931 765 931 q 409 877 508 931 q 240 723 310 824 q 147 489 171 622 q 138 388 138 439 q 179 207 138 283 q 294 90 221 131 q 464 49 368 49 q 720 117 610 49 q 893 299 831 185 l 957 299 q 755 72 883 154 q 454 -10 626 -10 q 252 39 339 -10 q 119 176 165 88 q 72 381 72 264 q 82 489 72 436 q 185 747 107 633 q 380 925 264 861 q 629 989 496 989 m 844 1190 l 646 1078 l 486 1190 l 496 1240 l 656 1126 l 853 1240 l 844 1190 z "},"č":{"ha":869,"x_min":69,"x_max":817,"o":"m 511 764 q 736 690 656 764 q 814 493 817 615 l 749 493 q 683 651 750 593 q 503 710 617 710 q 346 674 421 710 q 216 563 271 638 q 142 378 161 488 q 133 294 133 332 q 204 109 133 172 q 385 46 275 46 q 587 104 499 46 q 710 263 675 163 l 775 263 q 626 65 732 139 q 376 -10 519 -10 q 153 70 236 -10 q 69 290 69 150 q 78 381 69 333 q 161 585 99 499 q 315 718 224 672 q 511 764 406 764 m 704 965 l 506 853 l 346 965 l 356 1015 l 515 901 l 713 1015 l 704 965 z "},"Ď":{"ha":982,"x_min":28,"x_max":917,"o":"m 906 490 q 708 129 864 258 q 303 0 553 0 l 28 0 l 200 979 l 475 979 q 804 882 692 979 q 917 607 917 785 q 906 490 917 557 m 310 57 q 671 171 535 57 q 842 490 807 285 q 851 596 851 543 q 753 838 851 753 q 463 924 656 924 l 253 924 l 100 57 l 310 57 m 818 1190 l 619 1078 l 460 1190 l 469 1240 l 629 1126 l 826 1240 l 818 1190 z "},"ď":{"ha":964,"x_min":49,"x_max":1089,"o":"m 918 1028 l 736 0 l 674 0 l 714 225 q 569 55 665 119 q 349 -10 472 -10 q 130 70 211 -10 q 49 290 49 150 q 57 381 49 333 q 139 584 78 497 q 290 717 200 671 q 485 764 379 764 q 682 699 608 764 q 768 529 756 635 l 856 1028 l 918 1028 m 1089 1028 q 1079 921 1089 972 q 1035 825 1068 854 q 947 796 1001 796 l 953 833 q 1006 850 988 833 q 1029 901 1024 867 l 1038 938 l 979 938 l 994 1028 l 1089 1028 m 489 708 q 247 619 347 708 q 121 378 147 531 q 114 297 114 343 q 182 113 114 179 q 372 46 250 46 q 539 87 461 46 q 670 203 617 128 q 742 378 724 279 q 749 450 749 419 q 678 638 749 568 q 489 708 607 708 z "},"Đ":{"ha":1031,"x_min":31,"x_max":988,"o":"m 546 979 q 875 882 763 979 q 988 607 988 785 q 976 490 988 557 q 779 129 935 258 q 374 0 624 0 l 99 0 l 181 464 l 31 464 l 42 515 l 189 515 l 271 979 l 546 979 m 913 490 q 922 596 922 543 q 824 838 922 753 q 533 924 726 924 l 324 924 l 251 515 l 558 515 l 547 464 l 243 464 l 171 57 l 381 57 q 742 171 606 57 q 913 490 878 285 z "},"đ":{"ha":925,"x_min":47,"x_max":989,"o":"m 982 893 l 893 893 l 735 0 l 672 0 l 713 225 q 567 55 664 119 q 347 -10 471 -10 q 128 70 210 -10 q 47 290 47 150 q 56 381 47 333 q 138 584 76 497 q 288 717 199 671 q 483 764 378 764 q 681 699 607 764 q 767 529 754 635 l 831 893 l 568 893 l 574 932 l 838 932 l 854 1028 l 917 1028 l 900 932 l 989 932 l 982 893 m 740 378 q 747 450 747 419 q 676 638 747 568 q 488 708 606 708 q 246 619 346 708 q 119 378 146 531 q 113 297 113 343 q 181 113 113 179 q 371 46 249 46 q 538 87 460 46 q 669 203 615 128 q 740 378 722 279 z "},"Ē":{"ha":679,"x_min":33,"x_max":722,"o":"m 258 926 l 188 515 l 582 515 l 572 465 l 176 465 l 104 53 l 542 53 l 533 0 l 33 0 l 206 979 l 706 979 l 696 926 l 258 926 m 722 1182 l 713 1133 l 263 1133 l 272 1182 l 722 1182 z "},"ē":{"ha":869,"x_min":75,"x_max":817,"o":"m 518 764 q 683 727 615 764 q 783 629 750 690 q 817 493 817 568 q 811 433 817 472 q 792 360 801 382 l 142 360 q 136 290 136 326 q 208 106 136 168 q 388 43 279 43 q 590 101 501 43 q 713 258 678 158 l 778 258 q 631 64 736 138 q 381 -10 525 -10 q 158 69 242 -10 q 75 289 75 149 q 83 379 75 332 q 167 585 104 497 q 320 718 229 672 q 518 764 411 764 m 743 397 q 754 486 754 449 q 683 655 754 597 q 508 713 613 713 q 353 678 428 713 q 223 572 278 643 q 149 397 168 501 l 743 397 m 756 957 l 746 908 l 296 908 l 306 957 l 756 957 z "},"Ĕ":{"ha":679,"x_min":28,"x_max":700,"o":"m 253 926 l 182 515 l 576 515 l 567 465 l 171 465 l 99 53 l 536 53 l 528 0 l 28 0 l 200 979 l 700 979 l 690 926 l 253 926 m 471 1078 q 358 1115 396 1078 q 321 1207 321 1151 q 324 1239 321 1217 l 325 1247 l 368 1247 q 365 1217 365 1236 q 395 1151 365 1174 q 481 1128 425 1128 q 585 1159 544 1128 q 636 1247 625 1190 l 678 1247 l 676 1239 q 610 1125 664 1172 q 471 1078 556 1078 z "},"ĕ":{"ha":869,"x_min":69,"x_max":811,"o":"m 513 764 q 677 727 610 764 q 778 629 744 690 q 811 493 811 568 q 806 433 811 472 q 786 360 796 382 l 136 360 q 131 290 131 326 q 202 106 131 168 q 382 43 274 43 q 584 101 496 43 q 707 258 672 158 l 772 258 q 625 64 731 138 q 375 -10 519 -10 q 153 69 236 -10 q 69 289 69 149 q 78 379 69 332 q 161 585 99 497 q 315 718 224 672 q 513 764 406 764 m 738 397 q 749 486 749 449 q 678 655 749 597 q 503 713 607 713 q 347 678 422 713 q 217 572 272 643 q 143 397 163 501 l 738 397 m 504 853 q 392 890 429 853 q 354 982 354 926 q 357 1014 354 992 l 358 1022 l 401 1022 q 399 992 399 1011 q 428 926 399 949 q 514 903 458 903 q 618 934 578 903 q 669 1022 658 965 l 711 1022 l 710 1014 q 643 900 697 947 q 504 853 589 853 z "},"Ė":{"ha":679,"x_min":32,"x_max":704,"o":"m 257 926 l 186 515 l 581 515 l 571 465 l 175 465 l 103 53 l 540 53 l 532 0 l 32 0 l 204 979 l 704 979 l 694 926 l 257 926 m 439 1146 q 461 1182 443 1167 q 500 1197 479 1197 q 533 1182 521 1197 q 542 1146 546 1167 q 521 1110 539 1125 q 482 1094 503 1094 q 449 1110 461 1094 q 439 1146 436 1125 z "},"ė":{"ha":869,"x_min":74,"x_max":815,"o":"m 517 764 q 681 727 614 764 q 782 629 749 690 q 815 493 815 568 q 810 433 815 472 q 790 360 800 382 l 140 360 q 135 290 135 326 q 206 106 135 168 q 386 43 278 43 q 588 101 500 43 q 711 258 676 158 l 776 258 q 629 64 735 138 q 379 -10 524 -10 q 157 69 240 -10 q 74 289 74 149 q 82 379 74 332 q 165 585 103 497 q 319 718 228 672 q 517 764 410 764 m 742 397 q 753 486 753 449 q 682 655 753 597 q 507 713 611 713 q 351 678 426 713 q 222 572 276 643 q 147 397 167 501 l 742 397 m 472 921 q 494 957 476 942 q 533 972 513 972 q 567 957 554 972 q 575 921 579 942 q 554 885 572 900 q 515 869 536 869 q 482 885 494 869 q 472 921 469 900 z "},"Ę":{"ha":679,"x_min":24,"x_max":696,"o":"m 249 926 l 178 515 l 572 515 l 563 465 l 167 465 l 94 53 l 532 53 l 524 0 l 24 0 l 196 979 l 696 979 l 686 926 l 249 926 m 528 25 l 519 -17 l 468 -17 q 368 -45 406 -17 q 331 -124 331 -74 q 358 -184 331 -162 q 436 -206 386 -206 l 543 -206 l 535 -249 l 424 -249 q 317 -217 356 -249 q 279 -132 279 -185 q 329 -18 279 -61 q 469 25 379 25 l 528 25 z "},"ę":{"ha":871,"x_min":82,"x_max":824,"o":"m 525 764 q 690 727 622 764 q 790 629 757 690 q 824 493 824 568 q 818 433 824 460 q 799 360 810 390 l 149 360 q 143 293 143 328 q 215 106 143 169 q 396 43 288 43 q 597 101 510 43 q 719 258 685 158 l 785 258 q 658 80 749 151 q 446 -6 568 8 q 419 -16 428 -7 q 407 -42 410 -25 q 406 -54 406 -46 q 435 -104 406 -85 q 514 -124 464 -124 l 619 -124 l 611 -168 l 500 -168 q 394 -138 432 -168 q 357 -57 357 -108 q 360 -32 357 -49 l 364 -8 q 158 78 235 -1 q 82 290 82 157 q 90 378 82 332 q 174 583 111 496 q 328 717 236 671 q 525 764 419 764 m 750 397 q 761 486 761 449 q 690 655 761 597 q 515 713 619 713 q 360 678 435 713 q 231 572 286 643 q 156 397 176 501 l 750 397 z "},"Ě":{"ha":679,"x_min":28,"x_max":700,"o":"m 253 926 l 182 515 l 576 515 l 567 465 l 171 465 l 99 53 l 536 53 l 528 0 l 28 0 l 200 979 l 700 979 l 690 926 l 253 926 m 672 1190 l 474 1078 l 314 1190 l 324 1240 l 483 1126 l 681 1240 l 672 1190 z "},"ě":{"ha":869,"x_min":69,"x_max":811,"o":"m 513 764 q 677 727 610 764 q 778 629 744 690 q 811 493 811 568 q 806 433 811 472 q 786 360 796 382 l 136 360 q 131 290 131 326 q 202 106 131 168 q 382 43 274 43 q 584 101 496 43 q 707 258 672 158 l 772 258 q 625 64 731 138 q 375 -10 519 -10 q 153 69 236 -10 q 69 289 69 149 q 78 379 69 332 q 161 585 99 497 q 315 718 224 672 q 513 764 406 764 m 738 397 q 749 486 749 449 q 678 655 749 597 q 503 713 607 713 q 347 678 422 713 q 217 572 272 643 q 143 397 163 501 l 738 397 m 706 965 l 507 853 l 347 965 l 357 1015 l 517 901 l 714 1015 l 706 965 z "},"Ğ":{"ha":1093,"x_min":71,"x_max":1024,"o":"m 639 988 q 899 905 800 988 q 1024 682 999 822 l 958 682 q 851 861 936 793 q 629 929 765 929 q 413 876 515 929 q 240 722 311 822 q 146 489 169 622 q 136 388 136 426 q 179 203 136 281 q 299 86 222 126 q 478 46 376 46 q 687 96 588 46 q 858 239 786 146 q 957 458 929 332 l 524 458 l 532 507 l 1021 507 l 1013 460 q 906 217 985 324 q 713 49 828 110 q 464 -11 599 -11 q 256 38 344 -11 q 119 176 167 88 q 71 383 71 265 q 81 490 71 438 q 185 748 106 635 q 384 924 265 861 q 639 988 503 988 m 657 1078 q 544 1115 582 1078 q 507 1207 507 1151 q 510 1239 507 1217 l 511 1247 l 554 1247 q 551 1217 551 1236 q 581 1151 551 1174 q 667 1128 611 1128 q 771 1159 731 1128 q 822 1247 811 1190 l 864 1247 l 863 1239 q 796 1125 850 1172 q 657 1078 742 1078 z "},"ğ":{"ha":933,"x_min":22,"x_max":875,"o":"m 357 -11 q 137 69 218 -11 q 56 289 56 149 q 64 381 56 333 q 146 585 85 497 q 297 719 207 672 q 492 765 386 765 q 690 700 615 765 q 775 529 764 635 l 815 754 l 875 754 l 738 -22 q 660 -206 719 -126 q 517 -327 601 -285 q 339 -369 432 -369 q 117 -301 197 -369 q 22 -114 36 -232 l 85 -114 q 164 -260 99 -207 q 346 -314 229 -314 q 495 -279 425 -314 q 614 -178 565 -244 q 678 -22 663 -112 l 722 225 q 576 54 672 119 q 357 -11 479 -11 m 496 710 q 254 621 354 710 q 128 378 154 532 q 119 297 119 335 q 189 113 119 179 q 379 47 258 47 q 546 88 468 47 q 677 204 624 129 q 749 378 731 279 q 756 449 756 419 q 684 639 756 568 q 496 710 613 710 m 510 853 q 397 890 435 853 q 360 982 360 926 q 363 1014 360 992 l 364 1022 l 407 1022 q 404 992 404 1011 q 434 926 404 949 q 519 903 464 903 q 624 934 583 903 q 675 1022 664 965 l 717 1022 l 715 1014 q 649 900 703 947 q 510 853 594 853 z "},"Ġ":{"ha":1093,"x_min":75,"x_max":1028,"o":"m 643 988 q 903 905 804 988 q 1028 682 1003 822 l 963 682 q 855 861 940 793 q 633 929 769 929 q 417 876 519 929 q 244 722 315 822 q 150 489 174 622 q 140 388 140 426 q 183 203 140 281 q 303 86 226 126 q 482 46 381 46 q 691 96 592 46 q 862 239 790 146 q 961 458 933 332 l 528 458 l 536 507 l 1025 507 l 1017 460 q 910 217 989 324 q 717 49 832 110 q 468 -11 603 -11 q 260 38 349 -11 q 123 176 171 88 q 75 383 75 265 q 85 490 75 438 q 190 748 110 635 q 388 924 269 861 q 643 988 507 988 m 624 1146 q 646 1182 628 1167 q 685 1197 664 1197 q 718 1182 706 1197 q 726 1146 731 1167 q 706 1110 724 1125 q 667 1094 688 1094 q 633 1110 646 1094 q 624 1146 621 1125 z "},"ġ":{"ha":933,"x_min":28,"x_max":881,"o":"m 363 -11 q 142 69 224 -11 q 61 289 61 149 q 69 381 61 333 q 151 585 90 497 q 302 719 213 672 q 497 765 392 765 q 695 700 621 765 q 781 529 769 635 l 821 754 l 881 754 l 743 -22 q 666 -206 725 -126 q 522 -327 607 -285 q 344 -369 438 -369 q 122 -301 203 -369 q 28 -114 42 -232 l 90 -114 q 169 -260 104 -207 q 351 -314 235 -314 q 501 -279 431 -314 q 619 -178 571 -244 q 683 -22 668 -112 l 728 225 q 581 54 678 119 q 363 -11 485 -11 m 501 710 q 260 621 360 710 q 133 378 160 532 q 125 297 125 335 q 194 113 125 179 q 385 47 264 47 q 551 88 474 47 q 683 204 629 129 q 754 378 736 279 q 761 449 761 419 q 690 639 761 568 q 501 710 618 710 m 478 921 q 500 957 482 942 q 539 972 518 972 q 572 957 560 972 q 581 921 585 942 q 560 885 578 900 q 521 869 542 869 q 488 885 500 869 q 478 921 475 900 z "},"Ģ":{"ha":1094,"x_min":71,"x_max":1024,"o":"m 639 988 q 899 905 800 988 q 1024 682 999 822 l 958 682 q 851 861 936 793 q 629 929 765 929 q 413 876 515 929 q 240 722 311 822 q 146 489 169 622 q 136 388 136 426 q 179 203 136 281 q 299 86 222 126 q 478 46 376 46 q 687 96 588 46 q 858 239 786 146 q 957 458 929 332 l 524 458 l 532 507 l 1021 507 l 1013 460 q 906 217 985 324 q 713 49 828 110 q 464 -11 599 -11 q 256 38 344 -11 q 119 176 167 88 q 71 383 71 265 q 81 490 71 438 q 185 748 106 635 q 384 924 265 861 q 639 988 503 988 m 524 -78 q 518 -139 524 -115 q 472 -242 506 -211 q 388 -274 439 -274 l 393 -239 q 469 -160 457 -239 l 471 -150 l 421 -150 l 435 -78 l 524 -78 z "},"ģ":{"ha":933,"x_min":21,"x_max":874,"o":"m 493 825 q 503 932 496 892 q 548 1028 515 999 q 635 1057 581 1057 l 628 1019 q 576 1003 593 1019 q 551 951 558 986 l 544 915 l 604 915 l 589 825 l 493 825 m 356 -11 q 135 69 217 -11 q 54 289 54 149 q 63 381 54 333 q 144 585 83 497 q 295 719 206 672 q 490 765 385 765 q 688 700 614 765 q 774 529 763 635 l 814 754 l 874 754 l 736 -22 q 659 -206 718 -126 q 515 -327 600 -285 q 338 -369 431 -369 q 115 -301 196 -369 q 21 -114 35 -232 l 83 -114 q 163 -260 97 -207 q 344 -314 228 -314 q 494 -279 424 -314 q 613 -178 564 -244 q 676 -22 661 -112 l 721 225 q 574 54 671 119 q 356 -11 478 -11 m 494 710 q 253 621 353 710 q 126 378 153 532 q 118 297 118 335 q 188 113 118 179 q 378 47 257 47 q 544 88 467 47 q 676 204 622 129 q 747 378 729 279 q 754 449 754 419 q 683 639 754 568 q 494 710 611 710 z "},"Ĩ":{"ha":288,"x_min":36,"x_max":464,"o":"m 271 979 l 99 0 l 36 0 l 208 979 l 271 979 m 207 1176 q 248 1167 232 1176 q 283 1140 264 1158 q 315 1115 301 1124 q 350 1107 329 1107 q 394 1124 374 1107 q 424 1172 414 1140 l 464 1172 q 417 1094 450 1124 q 342 1064 383 1064 q 299 1073 315 1064 q 260 1101 282 1082 q 228 1124 240 1117 q 197 1132 215 1132 q 126 1065 147 1132 l 86 1065 q 134 1147 103 1118 q 207 1176 165 1176 z "},"ĩ":{"ha":288,"x_min":50,"x_max":428,"o":"m 250 754 l 115 0 l 53 0 l 186 754 l 250 754 m 171 951 q 212 942 196 951 q 247 915 228 933 q 279 890 265 899 q 314 882 293 882 q 358 899 338 882 q 388 947 378 915 l 428 947 q 381 869 414 899 q 306 839 347 839 q 263 848 279 839 q 224 876 246 857 q 192 899 204 892 q 161 907 179 907 q 90 840 111 907 l 50 840 q 98 922 67 893 q 171 951 129 951 z "},"Ī":{"ha":288,"x_min":35,"x_max":506,"o":"m 269 979 l 97 0 l 35 0 l 207 979 l 269 979 m 506 1182 l 496 1133 l 46 1133 l 56 1182 l 506 1182 z "},"ī":{"ha":289,"x_min":6,"x_max":465,"o":"m 249 754 l 114 0 l 51 0 l 185 754 l 249 754 m 465 957 l 456 908 l 6 908 l 15 957 l 465 957 z "},"Ĭ":{"ha":286,"x_min":29,"x_max":461,"o":"m 264 979 l 92 0 l 29 0 l 201 979 l 264 979 m 254 1078 q 142 1115 179 1078 q 104 1207 104 1151 q 107 1239 104 1217 l 108 1247 l 151 1247 q 149 1217 149 1236 q 178 1151 149 1174 q 264 1128 208 1128 q 368 1159 328 1128 q 419 1247 408 1190 l 461 1247 l 460 1239 q 393 1125 447 1172 q 254 1078 339 1078 z "},"ĭ":{"ha":288,"x_min":46,"x_max":425,"o":"m 243 754 l 108 0 l 46 0 l 179 754 l 243 754 m 218 853 q 106 890 143 853 q 68 982 68 926 q 71 1014 68 992 l 72 1022 l 115 1022 q 113 992 113 1011 q 142 926 113 949 q 228 903 172 903 q 332 934 292 903 q 383 1022 372 965 l 425 1022 l 424 1014 q 357 900 411 947 q 218 853 303 853 z "},"Į":{"ha":286,"x_min":-160,"x_max":258,"o":"m 258 979 l 86 0 l 24 0 l 196 979 l 258 979 m 89 13 l 81 -29 l 29 -29 q -71 -58 -33 -29 q -108 -136 -108 -86 q -81 -197 -108 -175 q -3 -218 -53 -218 l 104 -218 l 96 -261 l -15 -261 q -122 -229 -83 -261 q -160 -144 -160 -197 q -110 -31 -160 -74 q 31 13 -60 13 l 89 13 z "},"į":{"ha":285,"x_min":-143,"x_max":300,"o":"m 190 971 q 210 1015 190 997 q 254 1033 229 1033 q 287 1022 274 1033 q 300 992 300 1010 q 281 947 300 964 q 236 929 263 929 q 203 941 217 929 q 190 971 190 953 m 236 754 l 103 0 l 40 0 l 174 754 l 236 754 m 106 13 l 97 -29 l 46 -29 q -54 -58 -17 -29 q -92 -136 -92 -86 q -64 -197 -92 -175 q 14 -218 -36 -218 l 121 -218 l 113 -261 l 1 -261 q -105 -229 -67 -261 q -143 -144 -143 -197 q -93 -31 -143 -74 q 47 13 -43 13 l 106 13 z "},"İ":{"ha":288,"x_min":33,"x_max":329,"o":"m 268 979 l 96 0 l 33 0 l 206 979 l 268 979 m 222 1146 q 244 1182 226 1167 q 283 1197 263 1197 q 317 1182 304 1197 q 325 1146 329 1167 q 304 1110 322 1125 q 265 1094 286 1094 q 232 1110 244 1094 q 222 1146 219 1125 z "},"ı":{"ha":285,"x_min":44,"x_max":242,"o":"m 242 754 l 107 0 l 44 0 l 178 754 l 242 754 z "},"Ķ":{"ha":731,"x_min":18,"x_max":783,"o":"m 218 490 l 611 0 l 532 0 l 163 465 l 81 0 l 18 0 l 190 979 l 253 979 l 171 513 l 704 979 l 783 979 l 218 490 m 332 -78 q 329 -139 335 -107 q 281 -242 315 -211 q 197 -274 247 -274 l 204 -239 q 253 -219 236 -239 q 279 -160 271 -199 l 281 -150 l 231 -150 l 243 -78 l 332 -78 z "},"ķ":{"ha":597,"x_min":42,"x_max":638,"o":"m 214 383 l 513 0 l 431 0 l 165 351 l 104 0 l 42 0 l 222 1028 l 285 1028 l 178 418 l 557 754 l 638 754 l 214 383 m 178 -78 l 267 -78 q 261 -139 267 -115 q 215 -242 249 -211 q 131 -274 182 -274 l 136 -239 q 213 -160 200 -239 l 214 -150 l 164 -150 l 178 -78 z "},"Ĺ":{"ha":568,"x_min":25,"x_max":542,"o":"m 96 51 l 461 51 l 453 0 l 25 0 l 197 979 l 260 979 l 96 51 m 531 1217 l 228 1042 l 238 1092 l 542 1274 l 531 1217 z "},"ĺ":{"ha":307,"x_min":47,"x_max":538,"o":"m 290 1028 l 110 0 l 47 0 l 228 1028 l 290 1028 m 526 1261 l 224 1086 l 233 1136 l 538 1318 l 526 1261 z "},"Ļ":{"ha":569,"x_min":18,"x_max":454,"o":"m 89 51 l 454 51 l 446 0 l 18 0 l 190 979 l 253 979 l 89 51 m 301 -78 q 299 -139 301 -103 q 251 -243 285 -212 q 165 -274 217 -274 l 172 -239 q 223 -219 206 -239 q 247 -160 240 -199 l 250 -150 l 199 -150 l 213 -78 l 301 -78 z "},"ļ":{"ha":286,"x_min":-31,"x_max":285,"o":"m 285 1028 l 104 0 l 42 0 l 222 1028 l 285 1028 m 106 -78 q 101 -139 106 -112 q 55 -243 89 -212 q -31 -274 21 -274 l -24 -239 q 53 -160 38 -239 l 54 -150 l 4 -150 l 17 -78 l 106 -78 z "},"Ľ":{"ha":581,"x_min":24,"x_max":528,"o":"m 94 51 l 460 51 l 451 0 l 24 0 l 196 979 l 258 979 l 94 51 m 528 979 q 518 871 526 928 q 473 775 506 804 q 386 746 440 746 l 393 783 q 444 800 428 783 q 469 851 461 817 l 475 889 l 417 889 l 432 979 l 528 979 z "},"ľ":{"ha":317,"x_min":46,"x_max":463,"o":"m 289 1028 l 108 0 l 46 0 l 226 1028 l 289 1028 m 463 1028 q 454 921 463 979 q 408 825 442 854 q 321 796 375 796 l 329 833 q 381 850 364 833 q 404 901 399 867 l 411 938 l 353 938 l 368 1028 l 463 1028 z "},"Ŀ":{"ha":568,"x_min":24,"x_max":475,"o":"m 94 51 l 460 51 l 451 0 l 24 0 l 196 979 l 258 979 l 94 51 m 368 489 q 390 525 372 510 q 429 540 408 540 q 463 525 450 540 q 471 489 475 510 q 450 453 468 468 q 411 438 432 438 q 378 453 390 438 q 368 489 365 468 z "},"ŀ":{"ha":319,"x_min":32,"x_max":376,"o":"m 275 1028 l 94 0 l 32 0 l 213 1028 l 275 1028 m 269 514 q 292 550 274 535 q 331 565 310 565 q 364 550 351 565 q 372 514 376 535 q 351 478 369 493 q 313 463 333 463 q 279 478 292 463 q 269 514 267 493 z "},"Ł":{"ha":594,"x_min":1,"x_max":490,"o":"m 490 51 l 481 0 l 53 0 l 136 474 l 1 418 l 13 482 l 147 538 l 225 979 l 288 979 l 215 565 l 440 657 l 429 593 l 204 501 l 125 51 l 490 51 z "},"ł":{"ha":311,"x_min":18,"x_max":349,"o":"m 336 700 l 213 643 l 100 0 l 36 0 l 143 610 l 18 551 l 31 613 l 154 669 l 217 1028 l 281 1028 l 224 703 l 349 761 l 336 700 z "},"Ń":{"ha":921,"x_min":25,"x_max":894,"o":"m 722 0 l 660 0 l 242 872 l 88 0 l 25 0 l 197 978 l 260 978 l 678 106 l 832 978 l 894 978 l 722 0 m 838 1217 l 535 1042 l 544 1092 l 849 1274 l 838 1217 z "},"ń":{"ha":867,"x_min":43,"x_max":786,"o":"m 529 769 q 711 708 643 769 q 779 525 779 646 q 771 440 779 486 l 693 0 l 631 0 l 708 438 q 715 511 715 482 q 659 664 715 611 q 503 717 603 717 q 295 640 382 717 q 179 415 208 564 l 106 0 l 43 0 l 176 754 l 239 754 l 203 554 q 338 715 249 660 q 529 769 426 769 m 775 992 l 472 817 l 482 867 l 786 1049 l 775 992 z "},"Ņ":{"ha":922,"x_min":19,"x_max":889,"o":"m 717 0 l 654 0 l 236 872 l 82 0 l 19 0 l 192 978 l 254 978 l 672 106 l 826 978 l 889 978 l 717 0 m 431 -78 q 428 -139 433 -107 q 381 -243 414 -212 q 296 -274 347 -274 l 303 -239 q 352 -219 335 -239 q 378 -160 369 -199 l 379 -150 l 329 -150 l 342 -78 l 431 -78 z "},"ņ":{"ha":867,"x_min":40,"x_max":776,"o":"m 526 769 q 708 708 640 769 q 776 525 776 646 q 768 440 776 486 l 690 0 l 628 0 l 706 438 q 713 511 713 482 q 656 664 713 611 q 500 717 600 717 q 292 640 379 717 q 176 415 206 564 l 103 0 l 40 0 l 174 754 l 236 754 l 200 554 q 335 715 246 660 q 526 769 424 769 m 429 -78 q 425 -139 432 -111 q 379 -243 413 -212 q 294 -274 346 -274 l 300 -239 q 376 -160 364 -239 l 378 -150 l 328 -150 l 340 -78 l 429 -78 z "},"Ň":{"ha":922,"x_min":28,"x_max":897,"o":"m 725 0 l 663 0 l 244 872 l 90 0 l 28 0 l 200 978 l 263 978 l 681 106 l 835 978 l 897 978 l 725 0 m 771 1190 l 572 1078 l 413 1190 l 422 1240 l 582 1126 l 779 1240 l 771 1190 z "},"ň":{"ha":868,"x_min":47,"x_max":783,"o":"m 533 769 q 715 708 647 769 q 783 525 783 646 q 775 440 783 486 l 697 0 l 635 0 l 713 438 q 719 511 719 482 q 663 664 719 611 q 507 717 607 717 q 299 640 386 717 q 183 415 213 564 l 110 0 l 47 0 l 181 754 l 243 754 l 207 554 q 342 715 253 660 q 533 769 431 769 m 707 965 l 508 853 l 349 965 l 358 1015 l 518 901 l 715 1015 l 707 965 z "},"Ō":{"ha":1097,"x_min":78,"x_max":1036,"o":"m 639 988 q 849 938 758 988 q 988 799 939 889 q 1036 590 1036 708 q 1026 482 1036 535 q 923 226 1001 339 q 727 51 844 114 q 475 -11 610 -11 q 264 38 354 -11 q 126 178 174 88 q 78 386 78 268 q 88 496 78 443 q 191 751 113 639 q 387 925 269 863 q 639 988 504 988 m 633 931 q 417 877 519 931 q 244 724 315 824 q 150 490 174 624 q 140 390 140 429 q 183 207 140 285 q 303 88 226 129 q 481 47 381 47 q 697 101 594 47 q 869 254 799 154 q 964 488 940 354 q 972 586 972 540 q 930 769 972 692 q 810 889 888 847 q 633 931 733 931 m 911 1182 l 901 1133 l 451 1133 l 461 1182 l 911 1182 z "},"ō":{"ha":897,"x_min":76,"x_max":838,"o":"m 525 764 q 752 683 667 764 q 838 461 838 603 q 829 374 838 419 q 744 169 808 256 q 588 36 681 82 q 390 -10 496 -10 q 163 71 249 -10 q 76 294 76 151 q 85 381 76 335 q 169 585 106 497 q 326 718 233 672 q 525 764 419 764 m 517 708 q 357 672 433 708 q 224 562 281 636 q 149 378 168 488 q 140 297 140 335 q 214 110 140 175 q 399 46 288 46 q 557 82 481 46 q 690 193 633 118 q 765 378 746 268 q 774 458 774 422 q 701 644 774 581 q 517 708 628 708 m 769 957 l 760 908 l 310 908 l 319 957 l 769 957 z "},"Ŏ":{"ha":1097,"x_min":71,"x_max":1029,"o":"m 632 988 q 842 938 751 988 q 981 799 932 889 q 1029 590 1029 708 q 1019 482 1029 535 q 916 226 994 339 q 720 51 838 114 q 468 -11 603 -11 q 257 38 347 -11 q 119 178 167 88 q 71 386 71 268 q 81 496 71 443 q 184 751 106 639 q 380 925 263 863 q 632 988 497 988 m 626 931 q 410 877 513 931 q 238 724 308 824 q 143 490 167 624 q 133 390 133 429 q 176 207 133 285 q 297 88 219 129 q 474 47 374 47 q 690 101 588 47 q 863 254 792 154 q 957 488 933 354 q 965 586 965 540 q 923 769 965 692 q 803 889 881 847 q 626 931 726 931 m 658 1078 q 546 1115 583 1078 q 508 1207 508 1151 q 511 1239 508 1217 l 513 1247 l 556 1247 q 553 1217 553 1236 q 583 1151 553 1174 q 668 1128 613 1128 q 772 1159 732 1128 q 824 1247 813 1190 l 865 1247 l 864 1239 q 797 1125 851 1172 q 658 1078 743 1078 z "},"ŏ":{"ha":897,"x_min":69,"x_max":831,"o":"m 518 764 q 745 683 660 764 q 831 461 831 603 q 822 374 831 419 q 738 169 801 256 q 581 36 674 82 q 383 -10 489 -10 q 156 71 242 -10 q 69 294 69 151 q 78 381 69 335 q 163 585 99 497 q 319 718 226 672 q 518 764 413 764 m 510 708 q 350 672 426 708 q 217 562 274 636 q 142 378 161 488 q 133 297 133 335 q 207 110 133 175 q 392 46 281 46 q 550 82 474 46 q 683 193 626 118 q 758 378 739 268 q 767 458 767 422 q 694 644 767 581 q 510 708 621 708 m 517 853 q 404 890 442 853 q 367 982 367 926 q 369 1014 367 992 l 371 1022 l 414 1022 q 411 992 411 1011 q 441 926 411 949 q 526 903 471 903 q 631 934 590 903 q 682 1022 671 965 l 724 1022 l 722 1014 q 656 900 710 947 q 517 853 601 853 z "},"Ő":{"ha":1097,"x_min":72,"x_max":1031,"o":"m 633 988 q 843 938 753 988 q 982 799 933 889 q 1031 590 1031 708 q 1021 482 1031 535 q 917 226 996 339 q 722 51 839 114 q 469 -11 604 -11 q 258 38 349 -11 q 120 178 168 88 q 72 386 72 268 q 82 496 72 443 q 185 751 107 639 q 381 925 264 863 q 633 988 499 988 m 628 931 q 412 877 514 931 q 239 724 310 824 q 144 490 168 624 q 135 390 135 429 q 178 207 135 285 q 298 88 221 129 q 475 47 375 47 q 691 101 589 47 q 864 254 793 154 q 958 488 935 354 q 967 586 967 540 q 924 769 967 692 q 805 889 882 847 q 628 931 728 931 m 590 1060 l 543 1060 l 658 1229 l 717 1229 l 590 1060 m 764 1060 l 717 1060 l 843 1229 l 901 1229 l 764 1060 z "},"ő":{"ha":897,"x_min":72,"x_max":833,"o":"m 521 764 q 748 683 663 764 q 833 461 833 603 q 825 374 833 419 q 740 169 804 256 q 584 36 676 82 q 386 -10 492 -10 q 158 71 244 -10 q 72 294 72 151 q 81 381 72 335 q 165 585 101 497 q 322 718 229 672 q 521 764 415 764 m 513 708 q 353 672 429 708 q 220 562 276 636 q 144 378 164 488 q 136 297 136 335 q 210 110 136 175 q 394 46 283 46 q 553 82 476 46 q 685 193 629 118 q 761 378 742 268 q 769 458 769 422 q 697 644 769 581 q 513 708 624 708 m 453 835 l 406 835 l 521 1004 l 579 1004 l 453 835 m 626 835 l 579 835 l 706 1004 l 764 1004 l 626 835 z "},"Œ":{"ha":1526,"x_min":68,"x_max":1546,"o":"m 1028 515 l 1424 515 l 1414 465 l 1019 465 l 946 53 l 1382 53 l 1374 0 l 874 0 l 926 299 q 815 135 888 206 q 651 26 743 65 q 460 -12 558 -12 q 253 37 342 -12 q 116 176 164 86 q 68 385 68 267 q 78 492 68 439 q 182 749 103 636 q 379 924 261 861 q 633 988 497 988 q 811 949 732 988 q 939 841 890 911 q 994 678 988 771 l 1046 979 l 1546 979 l 1538 926 l 1100 926 l 1028 515 m 472 46 q 688 100 586 46 q 862 254 790 154 q 957 488 933 354 q 965 586 965 540 q 923 769 965 692 q 803 889 881 847 q 628 931 726 931 q 412 877 514 931 q 239 724 310 824 q 144 490 168 624 q 135 389 135 428 q 177 206 135 283 q 296 87 219 128 q 472 46 372 46 z "},"œ":{"ha":1551,"x_min":67,"x_max":1490,"o":"m 1192 764 q 1356 727 1289 764 q 1457 629 1424 690 q 1490 493 1490 568 q 1485 433 1490 472 q 1465 360 1475 382 l 815 360 q 810 290 810 326 q 881 106 810 168 q 1061 43 953 43 q 1263 101 1175 43 q 1386 258 1351 158 l 1451 258 q 1303 64 1410 138 q 1054 -10 1197 -10 q 854 54 932 -10 q 763 233 776 118 q 606 55 708 119 q 379 -10 503 -10 q 152 71 238 -10 q 67 292 67 151 q 75 378 67 332 q 160 583 96 496 q 317 717 224 671 q 515 764 410 764 q 719 699 639 764 q 813 521 799 635 q 967 700 867 636 q 1192 764 1068 764 m 1417 397 q 1428 486 1428 449 q 1357 655 1428 597 q 1182 713 1286 713 q 1026 678 1101 713 q 897 572 951 643 q 822 397 842 501 l 1417 397 m 756 378 q 763 457 763 413 q 690 644 763 581 q 506 708 617 708 q 347 672 424 708 q 214 562 271 636 q 138 378 157 488 q 131 299 131 343 q 204 110 131 175 q 389 46 278 46 q 547 82 471 46 q 680 193 624 118 q 756 378 736 268 z "},"Ŕ":{"ha":767,"x_min":25,"x_max":801,"o":"m 471 979 q 679 922 611 979 q 747 761 747 864 q 742 696 747 725 q 635 499 719 571 q 413 418 550 428 l 626 0 l 554 0 l 343 417 l 161 417 l 88 0 l 25 0 l 197 979 l 471 979 m 678 694 q 683 751 683 736 q 458 922 683 922 l 250 922 l 169 468 l 378 468 q 678 694 638 468 m 790 1217 l 488 1042 l 497 1092 l 801 1274 l 790 1217 z "},"ŕ":{"ha":492,"x_min":43,"x_max":638,"o":"m 210 588 q 336 723 254 676 q 533 769 418 769 l 521 701 l 499 701 q 296 638 385 701 q 182 431 207 574 l 106 0 l 43 0 l 176 754 l 239 754 l 210 588 m 626 992 l 324 817 l 333 867 l 638 1049 l 626 992 z "},"Ŗ":{"ha":772,"x_min":13,"x_max":735,"o":"m 458 979 q 667 922 599 979 q 735 761 735 864 q 729 696 735 725 q 622 499 707 571 q 400 418 538 428 l 614 0 l 542 0 l 331 417 l 149 417 l 75 0 l 13 0 l 185 979 l 458 979 m 665 694 q 671 751 671 736 q 446 922 671 922 l 238 922 l 157 468 l 365 468 q 665 694 625 468 m 260 -78 l 349 -78 q 344 -139 349 -112 q 298 -243 332 -212 q 213 -274 264 -274 l 219 -239 q 270 -219 253 -239 q 294 -160 288 -199 l 296 -150 l 246 -150 l 260 -78 z "},"ŗ":{"ha":492,"x_min":-8,"x_max":546,"o":"m 222 588 q 349 723 267 676 q 546 769 431 769 l 533 701 l 511 701 q 308 638 397 701 q 194 431 219 574 l 118 0 l 56 0 l 189 754 l 251 754 l 222 588 m 126 -78 q 124 -139 129 -107 q 76 -243 110 -212 q -8 -274 43 -274 l -3 -239 q 74 -160 61 -239 l 76 -150 l 25 -150 l 38 -78 l 126 -78 z "},"Ř":{"ha":767,"x_min":28,"x_max":750,"o":"m 474 979 q 682 922 614 979 q 750 761 750 864 q 744 696 750 725 q 638 499 722 571 q 415 418 553 428 l 629 0 l 557 0 l 346 417 l 164 417 l 90 0 l 28 0 l 200 979 l 474 979 m 681 694 q 686 751 686 736 q 461 922 686 922 l 253 922 l 172 468 l 381 468 q 681 694 640 468 m 724 1190 l 525 1078 l 365 1190 l 375 1240 l 535 1126 l 732 1240 l 724 1190 z "},"ř":{"ha":492,"x_min":47,"x_max":568,"o":"m 214 588 q 340 723 258 676 q 538 769 422 769 l 525 701 l 503 701 q 300 638 389 701 q 186 431 211 574 l 110 0 l 47 0 l 181 754 l 243 754 l 214 588 m 560 965 l 361 853 l 201 965 l 211 1015 l 371 901 l 568 1015 l 560 965 z "},"Ś":{"ha":760,"x_min":36,"x_max":769,"o":"m 639 225 q 592 112 629 165 q 488 24 554 58 q 332 -10 422 -10 q 170 26 238 -10 q 69 121 103 63 q 39 244 36 179 l 104 244 q 124 152 103 199 q 199 74 146 106 q 336 42 251 42 q 497 94 435 42 q 572 228 558 147 q 576 278 576 256 q 547 379 576 340 q 473 440 517 418 q 354 488 429 461 q 228 538 275 515 q 150 605 182 561 q 118 718 118 649 q 124 779 118 750 q 221 931 140 872 q 426 989 301 989 q 581 957 518 989 q 674 874 643 925 q 708 765 706 822 l 643 765 q 618 844 640 804 q 547 910 596 883 q 422 938 499 938 q 267 894 331 938 q 190 774 204 851 q 186 728 186 749 q 215 633 186 669 q 287 576 244 597 q 401 531 329 556 q 529 479 481 504 q 611 408 578 454 q 644 289 644 363 q 639 225 644 257 m 758 1217 l 456 1042 l 465 1092 l 769 1274 l 758 1217 z "},"ś":{"ha":689,"x_min":33,"x_max":693,"o":"m 354 764 q 555 701 486 764 q 619 528 624 638 l 558 528 q 510 662 563 608 q 347 715 457 715 q 210 671 261 715 q 160 556 160 626 q 185 483 160 511 q 247 440 210 456 q 347 407 283 425 q 465 366 421 386 q 541 308 510 346 q 572 208 572 271 q 567 157 572 196 q 489 36 553 82 q 324 -10 425 -10 q 110 53 188 -10 q 38 226 33 117 l 100 226 q 152 92 93 146 q 332 39 211 39 q 451 73 404 39 q 507 161 497 107 q 510 197 510 174 q 483 279 510 247 q 416 328 456 311 q 311 363 376 344 q 199 401 240 383 q 129 454 158 419 q 100 546 100 489 q 104 592 100 567 q 185 717 118 671 q 354 764 251 764 m 682 992 l 379 817 l 389 867 l 693 1049 l 682 992 z "},"Ş":{"ha":760,"x_min":36,"x_max":708,"o":"m 639 225 q 592 112 629 165 q 488 24 554 58 q 332 -10 422 -10 q 170 26 238 -10 q 69 121 103 63 q 39 244 36 179 l 104 244 q 124 152 103 199 q 199 74 146 106 q 336 42 251 42 q 497 94 435 42 q 572 228 558 147 q 576 278 576 256 q 547 379 576 340 q 473 440 517 418 q 354 488 429 461 q 228 538 275 515 q 150 605 182 561 q 118 718 118 649 q 124 779 118 750 q 221 931 140 872 q 426 989 301 989 q 581 957 518 989 q 674 874 643 925 q 708 765 706 822 l 643 765 q 618 844 640 804 q 547 910 596 883 q 422 938 499 938 q 267 894 331 938 q 190 774 204 851 q 186 728 186 749 q 215 633 186 669 q 287 576 244 597 q 401 531 329 556 q 529 479 481 504 q 611 408 578 454 q 644 289 644 363 q 639 225 644 257 m 318 -112 q 433 -135 390 -108 q 475 -215 475 -162 q 427 -319 475 -283 q 299 -356 379 -356 l 189 -356 l 197 -312 l 296 -312 q 422 -240 411 -312 q 424 -221 424 -233 q 324 -153 424 -153 l 264 -153 l 293 10 l 339 10 l 318 -112 z "},"ş":{"ha":689,"x_min":39,"x_max":629,"o":"m 360 764 q 560 701 492 764 q 625 528 629 638 l 564 528 q 515 662 568 608 q 353 715 463 715 q 216 671 267 715 q 165 556 165 626 q 190 483 165 511 q 252 440 215 456 q 353 407 289 425 q 471 366 426 386 q 547 308 515 346 q 578 208 578 271 q 572 157 578 196 q 494 36 558 82 q 329 -10 431 -10 q 116 53 193 -10 q 43 226 39 117 l 106 226 q 158 92 99 146 q 338 39 217 39 q 456 73 410 39 q 513 161 503 107 q 515 197 515 174 q 488 279 515 247 q 422 328 461 311 q 317 363 382 344 q 205 401 246 383 q 135 454 164 419 q 106 546 106 489 q 110 592 106 567 q 190 717 124 671 q 360 764 257 764 m 318 -112 q 433 -135 390 -108 q 475 -215 475 -162 q 427 -319 475 -283 q 299 -356 379 -356 l 189 -356 l 197 -312 l 296 -312 q 422 -240 411 -312 q 424 -221 424 -233 q 324 -153 424 -153 l 264 -153 l 293 10 l 339 10 l 318 -112 z "},"Š":{"ha":760,"x_min":39,"x_max":711,"o":"m 642 225 q 594 112 632 165 q 491 24 557 58 q 335 -10 425 -10 q 173 26 240 -10 q 72 121 106 63 q 42 244 39 179 l 107 244 q 127 152 106 199 q 201 74 149 106 q 339 42 254 42 q 499 94 438 42 q 575 228 561 147 q 579 278 579 256 q 549 379 579 340 q 476 440 519 418 q 357 488 432 461 q 231 538 278 515 q 153 605 185 561 q 121 718 121 649 q 126 779 121 750 q 224 931 143 872 q 429 989 304 989 q 583 957 521 989 q 677 874 646 925 q 711 765 708 822 l 646 765 q 621 844 643 804 q 550 910 599 883 q 425 938 501 938 q 270 894 333 938 q 193 774 207 851 q 189 728 189 749 q 218 633 189 669 q 290 576 247 597 q 404 531 332 556 q 532 479 483 504 q 614 408 581 454 q 647 289 647 363 q 642 225 647 257 m 690 1190 l 492 1078 l 332 1190 l 342 1240 l 501 1126 l 699 1240 l 690 1190 z "},"š":{"ha":689,"x_min":36,"x_max":626,"o":"m 357 764 q 558 701 489 764 q 622 528 626 638 l 561 528 q 513 662 565 608 q 350 715 460 715 q 213 671 264 715 q 163 556 163 626 q 188 483 163 511 q 249 440 213 456 q 350 407 286 425 q 468 366 424 386 q 544 308 513 346 q 575 208 575 271 q 569 157 575 196 q 492 36 556 82 q 326 -10 428 -10 q 113 53 190 -10 q 40 226 36 117 l 103 226 q 155 92 96 146 q 335 39 214 39 q 453 73 407 39 q 510 161 500 107 q 513 197 513 174 q 485 279 513 247 q 419 328 458 311 q 314 363 379 344 q 202 401 243 383 q 132 454 161 419 q 103 546 103 489 q 107 592 103 567 q 188 717 121 671 q 357 764 254 764 m 615 965 l 417 853 l 257 965 l 267 1015 l 426 901 l 624 1015 l 615 965 z "},"Ţ":{"ha":678,"x_min":101,"x_max":739,"o":"m 739 979 l 728 926 l 446 926 l 283 1 q 429 -89 429 -3 q 426 -112 429 -96 q 368 -205 415 -171 q 249 -239 321 -239 l 142 -239 l 150 -194 l 250 -194 q 376 -111 363 -194 q 378 -97 378 -107 q 354 -52 378 -69 q 278 -35 331 -35 l 214 -35 l 383 926 l 101 926 l 113 979 l 739 979 z "},"ţ":{"ha":486,"x_min":69,"x_max":485,"o":"m 167 213 q 161 153 161 183 q 190 78 161 99 q 283 57 218 57 l 363 57 l 353 0 l 267 0 l 249 0 l 229 -112 q 344 -133 303 -108 q 386 -208 386 -158 q 385 -231 386 -222 q 326 -322 374 -289 q 207 -356 279 -356 l 100 -356 l 108 -312 l 207 -312 q 335 -229 318 -312 q 336 -215 336 -225 q 313 -170 336 -187 q 236 -153 289 -153 l 176 -153 l 203 6 q 124 49 150 17 q 97 142 97 82 q 104 213 97 168 l 189 697 l 69 697 l 81 754 l 200 754 l 233 946 l 296 946 l 263 754 l 485 754 l 475 697 l 251 697 l 167 213 z "},"Ť":{"ha":678,"x_min":104,"x_max":740,"o":"m 740 979 l 731 926 l 449 926 l 286 0 l 222 0 l 386 926 l 104 926 l 114 979 l 740 979 m 649 1190 l 450 1078 l 290 1190 l 300 1240 l 460 1126 l 657 1240 l 649 1190 z "},"ť":{"ha":485,"x_min":64,"x_max":503,"o":"m 503 1054 q 493 949 500 989 q 449 855 482 883 q 361 826 417 826 l 369 864 q 422 879 404 864 q 444 926 439 894 l 450 964 l 392 964 l 407 1054 l 503 1054 m 256 754 l 478 754 l 468 697 l 246 697 l 160 213 q 154 154 154 183 q 183 78 154 100 q 278 57 213 57 l 356 57 l 346 0 l 260 0 q 132 33 174 0 q 90 142 90 65 q 97 213 90 168 l 182 697 l 64 697 l 74 754 l 193 754 l 226 946 l 290 946 l 256 754 z "},"Ũ":{"ha":889,"x_min":85,"x_max":881,"o":"m 264 979 l 158 378 q 149 276 149 325 q 209 103 149 158 q 378 49 269 49 q 593 128 506 49 q 711 378 681 207 l 817 979 l 881 979 l 774 378 q 631 86 739 182 q 368 -10 524 -10 q 160 58 236 -10 q 85 265 85 126 q 96 378 85 314 l 201 979 l 264 979 m 507 1176 q 548 1167 532 1176 q 583 1140 564 1158 q 615 1115 601 1124 q 650 1107 629 1107 q 694 1124 674 1107 q 724 1172 714 1140 l 764 1172 q 717 1094 750 1124 q 642 1064 683 1064 q 599 1073 615 1064 q 560 1101 582 1082 q 528 1124 540 1117 q 497 1132 515 1132 q 426 1065 447 1132 l 386 1065 q 434 1147 403 1118 q 507 1176 465 1176 z "},"ũ":{"ha":849,"x_min":76,"x_max":814,"o":"m 814 754 l 679 0 l 617 0 l 651 197 q 517 39 604 93 q 326 -15 429 -15 q 144 47 213 -15 q 76 231 76 108 q 85 315 76 269 l 164 754 l 225 754 l 147 317 q 140 243 140 272 q 197 91 140 143 q 353 39 253 39 q 564 119 476 39 q 679 354 651 199 l 750 754 l 814 754 m 435 951 q 476 942 460 951 q 511 915 492 933 q 543 890 529 899 q 578 882 557 882 q 622 899 601 882 q 651 947 642 915 l 692 947 q 644 869 678 899 q 569 839 611 839 q 526 848 543 839 q 488 876 510 857 q 456 899 468 892 q 425 907 443 907 q 354 840 375 907 l 314 840 q 362 922 331 893 q 435 951 393 951 z "},"Ū":{"ha":889,"x_min":85,"x_max":881,"o":"m 264 979 l 158 378 q 149 276 149 325 q 209 103 149 158 q 378 49 269 49 q 593 128 506 49 q 711 378 681 207 l 817 979 l 881 979 l 774 378 q 631 86 739 182 q 368 -10 524 -10 q 160 58 236 -10 q 85 265 85 126 q 96 378 85 314 l 201 979 l 264 979 m 806 1182 l 796 1133 l 346 1133 l 356 1182 l 806 1182 z "},"ū":{"ha":849,"x_min":75,"x_max":813,"o":"m 813 754 l 678 0 l 615 0 l 650 197 q 515 39 603 93 q 325 -15 428 -15 q 143 47 211 -15 q 75 231 75 108 q 83 315 75 269 l 163 754 l 224 754 l 146 317 q 139 243 139 272 q 195 91 139 143 q 351 39 251 39 q 563 119 475 39 q 678 354 650 199 l 749 754 l 813 754 m 735 957 l 725 908 l 275 908 l 285 957 l 735 957 z "},"Ŭ":{"ha":889,"x_min":79,"x_max":875,"o":"m 258 979 l 153 378 q 143 276 143 325 q 203 103 143 158 q 372 49 264 49 q 588 128 500 49 q 706 378 675 207 l 811 979 l 875 979 l 768 378 q 626 86 733 182 q 363 -10 518 -10 q 155 58 231 -10 q 79 265 79 126 q 90 378 79 314 l 196 979 l 258 979 m 554 1078 q 442 1115 479 1078 q 404 1207 404 1151 q 407 1239 404 1217 l 408 1247 l 451 1247 q 449 1217 449 1236 q 478 1151 449 1174 q 564 1128 508 1128 q 668 1159 628 1128 q 719 1247 708 1190 l 761 1247 l 760 1239 q 693 1125 747 1172 q 554 1078 639 1078 z "},"ŭ":{"ha":849,"x_min":69,"x_max":807,"o":"m 807 754 l 672 0 l 610 0 l 644 197 q 510 39 597 93 q 319 -15 422 -15 q 138 47 206 -15 q 69 231 69 108 q 78 315 69 269 l 157 754 l 218 754 l 140 317 q 133 243 133 272 q 190 91 133 143 q 346 39 246 39 q 557 119 469 39 q 672 354 644 199 l 743 754 l 807 754 m 482 853 q 369 890 407 853 q 332 982 332 926 q 335 1014 332 992 l 336 1022 l 379 1022 q 376 992 376 1011 q 406 926 376 949 q 492 903 436 903 q 596 934 556 903 q 647 1022 636 965 l 689 1022 l 688 1014 q 621 900 675 947 q 482 853 567 853 z "},"Ů":{"ha":889,"x_min":71,"x_max":867,"o":"m 250 979 l 144 378 q 135 276 135 325 q 195 103 135 158 q 364 49 256 49 q 579 128 492 49 q 697 378 667 207 l 803 979 l 867 979 l 760 378 q 617 86 725 182 q 354 -10 510 -10 q 147 58 222 -10 q 71 265 71 126 q 82 378 71 314 l 188 979 l 250 979 m 583 1340 q 664 1312 632 1340 q 696 1235 696 1283 q 693 1208 696 1228 q 638 1111 682 1147 q 538 1075 593 1075 q 456 1103 488 1075 q 425 1182 425 1132 q 428 1208 425 1189 q 483 1304 439 1268 q 583 1340 528 1340 m 578 1303 q 499 1271 532 1303 q 465 1186 465 1239 q 487 1133 465 1153 q 543 1113 508 1113 q 615 1138 583 1113 q 654 1208 646 1164 q 656 1228 656 1215 q 635 1283 656 1263 q 578 1303 614 1303 z "},"ů":{"ha":849,"x_min":61,"x_max":799,"o":"m 799 754 l 664 0 l 601 0 l 636 197 q 501 39 589 93 q 311 -15 414 -15 q 129 47 197 -15 q 61 231 61 108 q 69 315 61 269 l 149 754 l 210 754 l 132 317 q 125 243 125 272 q 181 91 125 143 q 338 39 238 39 q 549 119 461 39 q 664 354 636 199 l 735 754 l 799 754 m 513 1115 q 593 1087 561 1115 q 625 1010 625 1058 q 622 983 625 1003 q 567 886 611 922 q 467 850 522 850 q 385 878 417 850 q 354 957 354 907 q 357 983 354 964 q 413 1079 368 1043 q 513 1115 457 1115 m 507 1078 q 428 1046 461 1078 q 394 961 394 1014 q 416 908 394 928 q 472 888 438 888 q 544 913 513 888 q 583 983 575 939 q 585 1003 585 990 q 564 1058 585 1038 q 507 1078 543 1078 z "},"Ű":{"ha":889,"x_min":81,"x_max":876,"o":"m 260 979 l 154 378 q 144 276 144 325 q 205 103 144 158 q 374 49 265 49 q 589 128 501 49 q 707 378 676 207 l 813 979 l 876 979 l 769 378 q 627 86 735 182 q 364 -10 519 -10 q 156 58 232 -10 q 81 265 81 126 q 92 378 81 314 l 197 979 l 260 979 m 476 1060 l 429 1060 l 544 1229 l 603 1229 l 476 1060 m 650 1060 l 603 1060 l 729 1229 l 788 1229 l 650 1060 z "},"ű":{"ha":849,"x_min":71,"x_max":808,"o":"m 808 754 l 674 0 l 611 0 l 646 197 q 511 39 599 93 q 321 -15 424 -15 q 139 47 207 -15 q 71 231 71 108 q 79 315 71 269 l 158 754 l 219 754 l 142 317 q 135 243 135 272 q 191 91 135 143 q 347 39 247 39 q 558 119 471 39 q 674 354 646 199 l 744 754 l 808 754 m 404 835 l 357 835 l 472 1004 l 531 1004 l 404 835 m 578 835 l 531 835 l 657 1004 l 715 1004 l 578 835 z "},"Ų":{"ha":889,"x_min":83,"x_max":878,"o":"m 261 979 l 156 378 q 146 276 146 325 q 207 103 146 158 q 376 49 268 49 q 710 378 650 49 l 815 979 l 878 979 l 772 378 q 642 101 739 194 q 404 -7 546 7 q 323 -36 354 -11 q 283 -103 292 -61 q 282 -119 282 -108 q 309 -176 282 -156 q 388 -196 336 -196 l 493 -196 l 485 -240 l 372 -240 q 268 -209 304 -240 q 232 -126 232 -178 q 233 -101 232 -110 q 263 -42 240 -69 q 315 -6 285 -15 q 146 81 208 10 q 83 276 83 151 q 93 378 83 328 l 199 979 l 261 979 z "},"ų":{"ha":849,"x_min":60,"x_max":797,"o":"m 797 754 l 663 0 l 600 0 l 635 197 q 500 39 588 93 q 310 -15 413 -15 q 128 47 196 -15 q 60 231 60 108 q 68 315 60 269 l 147 754 l 208 754 l 131 317 q 124 243 124 272 q 180 91 124 143 q 336 39 236 39 q 547 119 460 39 q 663 354 635 199 l 733 754 l 797 754 m 664 13 l 656 -29 l 604 -29 q 504 -58 542 -29 q 467 -136 467 -86 q 494 -197 467 -175 q 572 -218 522 -218 l 679 -218 l 671 -261 l 560 -261 q 453 -229 492 -261 q 415 -144 415 -197 q 465 -31 415 -74 q 606 13 515 13 l 664 13 z "},"Ŵ":{"ha":1290,"x_min":135,"x_max":1329,"o":"m 1329 979 l 900 0 l 828 0 l 717 883 l 293 0 l 221 0 l 135 979 l 206 979 l 274 90 l 697 979 l 768 979 l 878 90 l 1258 979 l 1329 979 m 775 1194 l 576 1082 l 586 1131 l 785 1244 l 943 1131 l 933 1082 l 775 1194 z "},"ŵ":{"ha":1133,"x_min":89,"x_max":1174,"o":"m 1174 754 l 810 0 l 749 0 l 617 672 l 246 0 l 185 0 l 89 754 l 154 754 l 233 78 l 601 754 l 664 754 l 793 78 l 1111 754 l 1174 754 m 657 969 l 458 857 l 468 906 l 667 1019 l 825 906 l 815 857 l 657 969 z "},"Ŷ":{"ha":757,"x_min":124,"x_max":807,"o":"m 807 979 l 396 396 l 326 0 l 264 0 l 333 396 l 124 979 l 197 979 l 375 463 l 735 979 l 807 979 m 508 1194 l 310 1082 l 319 1131 l 518 1244 l 676 1131 l 667 1082 l 508 1194 z "},"ŷ":{"ha":729,"x_min":44,"x_max":750,"o":"m 136 754 l 301 83 l 681 754 l 750 754 l 117 -356 l 44 -356 l 253 4 l 67 754 l 136 754 m 443 969 l 244 857 l 254 906 l 453 1019 l 611 906 l 601 857 l 443 969 z "},"Ÿ":{"ha":757,"x_min":128,"x_max":811,"o":"m 811 979 l 400 396 l 331 0 l 268 0 l 338 396 l 128 979 l 201 979 l 379 463 l 739 979 l 811 979 m 356 1146 q 377 1182 360 1167 q 417 1197 394 1197 q 450 1182 438 1197 q 458 1146 463 1167 q 438 1110 456 1125 q 399 1094 419 1094 q 365 1110 376 1094 q 356 1146 353 1125 m 557 1136 q 576 1178 557 1160 q 618 1197 594 1197 q 649 1185 636 1197 q 661 1156 661 1174 q 642 1113 661 1132 q 600 1094 624 1094 q 569 1106 582 1094 q 557 1136 557 1118 z "},"Ź":{"ha":701,"x_min":-36,"x_max":739,"o":"m 42 54 l 572 54 l 563 0 l -36 0 l -28 53 l 644 924 l 143 924 l 151 979 l 722 979 l 714 925 l 42 54 m 728 1217 l 425 1042 l 435 1092 l 739 1274 l 728 1217 z "},"ź":{"ha":585,"x_min":-29,"x_max":638,"o":"m 50 54 l 488 54 l 476 0 l -29 0 l -18 53 l 515 700 l 108 700 l 118 754 l 596 754 l 586 703 l 50 54 m 626 992 l 324 817 l 333 867 l 638 1049 l 626 992 z "},"Ż":{"ha":701,"x_min":-29,"x_max":729,"o":"m 49 54 l 579 54 l 569 0 l -29 0 l -21 53 l 651 924 l 150 924 l 158 979 l 729 979 l 721 925 l 49 54 m 426 1146 q 449 1182 431 1167 q 488 1197 467 1197 q 521 1182 508 1197 q 529 1146 533 1167 q 508 1110 526 1125 q 469 1094 490 1094 q 436 1110 449 1094 q 426 1146 424 1125 z "},"ż":{"ha":585,"x_min":-24,"x_max":601,"o":"m 56 54 l 493 54 l 482 0 l -24 0 l -12 53 l 521 700 l 114 700 l 124 754 l 601 754 l 592 703 l 56 54 m 325 921 q 347 957 329 942 q 386 972 365 972 q 419 957 407 972 q 428 921 432 942 q 407 885 425 900 q 368 869 389 869 q 335 885 347 869 q 325 921 322 900 z "},"Ž":{"ha":701,"x_min":-33,"x_max":725,"o":"m 44 54 l 575 54 l 565 0 l -33 0 l -25 53 l 647 924 l 146 924 l 154 979 l 725 979 l 717 925 l 44 54 m 660 1190 l 461 1078 l 301 1190 l 311 1240 l 471 1126 l 668 1240 l 660 1190 z "},"ž":{"ha":585,"x_min":-25,"x_max":600,"o":"m 54 54 l 492 54 l 481 0 l -25 0 l -14 53 l 519 700 l 113 700 l 122 754 l 600 754 l 590 703 l 54 54 m 563 965 l 364 853 l 204 965 l 214 1015 l 374 901 l 571 1015 l 563 965 z "},"ƒ":{"ha":461,"x_min":-154,"x_max":592,"o":"m 578 999 q 425 960 483 999 q 344 839 367 921 l 321 754 l 519 754 l 506 700 l 306 700 l 92 -58 q 21 -180 68 -140 q -112 -219 -26 -219 l -154 -219 l -140 -164 l -101 -164 q -19 -142 -47 -164 q 29 -58 10 -121 l 244 700 l 132 700 l 144 754 l 260 754 l 283 839 q 391 1001 314 950 q 592 1053 468 1053 l 578 999 z "},"Ǽ":{"ha":1189,"x_min":-75,"x_max":1207,"o":"m 763 926 l 690 517 l 1083 517 l 1074 465 l 681 465 l 608 53 l 1043 53 l 1035 0 l 536 0 l 581 253 l 190 253 l -6 0 l -75 0 l 682 979 l 1207 979 l 1197 926 l 763 926 m 696 904 l 231 304 l 590 304 l 696 904 m 1053 1217 l 750 1042 l 760 1092 l 1064 1274 l 1053 1217 z "},"ǽ":{"ha":1563,"x_min":68,"x_max":1501,"o":"m 1211 764 q 1371 728 1306 764 q 1469 631 1436 692 q 1501 494 1501 569 q 1496 433 1501 461 q 1476 360 1486 382 l 821 360 q 815 292 815 326 q 888 106 815 169 q 1071 43 960 43 q 1275 101 1186 43 q 1399 258 1364 158 l 1464 258 q 1319 64 1422 138 q 1075 -10 1215 -10 q 881 51 957 -10 q 794 226 804 113 l 754 0 l 693 0 l 733 225 q 588 55 685 119 q 368 -10 490 -10 q 149 69 229 -10 q 68 288 68 149 q 76 378 68 331 q 158 583 97 496 q 310 717 219 671 q 506 764 400 764 q 701 699 628 764 q 788 529 775 635 l 828 754 l 889 754 l 849 528 q 992 703 897 643 q 1211 764 1088 764 m 1429 397 q 1440 485 1440 449 q 1369 655 1440 597 q 1190 713 1297 713 q 957 633 1057 713 q 828 397 857 554 l 1429 397 m 760 378 q 767 451 767 422 q 696 639 767 569 q 508 708 625 708 q 267 619 367 708 q 140 378 167 531 q 133 297 133 343 q 201 113 133 179 q 390 46 269 46 q 557 87 479 46 q 688 203 635 128 q 760 378 742 279 m 1119 992 l 817 817 l 826 867 l 1131 1049 l 1119 992 z "},"Ș":{"ha":760,"x_min":28,"x_max":700,"o":"m 631 225 q 583 112 621 165 q 480 24 546 58 q 324 -10 414 -10 q 162 26 229 -10 q 61 121 94 63 q 31 244 28 179 l 96 244 q 116 152 94 199 q 190 74 138 106 q 328 42 243 42 q 488 94 426 42 q 564 228 550 147 q 568 278 568 256 q 538 379 568 340 q 465 440 508 418 q 346 488 421 461 q 220 538 267 515 q 142 605 174 561 q 110 718 110 649 q 115 779 110 750 q 213 931 132 872 q 418 989 293 989 q 572 957 510 989 q 666 874 635 925 q 700 765 697 822 l 635 765 q 610 844 632 804 q 539 910 588 883 q 414 938 490 938 q 259 894 322 938 q 182 774 196 851 q 178 728 178 749 q 207 633 178 669 q 278 576 236 597 q 393 531 321 556 q 521 479 472 504 q 603 408 569 454 q 636 289 636 363 q 631 225 636 257 m 382 -78 q 378 -139 385 -111 q 332 -243 365 -212 q 247 -274 299 -274 l 253 -239 q 328 -160 317 -239 l 331 -150 l 281 -150 l 293 -78 l 382 -78 z "},"ș":{"ha":689,"x_min":35,"x_max":625,"o":"m 356 764 q 556 701 488 764 q 621 528 625 638 l 560 528 q 511 662 564 608 q 349 715 458 715 q 212 671 263 715 q 161 556 161 626 q 186 483 161 511 q 248 440 211 456 q 349 407 285 425 q 467 366 422 386 q 542 308 511 346 q 574 208 574 271 q 568 157 574 196 q 490 36 554 82 q 325 -10 426 -10 q 112 53 189 -10 q 39 226 35 117 l 101 226 q 153 92 94 146 q 333 39 213 39 q 452 73 406 39 q 508 161 499 107 q 511 197 511 174 q 484 279 511 247 q 417 328 457 311 q 313 363 378 344 q 201 401 242 383 q 131 454 160 419 q 101 546 101 489 q 106 592 101 567 q 186 717 119 671 q 356 764 253 764 m 335 -78 q 331 -139 335 -112 q 284 -243 318 -212 q 199 -274 250 -274 l 206 -239 q 281 -160 268 -239 l 283 -150 l 232 -150 l 246 -78 l 335 -78 z "},"Ț":{"ha":678,"x_min":94,"x_max":731,"o":"m 731 979 l 721 926 l 439 926 l 276 0 l 213 0 l 376 926 l 94 926 l 104 979 l 731 979 m 275 -78 q 272 -139 275 -103 q 224 -243 258 -212 q 139 -274 190 -274 l 147 -239 q 197 -219 179 -239 q 222 -160 214 -199 l 224 -150 l 174 -150 l 186 -78 l 275 -78 z "},"ț":{"ha":486,"x_min":81,"x_max":494,"o":"m 176 213 q 171 154 171 183 q 200 78 171 100 q 294 57 229 57 l 372 57 l 363 0 l 276 0 q 149 33 190 0 q 107 142 107 65 q 114 213 107 168 l 199 697 l 81 697 l 90 754 l 210 754 l 243 946 l 307 946 l 272 754 l 494 754 l 485 697 l 263 697 l 176 213 m 264 -78 q 260 -139 265 -101 q 214 -243 247 -212 q 129 -274 181 -274 l 135 -239 q 210 -160 199 -239 l 213 -150 l 163 -150 l 175 -78 l 264 -78 z "},"ʼ":{"ha":197,"x_min":22,"x_max":164,"o":"m 164 1051 q 154 944 163 1001 q 109 849 142 878 q 22 819 76 819 l 29 857 q 81 874 64 857 q 106 925 97 890 l 111 961 l 53 961 l 68 1051 l 164 1051 z "},"ˆ":{"ha":458,"x_min":119,"x_max":486,"o":"m 318 969 l 119 857 l 129 906 l 328 1019 l 486 906 l 476 857 l 318 969 z "},"ˇ":{"ha":458,"x_min":139,"x_max":506,"o":"m 497 965 l 299 853 l 139 965 l 149 1015 l 308 901 l 506 1015 l 497 965 z "},"ˉ":{"ha":551,"x_min":129,"x_max":589,"o":"m 589 957 l 579 908 l 129 908 l 139 957 l 589 957 z "},"˘":{"ha":453,"x_min":144,"x_max":501,"o":"m 294 853 q 182 890 219 853 q 144 982 144 926 q 147 1014 144 992 l 149 1022 l 192 1022 q 189 992 189 1011 q 219 926 189 949 q 304 903 249 903 q 408 934 368 903 q 460 1022 449 965 l 501 1022 l 500 1014 q 433 900 488 947 q 294 853 379 853 z "},"˙":{"ha":221,"x_min":139,"x_max":249,"o":"m 142 921 q 164 957 146 942 q 203 972 182 972 q 236 957 224 972 q 244 921 249 942 q 224 885 242 900 q 185 869 206 869 q 151 885 164 869 q 142 921 139 900 z "},"˚":{"ha":365,"x_min":131,"x_max":401,"o":"m 289 1115 q 369 1087 338 1115 q 401 1010 401 1058 q 399 983 401 1003 q 343 886 388 922 q 243 850 299 850 q 162 878 193 850 q 131 957 131 907 q 133 983 131 964 q 189 1079 144 1043 q 289 1115 233 1115 m 283 1078 q 204 1046 238 1078 q 171 961 171 1014 q 192 908 171 928 q 249 888 214 888 q 320 913 289 888 q 360 983 351 939 q 361 1003 361 990 q 340 1058 361 1038 q 283 1078 319 1078 z "},"˛":{"ha":375,"x_min":46,"x_max":310,"o":"m 294 -39 l 286 -81 l 235 -81 q 135 -109 172 -81 q 97 -187 97 -137 q 125 -248 97 -226 q 203 -269 153 -269 l 310 -269 l 301 -312 l 190 -312 q 84 -281 122 -312 q 46 -196 46 -249 q 96 -82 46 -125 q 236 -39 146 -39 l 294 -39 z "},"˜":{"ha":457,"x_min":122,"x_max":500,"o":"m 243 951 q 284 942 268 951 q 319 915 300 933 q 351 890 338 899 q 386 882 365 882 q 430 899 410 882 q 460 947 450 915 l 500 947 q 453 869 486 899 q 378 839 419 839 q 335 848 351 839 q 296 876 318 857 q 264 899 276 892 q 233 907 251 907 q 163 840 183 907 l 122 840 q 170 922 139 893 q 243 951 201 951 z "},"˝":{"ha":429,"x_min":119,"x_max":478,"o":"m 167 835 l 119 835 l 235 1004 l 293 1004 l 167 835 m 340 835 l 293 835 l 419 1004 l 478 1004 l 340 835 z "},"π":{"ha":999,"x_min":131,"x_max":986,"o":"m 986 754 l 976 704 l 860 704 l 735 0 l 672 0 l 796 704 l 318 704 l 193 0 l 131 0 l 254 704 l 138 704 l 147 754 l 986 754 z "},"Ẁ":{"ha":1290,"x_min":132,"x_max":1326,"o":"m 1326 979 l 897 0 l 825 0 l 714 883 l 290 0 l 218 0 l 132 979 l 203 979 l 271 90 l 694 979 l 765 979 l 875 90 l 1256 979 l 1326 979 m 771 1092 l 761 1042 l 519 1217 l 531 1274 l 771 1092 z "},"ẁ":{"ha":1133,"x_min":86,"x_max":1171,"o":"m 1171 754 l 807 0 l 746 0 l 614 672 l 243 0 l 182 0 l 86 754 l 151 754 l 231 78 l 599 754 l 661 754 l 790 78 l 1108 754 l 1171 754 m 653 867 l 643 817 l 401 992 l 413 1049 l 653 867 z "},"Ẃ":{"ha":1290,"x_min":132,"x_max":1326,"o":"m 1326 979 l 897 0 l 825 0 l 714 883 l 290 0 l 218 0 l 132 979 l 203 979 l 271 90 l 694 979 l 765 979 l 875 90 l 1256 979 l 1326 979 m 1022 1217 l 719 1042 l 729 1092 l 1033 1274 l 1022 1217 z "},"ẃ":{"ha":1133,"x_min":86,"x_max":1171,"o":"m 1171 754 l 807 0 l 746 0 l 614 672 l 243 0 l 182 0 l 86 754 l 151 754 l 231 78 l 599 754 l 661 754 l 790 78 l 1108 754 l 1171 754 m 904 992 l 601 817 l 611 867 l 915 1049 l 904 992 z "},"Ẅ":{"ha":1290,"x_min":139,"x_max":1333,"o":"m 1333 979 l 904 0 l 832 0 l 721 883 l 297 0 l 225 0 l 139 979 l 210 979 l 278 90 l 701 979 l 772 979 l 882 90 l 1263 979 l 1333 979 m 622 1146 q 644 1182 626 1167 q 683 1197 661 1197 q 717 1182 704 1197 q 725 1146 729 1167 q 704 1110 722 1125 q 665 1094 686 1094 q 631 1110 643 1094 q 622 1146 619 1125 m 824 1136 q 842 1178 824 1160 q 885 1197 861 1197 q 915 1185 903 1197 q 928 1156 928 1174 q 909 1113 928 1132 q 867 1094 890 1094 q 836 1106 849 1094 q 824 1136 824 1118 z "},"ẅ":{"ha":1133,"x_min":93,"x_max":1178,"o":"m 1178 754 l 814 0 l 753 0 l 621 672 l 250 0 l 189 0 l 93 754 l 158 754 l 238 78 l 606 754 l 668 754 l 797 78 l 1115 754 l 1178 754 m 504 921 q 526 957 508 942 q 565 972 543 972 q 599 957 586 972 q 607 921 611 942 q 586 885 604 900 q 547 869 568 869 q 513 885 525 869 q 504 921 501 900 m 706 911 q 724 953 706 935 q 767 972 743 972 q 797 960 785 972 q 810 931 810 949 q 791 888 810 907 q 749 869 772 869 q 718 881 731 869 q 706 911 706 893 z "},"Ẽ":{"ha":679,"x_min":33,"x_max":706,"o":"m 258 926 l 188 515 l 582 515 l 572 465 l 176 465 l 104 53 l 542 53 l 533 0 l 33 0 l 206 979 l 706 979 l 696 926 l 258 926 m 424 1176 q 465 1167 449 1176 q 500 1140 481 1158 q 532 1115 518 1124 q 567 1107 546 1107 q 610 1124 590 1107 q 640 1172 631 1140 l 681 1172 q 633 1094 667 1124 q 558 1064 600 1064 q 515 1073 532 1064 q 476 1101 499 1082 q 444 1124 457 1117 q 414 1132 432 1132 q 343 1065 364 1132 l 303 1065 q 351 1147 319 1118 q 424 1176 382 1176 z "},"ẽ":{"ha":869,"x_min":75,"x_max":817,"o":"m 518 764 q 683 727 615 764 q 783 629 750 690 q 817 493 817 568 q 811 433 817 472 q 792 360 801 382 l 142 360 q 136 290 136 326 q 208 106 136 168 q 388 43 279 43 q 590 101 501 43 q 713 258 678 158 l 778 258 q 631 64 736 138 q 381 -10 525 -10 q 158 69 242 -10 q 75 289 75 149 q 83 379 75 332 q 167 585 104 497 q 320 718 229 672 q 518 764 411 764 m 743 397 q 754 486 754 449 q 683 655 754 597 q 508 713 613 713 q 353 678 428 713 q 223 572 278 643 q 149 397 168 501 l 743 397 m 457 951 q 498 942 482 951 q 533 915 514 933 q 565 890 551 899 q 600 882 579 882 q 644 899 624 882 q 674 947 664 915 l 714 947 q 667 869 700 899 q 592 839 633 839 q 549 848 565 839 q 510 876 532 857 q 478 899 490 892 q 447 907 465 907 q 376 840 397 907 l 336 840 q 384 922 353 893 q 457 951 415 951 z "},"Ỳ":{"ha":757,"x_min":121,"x_max":804,"o":"m 804 979 l 393 396 l 324 0 l 261 0 l 331 396 l 121 979 l 194 979 l 372 463 l 732 979 l 804 979 m 504 1092 l 494 1042 l 253 1217 l 264 1274 l 504 1092 z "},"ỳ":{"ha":729,"x_min":42,"x_max":747,"o":"m 133 754 l 299 83 l 678 754 l 747 754 l 114 -356 l 42 -356 l 250 4 l 64 754 l 133 754 m 438 867 l 428 817 l 186 992 l 197 1049 l 438 867 z "},"Ỹ":{"ha":757,"x_min":129,"x_max":813,"o":"m 813 979 l 401 396 l 332 0 l 269 0 l 339 396 l 129 979 l 203 979 l 381 463 l 740 979 l 813 979 m 440 1176 q 481 1167 465 1176 q 517 1140 497 1158 q 549 1115 535 1124 q 583 1107 563 1107 q 627 1124 607 1107 q 657 1172 647 1140 l 697 1172 q 650 1094 683 1124 q 575 1064 617 1064 q 532 1073 549 1064 q 493 1101 515 1082 q 461 1124 474 1117 q 431 1132 449 1132 q 360 1065 381 1132 l 319 1065 q 367 1147 336 1118 q 440 1176 399 1176 z "},"ỹ":{"ha":729,"x_min":47,"x_max":753,"o":"m 139 754 l 304 83 l 683 754 l 753 754 l 119 -356 l 47 -356 l 256 4 l 69 754 l 139 754 m 371 951 q 412 942 396 951 q 447 915 428 933 q 479 890 465 899 q 514 882 493 882 q 558 899 538 882 q 588 947 578 915 l 628 947 q 581 869 614 899 q 506 839 547 839 q 463 848 479 839 q 424 876 446 857 q 392 899 404 892 q 361 907 379 907 q 290 840 311 907 l 250 840 q 298 922 267 893 q 371 951 329 951 z "},"–":{"ha":825,"x_min":53,"x_max":772,"o":"m 772 549 l 761 494 l 53 494 l 64 549 l 772 549 z "},"—":{"ha":1092,"x_min":53,"x_max":1038,"o":"m 1038 549 l 1028 494 l 53 494 l 64 549 l 1038 549 z "},"‘":{"ha":197,"x_min":35,"x_max":176,"o":"m 35 819 q 43 926 35 868 q 89 1022 56 993 q 176 1051 122 1051 l 168 1014 q 117 997 133 1014 q 92 946 100 981 l 86 908 l 144 908 l 129 819 l 35 819 z "},"’":{"ha":197,"x_min":22,"x_max":164,"o":"m 164 1051 q 154 944 163 1001 q 109 849 142 878 q 22 819 76 819 l 29 857 q 81 874 64 857 q 106 925 97 890 l 111 961 l 53 961 l 68 1051 l 164 1051 z "},"‚":{"ha":215,"x_min":-12,"x_max":125,"o":"m 124 61 q 90 -88 125 -35 q -12 -142 54 -142 l -6 -106 q 68 -29 57 -106 l 71 -19 l 18 -19 l 32 61 l 124 61 z "},"“":{"ha":340,"x_min":35,"x_max":319,"o":"m 35 819 q 43 926 35 868 q 89 1022 56 993 q 176 1051 122 1051 l 168 1014 q 117 997 133 1014 q 92 946 100 981 l 86 908 l 144 908 l 129 819 l 35 819 m 178 819 q 188 926 178 875 q 232 1022 199 993 q 319 1051 265 1051 l 313 1014 q 260 997 278 1014 q 236 946 243 981 l 229 908 l 288 908 l 272 819 l 178 819 z "},"”":{"ha":340,"x_min":22,"x_max":307,"o":"m 164 1051 q 154 944 163 1001 q 109 849 142 878 q 22 819 76 819 l 29 857 q 81 874 64 857 q 106 925 97 890 l 111 961 l 53 961 l 68 1051 l 164 1051 m 307 1051 q 297 944 304 985 q 252 849 285 878 q 165 819 219 819 l 172 857 q 224 874 207 857 q 249 925 242 890 l 256 961 l 196 961 l 211 1051 l 307 1051 z "},"„":{"ha":340,"x_min":-8,"x_max":276,"o":"m 133 90 q 124 -17 132 40 q 78 -112 111 -83 q -8 -142 46 -142 l -1 -104 q 50 -87 33 -104 q 75 -36 67 -71 l 81 0 l 22 0 l 38 90 l 133 90 m 276 90 q 267 -17 274 24 q 222 -112 254 -83 q 135 -142 189 -142 l 142 -104 q 194 -87 176 -104 q 218 -36 211 -71 l 225 0 l 165 0 l 181 90 l 276 90 z "},"†":{"ha":646,"x_min":106,"x_max":669,"o":"m 661 701 l 408 707 l 226 -356 l 167 -356 l 358 707 l 106 701 l 114 754 l 367 749 l 421 1079 l 481 1079 l 415 749 l 669 754 l 661 701 z "},"‡":{"ha":647,"x_min":-24,"x_max":671,"o":"m 410 707 l 288 15 l 542 24 l 533 -32 l 281 -25 l 226 -356 l 167 -356 l 231 -25 l -24 -32 l -15 24 l 239 15 l 360 707 l 106 701 l 114 754 l 368 749 l 419 1079 l 481 1079 l 417 749 l 671 754 l 663 701 l 410 707 z "},"•":{"ha":404,"x_min":51,"x_max":353,"o":"m 51 436 q 76 523 51 482 q 142 588 101 564 q 228 613 183 613 q 317 578 282 613 q 353 490 353 543 q 328 404 353 444 q 263 340 304 364 q 176 315 222 315 q 87 349 122 315 q 51 436 51 383 z "},"…":{"ha":629,"x_min":25,"x_max":585,"o":"m 363 96 l 346 0 l 247 0 l 264 96 l 363 96 m 585 96 l 568 0 l 469 0 l 486 96 l 585 96 m 140 96 l 124 0 l 25 0 l 42 96 l 140 96 z "},"‰":{"ha":1231,"x_min":-10,"x_max":1126,"o":"m 325 989 q 439 948 396 989 q 482 839 482 907 q 479 801 482 814 q 403 665 465 718 q 260 613 340 613 q 147 653 190 613 q 104 761 104 694 q 135 877 104 825 q 216 959 165 929 q 325 989 267 989 m 807 979 l 56 0 l -10 0 l 742 979 l 807 979 m 154 771 q 185 688 154 719 q 267 657 215 657 q 372 698 326 657 q 429 801 418 739 q 432 832 432 824 q 401 913 432 882 q 318 944 371 944 q 202 894 250 944 q 154 771 154 844 m 539 365 q 651 324 608 365 q 694 217 694 283 q 665 101 694 153 q 584 19 635 49 q 474 -11 533 -11 q 360 30 403 -11 q 317 139 317 71 q 319 176 317 164 q 396 313 333 260 q 539 365 458 365 m 971 365 q 1083 324 1040 365 q 1126 217 1126 283 q 1096 101 1126 153 q 1015 19 1065 49 q 906 -11 964 -11 q 792 30 835 -11 q 749 139 749 71 q 751 176 749 164 q 828 313 765 260 q 971 365 890 365 m 369 176 q 367 146 367 154 q 397 65 367 96 q 481 33 428 33 q 597 83 549 33 q 644 208 644 133 q 614 290 644 258 q 532 321 583 321 q 426 281 472 321 q 369 176 381 240 m 801 176 q 799 146 799 154 q 829 65 799 96 q 913 33 860 33 q 1028 83 981 33 q 1076 208 1076 133 q 1046 290 1076 258 q 963 321 1015 321 q 858 281 903 321 q 801 176 813 240 z "},"‹":{"ha":343,"x_min":63,"x_max":317,"o":"m 163 167 l 63 410 l 249 653 l 317 653 l 128 410 l 231 167 l 163 167 z "},"›":{"ha":343,"x_min":26,"x_max":281,"o":"m 217 410 l 113 653 l 182 653 l 281 410 l 96 167 l 26 167 l 217 410 z "},"⁄":{"ha":349,"x_min":-235,"x_max":582,"o":"m 582 979 l -169 0 l -235 0 l 517 979 l 582 979 z "},"€":{"ha":1154,"x_min":3,"x_max":1110,"o":"m 704 931 q 441 844 561 931 q 264 606 321 757 l 656 606 l 649 567 l 250 567 q 232 489 236 518 q 222 389 222 428 l 618 389 l 611 350 l 224 350 q 324 129 235 210 q 549 49 413 49 q 805 117 694 49 q 978 299 915 185 l 1042 299 q 840 72 968 154 q 539 -10 711 -10 q 344 35 428 -10 q 212 160 260 79 q 158 350 164 242 l 3 350 l 10 389 l 157 389 q 167 489 157 428 q 185 567 171 518 l 40 567 l 47 606 l 197 606 q 317 806 239 719 q 497 941 394 893 q 714 989 600 989 q 986 906 886 989 q 1110 679 1086 824 l 1044 679 q 936 862 1022 793 q 704 931 850 931 z "},"₺":{"ha":1076,"x_min":47,"x_max":1008,"o":"m 1008 547 q 813 115 958 263 q 415 -32 667 -32 q 250 -11 332 -32 l 314 353 l 47 283 l 56 331 l 322 400 l 354 585 l 88 514 l 96 560 l 363 631 l 424 979 l 486 979 l 428 649 l 729 729 l 721 682 l 419 603 l 388 417 l 689 494 l 681 447 l 379 369 l 321 38 q 425 26 374 26 q 944 547 853 26 l 1008 547 z "},"₽":{"ha":838,"x_min":31,"x_max":829,"o":"m 551 979 q 761 924 693 979 q 829 767 829 868 q 824 704 829 733 q 706 500 800 569 q 456 431 613 431 l 249 431 l 218 257 l 569 257 l 561 206 l 208 206 l 172 0 l 110 0 l 146 206 l 31 206 l 39 257 l 156 257 l 186 431 l 71 431 l 81 486 l 196 486 l 282 979 l 551 979 m 760 704 q 765 763 765 732 q 712 883 765 842 q 540 925 658 925 l 336 925 l 258 486 l 463 486 q 760 704 724 486 z "},"ℓ":{"ha":263,"x_min":15,"x_max":258,"o":"m 258 1028 l 78 0 l 15 0 l 196 1028 l 258 1028 z "},"™":{"ha":1001,"x_min":78,"x_max":992,"o":"m 414 932 l 272 932 l 193 490 l 143 490 l 221 932 l 78 932 l 85 979 l 421 979 l 414 932 m 992 979 l 906 490 l 856 490 l 925 889 l 675 490 l 633 490 l 522 890 l 453 490 l 404 490 l 490 979 l 551 979 l 665 553 l 933 979 l 992 979 z "},"Ω":{"ha":1103,"x_min":3,"x_max":1046,"o":"m 1036 494 q 910 214 1007 335 q 672 51 814 93 l 933 51 l 924 0 l 539 0 l 549 57 q 742 128 653 71 q 890 278 831 185 q 971 489 950 371 q 979 582 979 538 q 935 767 979 688 q 811 889 890 846 q 629 932 732 932 q 403 875 510 932 q 223 717 296 818 q 128 489 150 617 q 119 394 119 439 q 194 165 119 254 q 397 57 269 75 l 388 0 l 3 0 l 11 51 l 275 51 q 113 176 169 86 q 57 392 57 267 q 67 494 57 444 q 177 753 93 640 q 383 927 261 865 q 639 989 504 989 q 849 940 757 989 q 994 802 942 892 q 1046 594 1046 713 q 1036 494 1046 556 z "},"℮":{"ha":1067,"x_min":61,"x_max":1007,"o":"m 461 -10 q 170 85 279 -10 q 61 353 61 181 q 71 456 61 406 q 171 714 97 599 q 360 896 244 829 q 618 963 475 963 q 831 913 743 963 q 963 781 918 864 q 1007 599 1007 699 q 1000 517 1007 551 l 986 433 l 211 433 l 171 210 q 285 84 215 125 q 469 43 356 43 q 661 90 571 43 q 869 235 751 136 l 903 192 q 461 -10 678 -10 m 881 756 q 776 868 846 828 q 608 908 706 908 q 419 866 507 908 q 264 738 331 824 l 222 503 l 836 503 l 881 756 z "},"∂":{"ha":756,"x_min":13,"x_max":728,"o":"m 461 768 q 646 569 646 768 q 643 514 646 533 q 669 735 669 653 q 622 919 669 854 q 465 985 574 985 q 353 968 419 985 l 358 1011 q 488 1028 424 1028 q 728 746 728 1028 q 711 579 728 674 q 608 265 679 399 q 435 58 536 131 q 218 -15 335 -15 q 69 41 125 -15 q 13 206 13 97 q 19 288 13 251 q 102 522 40 413 q 257 700 164 632 q 461 768 350 768 m 456 714 q 290 658 368 714 q 158 505 213 601 q 82 289 103 408 q 75 217 75 244 q 118 85 75 129 q 231 42 161 42 q 403 99 324 42 q 538 253 483 157 q 611 461 592 349 q 619 543 619 507 q 456 714 619 714 z "}}}
